G75*
%MOIN*%
%OFA0B0*%
%FSLAX25Y25*%
%IPPOS*%
%LPD*%
%AMOC8*
5,1,8,0,0,1.08239X$1,22.5*
%
%ADD10R,0.14580X0.07099*%
%ADD11R,0.05918X0.07099*%
%ADD12R,0.01784X0.02178*%
%ADD13R,0.05131X0.04737*%
%ADD14R,0.07099X0.05918*%
%ADD15R,0.08674X0.06706*%
%ADD16R,0.02178X0.01784*%
%ADD17OC8,0.13200*%
%ADD18C,0.13200*%
%ADD19R,0.06706X0.08674*%
%ADD20C,0.07400*%
%ADD21R,0.04343X0.03950*%
%ADD22C,0.08674*%
%ADD23C,0.06800*%
%ADD24C,0.05200*%
%ADD25C,0.06000*%
%ADD26R,0.05918X0.06706*%
%ADD27R,0.03556X0.04343*%
%ADD28R,0.07099X0.08674*%
%ADD29R,0.06706X0.05918*%
%ADD30C,0.06000*%
%ADD31C,0.04343*%
%ADD32R,0.22847X0.13005*%
%ADD33C,0.04000*%
D10*
X0073111Y0123300D03*
X0094371Y0123300D03*
D11*
X0195624Y0137700D03*
X0203498Y0137700D03*
X0204858Y0157480D03*
X0196984Y0157480D03*
X0254261Y0179960D03*
X0261741Y0179960D03*
X0210238Y0105580D03*
X0202364Y0105580D03*
X0199004Y0075360D03*
X0206878Y0075360D03*
D12*
X0268197Y0118560D03*
X0270165Y0118560D03*
D13*
X0271587Y0132600D03*
X0264895Y0132600D03*
D14*
X0263541Y0161343D03*
X0271401Y0161283D03*
X0279201Y0161283D03*
X0287701Y0161443D03*
X0287701Y0169317D03*
X0279201Y0169157D03*
X0271401Y0169157D03*
X0263541Y0169217D03*
X0254721Y0169297D03*
X0246261Y0169297D03*
X0238561Y0169217D03*
X0231061Y0169277D03*
X0223481Y0168977D03*
X0223481Y0161103D03*
X0231061Y0161403D03*
X0238561Y0161343D03*
X0246261Y0161423D03*
X0254721Y0161423D03*
X0181581Y0112437D03*
X0181581Y0104563D03*
D15*
X0041641Y0023694D03*
X0041641Y0035506D03*
X0328941Y0103254D03*
X0328941Y0115066D03*
D16*
X0349081Y0114724D03*
X0349081Y0112756D03*
D17*
X0127241Y0092800D03*
D18*
X0127241Y0062800D03*
D19*
X0042147Y0048600D03*
X0030335Y0048600D03*
D20*
X0080341Y0063600D03*
X0080341Y0103600D03*
D21*
X0096178Y0199060D03*
X0088304Y0202800D03*
X0096178Y0206540D03*
D22*
X0060546Y0137537D02*
X0060546Y0129663D01*
X0052278Y0114702D02*
X0044404Y0114702D01*
X0036530Y0129663D02*
X0036530Y0137537D01*
D23*
X0137376Y0224660D02*
X0137376Y0230660D01*
X0147376Y0230660D02*
X0147376Y0224660D01*
X0157376Y0224660D02*
X0157376Y0230660D01*
X0167376Y0230660D02*
X0167376Y0224660D01*
X0177376Y0224660D02*
X0177376Y0230660D01*
X0187376Y0230660D02*
X0187376Y0224660D01*
X0197376Y0224660D02*
X0197376Y0230660D01*
X0207376Y0230660D02*
X0207376Y0224660D01*
X0217376Y0224660D02*
X0217376Y0230660D01*
X0227376Y0230660D02*
X0227376Y0224660D01*
X0237376Y0224660D02*
X0237376Y0230660D01*
X0247376Y0230660D02*
X0247376Y0224660D01*
X0257376Y0224660D02*
X0257376Y0230660D01*
X0267376Y0230660D02*
X0267376Y0224660D01*
X0277376Y0224660D02*
X0277376Y0230660D01*
X0287376Y0230660D02*
X0287376Y0224660D01*
X0297376Y0224660D02*
X0297376Y0230660D01*
X0307376Y0230660D02*
X0307376Y0224660D01*
X0317376Y0224660D02*
X0317376Y0230660D01*
X0327376Y0230660D02*
X0327376Y0224660D01*
X0337376Y0224660D02*
X0337376Y0230660D01*
X0347376Y0230660D02*
X0347376Y0224660D01*
X0357376Y0224660D02*
X0357376Y0230660D01*
X0367376Y0230660D02*
X0367376Y0224660D01*
X0377376Y0224660D02*
X0377376Y0230660D01*
X0387376Y0230660D02*
X0387376Y0224660D01*
X0384841Y0138100D02*
X0378841Y0138100D01*
X0378841Y0128100D02*
X0384841Y0128100D01*
X0384841Y0118100D02*
X0378841Y0118100D01*
X0378841Y0108100D02*
X0384841Y0108100D01*
X0387391Y0029475D02*
X0387391Y0023475D01*
X0377391Y0023475D02*
X0377391Y0029475D01*
X0367391Y0029475D02*
X0367391Y0023475D01*
X0357391Y0023475D02*
X0357391Y0029475D01*
X0347391Y0029475D02*
X0347391Y0023475D01*
X0337391Y0023475D02*
X0337391Y0029475D01*
X0327391Y0029475D02*
X0327391Y0023475D01*
X0317391Y0023475D02*
X0317391Y0029475D01*
X0307391Y0029475D02*
X0307391Y0023475D01*
X0297391Y0023475D02*
X0297391Y0029475D01*
X0287391Y0029475D02*
X0287391Y0023475D01*
X0277391Y0023475D02*
X0277391Y0029475D01*
X0267391Y0029475D02*
X0267391Y0023475D01*
X0257391Y0023475D02*
X0257391Y0029475D01*
X0247391Y0029475D02*
X0247391Y0023475D01*
X0237391Y0023475D02*
X0237391Y0029475D01*
X0227391Y0029475D02*
X0227391Y0023475D01*
X0217391Y0023475D02*
X0217391Y0029475D01*
X0207391Y0029475D02*
X0207391Y0023475D01*
X0197391Y0023475D02*
X0197391Y0029475D01*
X0187391Y0029475D02*
X0187391Y0023475D01*
X0177391Y0023475D02*
X0177391Y0029475D01*
X0167391Y0029475D02*
X0167391Y0023475D01*
X0157391Y0023475D02*
X0157391Y0029475D01*
X0147391Y0029475D02*
X0147391Y0023475D01*
X0137391Y0023475D02*
X0137391Y0029475D01*
X0193781Y0060580D02*
X0193781Y0066580D01*
X0211581Y0066580D02*
X0211581Y0060580D01*
X0211581Y0086180D02*
X0211581Y0092180D01*
X0193781Y0092180D02*
X0193781Y0086180D01*
D24*
X0194221Y0113600D02*
X0194221Y0118000D01*
X0214221Y0118000D02*
X0214221Y0113600D01*
D25*
X0212481Y0140840D03*
X0212481Y0150840D03*
D26*
X0347001Y0128500D03*
X0354481Y0128500D03*
X0357181Y0151700D03*
X0349701Y0151700D03*
D27*
X0279120Y0147080D03*
X0274002Y0147080D03*
D28*
X0255813Y0147800D03*
X0244789Y0147800D03*
D29*
X0333241Y0077400D03*
X0333241Y0069920D03*
X0381981Y0073240D03*
X0381981Y0065760D03*
D30*
X0361481Y0062620D02*
X0361481Y0057420D01*
X0351481Y0057420D02*
X0351481Y0062620D01*
X0351481Y0087420D02*
X0351481Y0092620D01*
X0361481Y0092620D02*
X0361481Y0087420D01*
D31*
X0035341Y0202939D03*
X0035341Y0220261D03*
D32*
X0076041Y0052285D03*
X0076041Y0012915D03*
D33*
X0050991Y0023675D03*
X0078491Y0037925D03*
X0117241Y0036175D03*
X0072866Y0068050D03*
X0103491Y0081925D03*
X0066491Y0106925D03*
X0084741Y0133050D03*
X0104741Y0145550D03*
X0121616Y0146800D03*
X0129116Y0134925D03*
X0133491Y0134925D03*
X0132241Y0127425D03*
X0132241Y0122425D03*
X0144116Y0116175D03*
X0166616Y0113050D03*
X0150366Y0130550D03*
X0105366Y0158675D03*
X0114741Y0161800D03*
X0105991Y0168675D03*
X0105491Y0179925D03*
X0128491Y0189925D03*
X0103491Y0199300D03*
X0081616Y0206175D03*
X0063491Y0194925D03*
X0019491Y0173925D03*
X0065991Y0162425D03*
X0075991Y0159300D03*
X0024491Y0108925D03*
X0015491Y0048925D03*
X0178741Y0065800D03*
X0217241Y0073675D03*
X0243741Y0070800D03*
X0260741Y0065800D03*
X0280541Y0083600D03*
X0268741Y0095800D03*
X0254741Y0103675D03*
X0241041Y0112800D03*
X0236541Y0116400D03*
X0237341Y0107600D03*
X0223491Y0098050D03*
X0221616Y0116800D03*
X0228941Y0122800D03*
X0239741Y0129300D03*
X0256741Y0126800D03*
X0262241Y0118675D03*
X0285741Y0126800D03*
X0304141Y0124400D03*
X0306741Y0131800D03*
X0311741Y0122400D03*
X0305991Y0107425D03*
X0341616Y0076800D03*
X0377741Y0090800D03*
X0361741Y0118800D03*
X0341741Y0142800D03*
X0365741Y0166800D03*
X0389741Y0166800D03*
X0353741Y0182800D03*
X0389741Y0198800D03*
X0375741Y0240800D03*
X0282741Y0240800D03*
X0272241Y0183675D03*
X0277866Y0180550D03*
X0235366Y0151800D03*
X0228491Y0153675D03*
X0214741Y0166800D03*
X0211616Y0170550D03*
X0213491Y0177425D03*
X0203741Y0178800D03*
X0199741Y0166175D03*
X0255991Y0137425D03*
X0302741Y0061800D03*
X0265741Y0010800D03*
X0181741Y0010800D03*
X0353741Y0010800D03*
X0385741Y0050800D03*
X0172741Y0238800D03*
X0063491Y0232925D03*
M02*
