%
M48
M72
T01C0.01600
T02C0.02400
T03C0.03200
T04C0.03543
T05C0.03937
T06C0.04000
T07C0.04400
%
T01
X50991Y23675
X78491Y37925
X117241Y36175
X72866Y68050
X103491Y81925
X66491Y106925
X84741Y133050
X104741Y145550
X121616Y146800
X129116Y134925
X133491Y134925
X132241Y127425
X132241Y122425
X144116Y116175
X166616Y113050
X150366Y130550
X105366Y158675
X114741Y161800
X105991Y168675
X105491Y179925
X128491Y189925
X103491Y199300
X81616Y206175
X63491Y194925
X19491Y173925
X65991Y162425
X75991Y159300
X24491Y108925
X15491Y48925
X178741Y65800
X217241Y73675
X243741Y70800
X260741Y65800
X280541Y83600
X268741Y95800
X254741Y103675
X241041Y112800
X236541Y116400
X237341Y107600
X223491Y98050
X221616Y116800
X228941Y122800
X239741Y129300
X256741Y126800
X262241Y118675
X285741Y126800
X304141Y124400
X306741Y131800
X311741Y122400
X305991Y107425
X341616Y76800
X377741Y90800
X361741Y118800
X341741Y142800
X365741Y166800
X389741Y166800
X353741Y182800
X389741Y198800
X375741Y240800
X282741Y240800
X272241Y183675
X277866Y180550
X235366Y151800
X228491Y153675
X214741Y166800
X211616Y170550
X213491Y177425
X203741Y178800
X199741Y166175
X255991Y137425
X302741Y61800
X265741Y10800
X181741Y10800
X353741Y10800
X385741Y50800
X172741Y238800
X63491Y232925
T02
X194221Y115800
X214221Y115800
T03
X212481Y140840
X212481Y150840
X351481Y90020
X361481Y90020
X361481Y60020
X351481Y60020
T04
X35341Y202939
X35341Y220261
T05
X36530Y133600
X60546Y133600
X48341Y114702
T06
X127241Y92800
X127241Y62800
X137391Y26475
X147391Y26475
X157391Y26475
X167391Y26475
X177391Y26475
X187391Y26475
X197391Y26475
X207391Y26475
X217391Y26475
X227391Y26475
X237391Y26475
X247391Y26475
X257391Y26475
X267391Y26475
X277391Y26475
X287391Y26475
X297391Y26475
X307391Y26475
X317391Y26475
X327391Y26475
X337391Y26475
X347391Y26475
X357391Y26475
X367391Y26475
X377391Y26475
X387391Y26475
X381841Y108100
X381841Y118100
X381841Y128100
X381841Y138100
X377376Y227660
X367376Y227660
X357376Y227660
X347376Y227660
X337376Y227660
X327376Y227660
X317376Y227660
X307376Y227660
X297376Y227660
X287376Y227660
X277376Y227660
X267376Y227660
X257376Y227660
X247376Y227660
X237376Y227660
X227376Y227660
X217376Y227660
X207376Y227660
X197376Y227660
X187376Y227660
X177376Y227660
X167376Y227660
X157376Y227660
X147376Y227660
X137376Y227660
X193781Y89180
X211581Y89180
X211581Y63580
X193781Y63580
X387376Y227660
T07
X80341Y103600
X80341Y63600
M30
