G75*
%MOIN*%
%OFA0B0*%
%FSLAX25Y25*%
%IPPOS*%
%LPD*%
%AMOC8*
5,1,8,0,0,1.08239X$1,22.5*
%
%ADD10C,0.00000*%
%ADD11C,0.00800*%
%ADD12C,0.00400*%
%ADD13C,0.00600*%
%ADD14C,0.00700*%
%ADD15R,0.15000X0.02500*%
%ADD16C,0.00300*%
%ADD17C,0.01000*%
%ADD18C,0.00500*%
%ADD19R,0.08268X0.01181*%
%ADD20R,0.10000X0.02000*%
%ADD21R,0.03000X0.07500*%
%ADD22R,0.02657X0.09646*%
%ADD23R,0.06600X0.03800*%
%ADD24R,0.03000X0.03400*%
%ADD25C,0.03482*%
%ADD26R,0.01181X0.00591*%
%ADD27R,0.01181X0.01181*%
%ADD28R,0.00591X0.01181*%
%ADD29C,0.00200*%
%ADD30R,0.04000X0.01500*%
%ADD31C,0.00100*%
D10*
X0003841Y0002600D02*
X0003941Y0251201D01*
X0397362Y0251201D01*
X0397262Y0002600D01*
X0003841Y0002600D01*
X0033569Y0202939D02*
X0033571Y0203023D01*
X0033577Y0203106D01*
X0033587Y0203189D01*
X0033601Y0203272D01*
X0033618Y0203354D01*
X0033640Y0203435D01*
X0033665Y0203514D01*
X0033694Y0203593D01*
X0033727Y0203670D01*
X0033763Y0203745D01*
X0033803Y0203819D01*
X0033846Y0203891D01*
X0033893Y0203960D01*
X0033943Y0204027D01*
X0033996Y0204092D01*
X0034052Y0204154D01*
X0034110Y0204214D01*
X0034172Y0204271D01*
X0034236Y0204324D01*
X0034303Y0204375D01*
X0034372Y0204422D01*
X0034443Y0204467D01*
X0034516Y0204507D01*
X0034591Y0204544D01*
X0034668Y0204578D01*
X0034746Y0204608D01*
X0034825Y0204634D01*
X0034906Y0204657D01*
X0034988Y0204675D01*
X0035070Y0204690D01*
X0035153Y0204701D01*
X0035236Y0204708D01*
X0035320Y0204711D01*
X0035404Y0204710D01*
X0035487Y0204705D01*
X0035571Y0204696D01*
X0035653Y0204683D01*
X0035735Y0204667D01*
X0035816Y0204646D01*
X0035897Y0204622D01*
X0035975Y0204594D01*
X0036053Y0204562D01*
X0036129Y0204526D01*
X0036203Y0204487D01*
X0036275Y0204445D01*
X0036345Y0204399D01*
X0036413Y0204350D01*
X0036478Y0204298D01*
X0036541Y0204243D01*
X0036601Y0204185D01*
X0036659Y0204124D01*
X0036713Y0204060D01*
X0036765Y0203994D01*
X0036813Y0203926D01*
X0036858Y0203855D01*
X0036899Y0203782D01*
X0036938Y0203708D01*
X0036972Y0203632D01*
X0037003Y0203554D01*
X0037030Y0203475D01*
X0037054Y0203394D01*
X0037073Y0203313D01*
X0037089Y0203231D01*
X0037101Y0203148D01*
X0037109Y0203064D01*
X0037113Y0202981D01*
X0037113Y0202897D01*
X0037109Y0202814D01*
X0037101Y0202730D01*
X0037089Y0202647D01*
X0037073Y0202565D01*
X0037054Y0202484D01*
X0037030Y0202403D01*
X0037003Y0202324D01*
X0036972Y0202246D01*
X0036938Y0202170D01*
X0036899Y0202096D01*
X0036858Y0202023D01*
X0036813Y0201952D01*
X0036765Y0201884D01*
X0036713Y0201818D01*
X0036659Y0201754D01*
X0036601Y0201693D01*
X0036541Y0201635D01*
X0036478Y0201580D01*
X0036413Y0201528D01*
X0036345Y0201479D01*
X0036275Y0201433D01*
X0036203Y0201391D01*
X0036129Y0201352D01*
X0036053Y0201316D01*
X0035975Y0201284D01*
X0035897Y0201256D01*
X0035816Y0201232D01*
X0035735Y0201211D01*
X0035653Y0201195D01*
X0035571Y0201182D01*
X0035487Y0201173D01*
X0035404Y0201168D01*
X0035320Y0201167D01*
X0035236Y0201170D01*
X0035153Y0201177D01*
X0035070Y0201188D01*
X0034988Y0201203D01*
X0034906Y0201221D01*
X0034825Y0201244D01*
X0034746Y0201270D01*
X0034668Y0201300D01*
X0034591Y0201334D01*
X0034516Y0201371D01*
X0034443Y0201411D01*
X0034372Y0201456D01*
X0034303Y0201503D01*
X0034236Y0201554D01*
X0034172Y0201607D01*
X0034110Y0201664D01*
X0034052Y0201724D01*
X0033996Y0201786D01*
X0033943Y0201851D01*
X0033893Y0201918D01*
X0033846Y0201987D01*
X0033803Y0202059D01*
X0033763Y0202133D01*
X0033727Y0202208D01*
X0033694Y0202285D01*
X0033665Y0202364D01*
X0033640Y0202443D01*
X0033618Y0202524D01*
X0033601Y0202606D01*
X0033587Y0202689D01*
X0033577Y0202772D01*
X0033571Y0202855D01*
X0033569Y0202939D01*
X0033569Y0220261D02*
X0033571Y0220345D01*
X0033577Y0220428D01*
X0033587Y0220511D01*
X0033601Y0220594D01*
X0033618Y0220676D01*
X0033640Y0220757D01*
X0033665Y0220836D01*
X0033694Y0220915D01*
X0033727Y0220992D01*
X0033763Y0221067D01*
X0033803Y0221141D01*
X0033846Y0221213D01*
X0033893Y0221282D01*
X0033943Y0221349D01*
X0033996Y0221414D01*
X0034052Y0221476D01*
X0034110Y0221536D01*
X0034172Y0221593D01*
X0034236Y0221646D01*
X0034303Y0221697D01*
X0034372Y0221744D01*
X0034443Y0221789D01*
X0034516Y0221829D01*
X0034591Y0221866D01*
X0034668Y0221900D01*
X0034746Y0221930D01*
X0034825Y0221956D01*
X0034906Y0221979D01*
X0034988Y0221997D01*
X0035070Y0222012D01*
X0035153Y0222023D01*
X0035236Y0222030D01*
X0035320Y0222033D01*
X0035404Y0222032D01*
X0035487Y0222027D01*
X0035571Y0222018D01*
X0035653Y0222005D01*
X0035735Y0221989D01*
X0035816Y0221968D01*
X0035897Y0221944D01*
X0035975Y0221916D01*
X0036053Y0221884D01*
X0036129Y0221848D01*
X0036203Y0221809D01*
X0036275Y0221767D01*
X0036345Y0221721D01*
X0036413Y0221672D01*
X0036478Y0221620D01*
X0036541Y0221565D01*
X0036601Y0221507D01*
X0036659Y0221446D01*
X0036713Y0221382D01*
X0036765Y0221316D01*
X0036813Y0221248D01*
X0036858Y0221177D01*
X0036899Y0221104D01*
X0036938Y0221030D01*
X0036972Y0220954D01*
X0037003Y0220876D01*
X0037030Y0220797D01*
X0037054Y0220716D01*
X0037073Y0220635D01*
X0037089Y0220553D01*
X0037101Y0220470D01*
X0037109Y0220386D01*
X0037113Y0220303D01*
X0037113Y0220219D01*
X0037109Y0220136D01*
X0037101Y0220052D01*
X0037089Y0219969D01*
X0037073Y0219887D01*
X0037054Y0219806D01*
X0037030Y0219725D01*
X0037003Y0219646D01*
X0036972Y0219568D01*
X0036938Y0219492D01*
X0036899Y0219418D01*
X0036858Y0219345D01*
X0036813Y0219274D01*
X0036765Y0219206D01*
X0036713Y0219140D01*
X0036659Y0219076D01*
X0036601Y0219015D01*
X0036541Y0218957D01*
X0036478Y0218902D01*
X0036413Y0218850D01*
X0036345Y0218801D01*
X0036275Y0218755D01*
X0036203Y0218713D01*
X0036129Y0218674D01*
X0036053Y0218638D01*
X0035975Y0218606D01*
X0035897Y0218578D01*
X0035816Y0218554D01*
X0035735Y0218533D01*
X0035653Y0218517D01*
X0035571Y0218504D01*
X0035487Y0218495D01*
X0035404Y0218490D01*
X0035320Y0218489D01*
X0035236Y0218492D01*
X0035153Y0218499D01*
X0035070Y0218510D01*
X0034988Y0218525D01*
X0034906Y0218543D01*
X0034825Y0218566D01*
X0034746Y0218592D01*
X0034668Y0218622D01*
X0034591Y0218656D01*
X0034516Y0218693D01*
X0034443Y0218733D01*
X0034372Y0218778D01*
X0034303Y0218825D01*
X0034236Y0218876D01*
X0034172Y0218929D01*
X0034110Y0218986D01*
X0034052Y0219046D01*
X0033996Y0219108D01*
X0033943Y0219173D01*
X0033893Y0219240D01*
X0033846Y0219309D01*
X0033803Y0219381D01*
X0033763Y0219455D01*
X0033727Y0219530D01*
X0033694Y0219607D01*
X0033665Y0219686D01*
X0033640Y0219765D01*
X0033618Y0219846D01*
X0033601Y0219928D01*
X0033587Y0220011D01*
X0033577Y0220094D01*
X0033571Y0220177D01*
X0033569Y0220261D01*
D11*
X0039566Y0177218D02*
X0047676Y0177218D01*
X0047676Y0166982D02*
X0039566Y0166982D01*
X0063695Y0150529D02*
X0063695Y0144230D01*
X0063695Y0150529D02*
X0007396Y0150529D01*
X0007396Y0116671D01*
X0038695Y0116671D01*
X0057396Y0116671D02*
X0063695Y0116671D01*
X0063695Y0122970D01*
X0051980Y0099455D02*
X0051980Y0059345D01*
X0045341Y0036502D02*
X0021741Y0036500D01*
X0045341Y0036502D02*
X0045341Y0010698D01*
X0021741Y0010700D01*
X0093749Y0014808D02*
X0093749Y0023469D01*
X0093749Y0032131D02*
X0093749Y0040792D01*
X0116190Y0040792D01*
X0119733Y0037249D01*
X0119733Y0032131D01*
X0119733Y0023469D02*
X0119733Y0018351D01*
X0116190Y0014808D01*
X0093749Y0014808D01*
X0095127Y0031540D02*
X0095221Y0031821D01*
X0095323Y0032100D01*
X0095431Y0032376D01*
X0095546Y0032649D01*
X0095667Y0032920D01*
X0095795Y0033187D01*
X0095930Y0033452D01*
X0096071Y0033713D01*
X0096218Y0033970D01*
X0096371Y0034224D01*
X0096531Y0034474D01*
X0096696Y0034720D01*
X0096868Y0034962D01*
X0097045Y0035199D01*
X0097228Y0035433D01*
X0097417Y0035661D01*
X0097612Y0035886D01*
X0097811Y0036105D01*
X0098016Y0036319D01*
X0098226Y0036528D01*
X0098441Y0036732D01*
X0098662Y0036931D01*
X0098886Y0037125D01*
X0099116Y0037312D01*
X0099350Y0037495D01*
X0099588Y0037671D01*
X0099831Y0037842D01*
X0100077Y0038006D01*
X0100328Y0038165D01*
X0100582Y0038317D01*
X0100841Y0038463D01*
X0101102Y0038603D01*
X0101367Y0038737D01*
X0101635Y0038864D01*
X0101906Y0038984D01*
X0102180Y0039098D01*
X0102456Y0039205D01*
X0102736Y0039305D01*
X0103017Y0039398D01*
X0103301Y0039485D01*
X0103586Y0039564D01*
X0103874Y0039637D01*
X0104163Y0039703D01*
X0104454Y0039761D01*
X0104746Y0039812D01*
X0105039Y0039857D01*
X0105333Y0039894D01*
X0105628Y0039924D01*
X0105924Y0039947D01*
X0106220Y0039962D01*
X0106517Y0039970D01*
X0106813Y0039972D01*
X0107110Y0039965D01*
X0107406Y0039952D01*
X0107702Y0039932D01*
X0107997Y0039904D01*
X0108291Y0039869D01*
X0108585Y0039827D01*
X0108877Y0039777D01*
X0109169Y0039721D01*
X0109458Y0039658D01*
X0109746Y0039587D01*
X0110033Y0039510D01*
X0110317Y0039425D01*
X0110599Y0039334D01*
X0110879Y0039236D01*
X0111156Y0039131D01*
X0111431Y0039019D01*
X0111703Y0038901D01*
X0111972Y0038776D01*
X0112238Y0038644D01*
X0112500Y0038507D01*
X0112759Y0038362D01*
X0113015Y0038212D01*
X0113267Y0038055D01*
X0113515Y0037892D01*
X0113758Y0037724D01*
X0113998Y0037549D01*
X0114233Y0037368D01*
X0114464Y0037182D01*
X0114691Y0036991D01*
X0114912Y0036794D01*
X0115129Y0036591D01*
X0115340Y0036383D01*
X0115547Y0036171D01*
X0115748Y0035953D01*
X0115944Y0035730D01*
X0116135Y0035503D01*
X0116320Y0035271D01*
X0116499Y0035035D01*
X0116672Y0034794D01*
X0116839Y0034549D01*
X0117001Y0034300D01*
X0117156Y0034048D01*
X0117305Y0033791D01*
X0117448Y0033532D01*
X0117585Y0033268D01*
X0117715Y0033002D01*
X0117838Y0032732D01*
X0117955Y0032460D01*
X0118065Y0032184D01*
X0118168Y0031906D01*
X0118265Y0031626D01*
X0118355Y0031343D01*
X0118355Y0024060D02*
X0118261Y0023779D01*
X0118159Y0023500D01*
X0118051Y0023224D01*
X0117936Y0022951D01*
X0117815Y0022680D01*
X0117687Y0022413D01*
X0117552Y0022148D01*
X0117411Y0021887D01*
X0117264Y0021630D01*
X0117111Y0021376D01*
X0116951Y0021126D01*
X0116786Y0020880D01*
X0116614Y0020638D01*
X0116437Y0020401D01*
X0116254Y0020167D01*
X0116065Y0019939D01*
X0115870Y0019714D01*
X0115671Y0019495D01*
X0115466Y0019281D01*
X0115256Y0019072D01*
X0115041Y0018868D01*
X0114820Y0018669D01*
X0114596Y0018475D01*
X0114366Y0018288D01*
X0114132Y0018105D01*
X0113894Y0017929D01*
X0113651Y0017758D01*
X0113405Y0017594D01*
X0113154Y0017435D01*
X0112900Y0017283D01*
X0112641Y0017137D01*
X0112380Y0016997D01*
X0112115Y0016863D01*
X0111847Y0016736D01*
X0111576Y0016616D01*
X0111302Y0016502D01*
X0111026Y0016395D01*
X0110746Y0016295D01*
X0110465Y0016202D01*
X0110181Y0016115D01*
X0109896Y0016036D01*
X0109608Y0015963D01*
X0109319Y0015897D01*
X0109028Y0015839D01*
X0108736Y0015788D01*
X0108443Y0015743D01*
X0108149Y0015706D01*
X0107854Y0015676D01*
X0107558Y0015653D01*
X0107262Y0015638D01*
X0106965Y0015630D01*
X0106669Y0015628D01*
X0106372Y0015635D01*
X0106076Y0015648D01*
X0105780Y0015668D01*
X0105485Y0015696D01*
X0105191Y0015731D01*
X0104897Y0015773D01*
X0104605Y0015823D01*
X0104313Y0015879D01*
X0104024Y0015942D01*
X0103736Y0016013D01*
X0103449Y0016090D01*
X0103165Y0016175D01*
X0102883Y0016266D01*
X0102603Y0016364D01*
X0102326Y0016469D01*
X0102051Y0016581D01*
X0101779Y0016699D01*
X0101510Y0016824D01*
X0101244Y0016956D01*
X0100982Y0017093D01*
X0100723Y0017238D01*
X0100467Y0017388D01*
X0100215Y0017545D01*
X0099967Y0017708D01*
X0099724Y0017876D01*
X0099484Y0018051D01*
X0099249Y0018232D01*
X0099018Y0018418D01*
X0098791Y0018609D01*
X0098570Y0018806D01*
X0098353Y0019009D01*
X0098142Y0019217D01*
X0097935Y0019429D01*
X0097734Y0019647D01*
X0097538Y0019870D01*
X0097347Y0020097D01*
X0097162Y0020329D01*
X0096983Y0020565D01*
X0096810Y0020806D01*
X0096643Y0021051D01*
X0096481Y0021300D01*
X0096326Y0021552D01*
X0096177Y0021809D01*
X0096034Y0022068D01*
X0095897Y0022332D01*
X0095767Y0022598D01*
X0095644Y0022868D01*
X0095527Y0023140D01*
X0095417Y0023416D01*
X0095314Y0023694D01*
X0095217Y0023974D01*
X0095127Y0024257D01*
X0117205Y0119021D02*
X0137677Y0119021D01*
X0137677Y0159179D01*
X0117205Y0159179D01*
X0117205Y0119021D01*
D12*
X0148237Y0142400D02*
X0148237Y0144702D01*
X0149004Y0145469D01*
X0150539Y0145469D01*
X0151306Y0144702D01*
X0151306Y0142400D01*
X0151306Y0143935D02*
X0152841Y0145469D01*
X0150539Y0147004D02*
X0148237Y0149306D01*
X0152841Y0149306D01*
X0150539Y0150073D02*
X0150539Y0147004D01*
X0152841Y0142400D02*
X0148237Y0142400D01*
X0169637Y0142600D02*
X0169637Y0144902D01*
X0170404Y0145669D01*
X0171939Y0145669D01*
X0172706Y0144902D01*
X0172706Y0142600D01*
X0172706Y0144135D02*
X0174241Y0145669D01*
X0173474Y0147204D02*
X0174241Y0147971D01*
X0174241Y0149506D01*
X0173474Y0150273D01*
X0171939Y0150273D01*
X0171172Y0149506D01*
X0171172Y0148739D01*
X0171939Y0147204D01*
X0169637Y0147204D01*
X0169637Y0150273D01*
X0169637Y0142600D02*
X0174241Y0142600D01*
X0173741Y0161700D02*
X0169137Y0161700D01*
X0173741Y0161700D02*
X0173741Y0164769D01*
X0173741Y0166304D02*
X0169137Y0166304D01*
X0169137Y0169373D01*
X0169137Y0170908D02*
X0169137Y0173210D01*
X0169904Y0173977D01*
X0172974Y0173977D01*
X0173741Y0173210D01*
X0173741Y0170908D01*
X0169137Y0170908D01*
X0171439Y0167839D02*
X0171439Y0166304D01*
X0173741Y0166304D02*
X0173741Y0169373D01*
X0172974Y0175512D02*
X0173741Y0176279D01*
X0173741Y0177814D01*
X0172974Y0178581D01*
X0172206Y0178581D01*
X0171439Y0177814D01*
X0171439Y0177046D01*
X0171439Y0177814D02*
X0170672Y0178581D01*
X0169904Y0178581D01*
X0169137Y0177814D01*
X0169137Y0176279D01*
X0169904Y0175512D01*
X0152941Y0176012D02*
X0149872Y0179081D01*
X0149104Y0179081D01*
X0148337Y0178314D01*
X0148337Y0176779D01*
X0149104Y0176012D01*
X0149104Y0174477D02*
X0148337Y0173710D01*
X0148337Y0171408D01*
X0152941Y0171408D01*
X0152941Y0173710D01*
X0152174Y0174477D01*
X0149104Y0174477D01*
X0152941Y0176012D02*
X0152941Y0179081D01*
X0152941Y0169873D02*
X0152941Y0166804D01*
X0148337Y0166804D01*
X0148337Y0169873D01*
X0150639Y0168339D02*
X0150639Y0166804D01*
X0152941Y0165269D02*
X0152941Y0162200D01*
X0148337Y0162200D01*
X0128030Y0163161D02*
X0124960Y0163161D01*
X0127262Y0165463D01*
X0127262Y0160859D01*
X0123426Y0161626D02*
X0122658Y0160859D01*
X0121124Y0160859D01*
X0120356Y0161626D01*
X0120356Y0164696D01*
X0121124Y0165463D01*
X0122658Y0165463D01*
X0123426Y0164696D01*
X0118822Y0165463D02*
X0117287Y0165463D01*
X0118054Y0165463D02*
X0118054Y0160859D01*
X0117287Y0160859D02*
X0118822Y0160859D01*
X0124541Y0177400D02*
X0127610Y0177400D01*
X0129145Y0178167D02*
X0129912Y0177400D01*
X0131447Y0177400D01*
X0132214Y0178167D01*
X0132214Y0178935D01*
X0131447Y0179702D01*
X0130680Y0179702D01*
X0131447Y0179702D02*
X0132214Y0180469D01*
X0132214Y0181237D01*
X0131447Y0182004D01*
X0129912Y0182004D01*
X0129145Y0181237D01*
X0124541Y0182004D02*
X0124541Y0177400D01*
X0114041Y0194500D02*
X0109437Y0194500D01*
X0109437Y0196802D01*
X0110204Y0197569D01*
X0111739Y0197569D01*
X0112506Y0196802D01*
X0112506Y0194500D01*
X0112506Y0196035D02*
X0114041Y0197569D01*
X0114041Y0199104D02*
X0114041Y0202173D01*
X0114041Y0200639D02*
X0109437Y0200639D01*
X0110972Y0199104D01*
X0104706Y0215800D02*
X0101637Y0215800D01*
X0103172Y0215800D02*
X0103172Y0220404D01*
X0101637Y0218869D01*
X0100102Y0219637D02*
X0099335Y0220404D01*
X0097033Y0220404D01*
X0097033Y0215800D01*
X0099335Y0215800D01*
X0100102Y0216567D01*
X0100102Y0219637D01*
X0095498Y0220404D02*
X0092429Y0220404D01*
X0092429Y0215800D01*
X0095498Y0215800D01*
X0093964Y0218102D02*
X0092429Y0218102D01*
X0090895Y0215800D02*
X0087825Y0215800D01*
X0087825Y0220404D01*
X0116341Y0231500D02*
X0116341Y0236104D01*
X0118643Y0236104D01*
X0119410Y0235337D01*
X0119410Y0233802D01*
X0118643Y0233035D01*
X0116341Y0233035D01*
X0117876Y0233035D02*
X0119410Y0231500D01*
X0120945Y0231500D02*
X0124014Y0234569D01*
X0124014Y0235337D01*
X0123247Y0236104D01*
X0121712Y0236104D01*
X0120945Y0235337D01*
X0120945Y0231500D02*
X0124014Y0231500D01*
X0049035Y0223454D02*
X0049035Y0219571D01*
X0048830Y0219572D02*
X0041472Y0219572D01*
X0039428Y0218754D02*
X0039428Y0204447D01*
X0039426Y0204392D01*
X0039420Y0204336D01*
X0039411Y0204281D01*
X0039398Y0204227D01*
X0039381Y0204174D01*
X0039360Y0204122D01*
X0039336Y0204071D01*
X0039309Y0204023D01*
X0039279Y0203976D01*
X0039245Y0203931D01*
X0039208Y0203889D01*
X0039169Y0203850D01*
X0039127Y0203813D01*
X0039082Y0203779D01*
X0039035Y0203749D01*
X0038987Y0203722D01*
X0038936Y0203698D01*
X0038884Y0203677D01*
X0038831Y0203660D01*
X0038777Y0203647D01*
X0038722Y0203638D01*
X0038666Y0203632D01*
X0038611Y0203630D01*
X0038610Y0203630D02*
X0038548Y0203632D01*
X0038487Y0203638D01*
X0038426Y0203647D01*
X0038365Y0203660D01*
X0038306Y0203677D01*
X0038248Y0203697D01*
X0038191Y0203720D01*
X0038135Y0203747D01*
X0038081Y0203778D01*
X0038030Y0203811D01*
X0037980Y0203848D01*
X0037933Y0203887D01*
X0037888Y0203930D01*
X0037845Y0203975D01*
X0037806Y0204022D01*
X0037769Y0204072D01*
X0037736Y0204123D01*
X0037705Y0204177D01*
X0037678Y0204233D01*
X0037655Y0204290D01*
X0037635Y0204348D01*
X0037618Y0204407D01*
X0037605Y0204468D01*
X0037596Y0204529D01*
X0037590Y0204590D01*
X0037588Y0204652D01*
X0037589Y0204651D02*
X0037589Y0218549D01*
X0037591Y0218611D01*
X0037596Y0218673D01*
X0037606Y0218734D01*
X0037619Y0218794D01*
X0037635Y0218853D01*
X0037655Y0218912D01*
X0037679Y0218969D01*
X0037706Y0219024D01*
X0037736Y0219078D01*
X0037770Y0219130D01*
X0037807Y0219179D01*
X0037846Y0219227D01*
X0037888Y0219272D01*
X0037933Y0219314D01*
X0037981Y0219353D01*
X0038030Y0219390D01*
X0038082Y0219424D01*
X0038136Y0219454D01*
X0038191Y0219481D01*
X0038248Y0219505D01*
X0038307Y0219525D01*
X0038366Y0219541D01*
X0038426Y0219554D01*
X0038487Y0219564D01*
X0038549Y0219569D01*
X0038611Y0219571D01*
X0038610Y0219571D01*
X0038611Y0219571D02*
X0038666Y0219569D01*
X0038722Y0219563D01*
X0038777Y0219554D01*
X0038831Y0219541D01*
X0038884Y0219524D01*
X0038936Y0219503D01*
X0038987Y0219479D01*
X0039035Y0219452D01*
X0039082Y0219422D01*
X0039127Y0219388D01*
X0039169Y0219351D01*
X0039208Y0219312D01*
X0039245Y0219270D01*
X0039279Y0219225D01*
X0039309Y0219178D01*
X0039336Y0219130D01*
X0039360Y0219079D01*
X0039381Y0219027D01*
X0039398Y0218974D01*
X0039411Y0218920D01*
X0039420Y0218865D01*
X0039426Y0218809D01*
X0039428Y0218754D01*
X0033297Y0215688D02*
X0017355Y0216505D01*
X0017299Y0216503D01*
X0017244Y0216497D01*
X0017189Y0216488D01*
X0017135Y0216475D01*
X0017081Y0216458D01*
X0017030Y0216437D01*
X0016979Y0216413D01*
X0016930Y0216386D01*
X0016884Y0216355D01*
X0016839Y0216322D01*
X0016797Y0216285D01*
X0016758Y0216246D01*
X0016721Y0216204D01*
X0016688Y0216159D01*
X0016657Y0216113D01*
X0016630Y0216064D01*
X0016606Y0216013D01*
X0016585Y0215962D01*
X0016568Y0215908D01*
X0016555Y0215854D01*
X0016546Y0215799D01*
X0016540Y0215744D01*
X0016538Y0215688D01*
X0016537Y0215688D02*
X0016537Y0215687D01*
X0016538Y0215687D02*
X0016540Y0215631D01*
X0016546Y0215576D01*
X0016555Y0215521D01*
X0016568Y0215467D01*
X0016585Y0215413D01*
X0016606Y0215362D01*
X0016630Y0215311D01*
X0016657Y0215262D01*
X0016688Y0215216D01*
X0016721Y0215171D01*
X0016758Y0215129D01*
X0016797Y0215090D01*
X0016839Y0215053D01*
X0016884Y0215020D01*
X0016930Y0214989D01*
X0016979Y0214962D01*
X0017030Y0214938D01*
X0017081Y0214917D01*
X0017135Y0214900D01*
X0017189Y0214887D01*
X0017244Y0214878D01*
X0017299Y0214872D01*
X0017355Y0214870D01*
X0030844Y0214053D01*
X0030844Y0214054D02*
X0030844Y0209148D01*
X0017355Y0208331D01*
X0017355Y0208330D02*
X0017299Y0208328D01*
X0017244Y0208322D01*
X0017189Y0208313D01*
X0017135Y0208300D01*
X0017081Y0208283D01*
X0017030Y0208262D01*
X0016979Y0208238D01*
X0016930Y0208211D01*
X0016884Y0208180D01*
X0016839Y0208147D01*
X0016797Y0208110D01*
X0016758Y0208071D01*
X0016721Y0208029D01*
X0016688Y0207984D01*
X0016657Y0207938D01*
X0016630Y0207889D01*
X0016606Y0207838D01*
X0016585Y0207787D01*
X0016568Y0207733D01*
X0016555Y0207679D01*
X0016546Y0207624D01*
X0016540Y0207569D01*
X0016538Y0207513D01*
X0016540Y0207457D01*
X0016546Y0207402D01*
X0016555Y0207347D01*
X0016568Y0207293D01*
X0016585Y0207239D01*
X0016606Y0207188D01*
X0016630Y0207137D01*
X0016657Y0207088D01*
X0016688Y0207042D01*
X0016721Y0206997D01*
X0016758Y0206955D01*
X0016797Y0206916D01*
X0016839Y0206879D01*
X0016884Y0206846D01*
X0016930Y0206815D01*
X0016979Y0206788D01*
X0017030Y0206764D01*
X0017081Y0206743D01*
X0017135Y0206726D01*
X0017189Y0206713D01*
X0017244Y0206704D01*
X0017299Y0206698D01*
X0017355Y0206696D01*
X0033297Y0207513D01*
X0033354Y0207518D01*
X0033411Y0207527D01*
X0033467Y0207540D01*
X0033522Y0207556D01*
X0033576Y0207576D01*
X0033628Y0207600D01*
X0033679Y0207626D01*
X0033728Y0207657D01*
X0033775Y0207690D01*
X0033820Y0207726D01*
X0033862Y0207766D01*
X0033901Y0207808D01*
X0033937Y0207852D01*
X0033971Y0207899D01*
X0034001Y0207948D01*
X0034028Y0207999D01*
X0034051Y0208051D01*
X0034071Y0208105D01*
X0034087Y0208161D01*
X0034100Y0208217D01*
X0034109Y0208274D01*
X0034114Y0208331D01*
X0034114Y0214870D01*
X0034115Y0214870D02*
X0034110Y0214927D01*
X0034101Y0214984D01*
X0034088Y0215040D01*
X0034072Y0215095D01*
X0034052Y0215149D01*
X0034029Y0215202D01*
X0034002Y0215253D01*
X0033972Y0215302D01*
X0033938Y0215349D01*
X0033902Y0215393D01*
X0033863Y0215435D01*
X0033820Y0215475D01*
X0033776Y0215511D01*
X0033729Y0215544D01*
X0033680Y0215575D01*
X0033629Y0215602D01*
X0033577Y0215625D01*
X0033523Y0215645D01*
X0033468Y0215661D01*
X0033411Y0215674D01*
X0033355Y0215683D01*
X0033297Y0215688D01*
X0028187Y0217527D02*
X0028187Y0218345D01*
X0018785Y0219367D01*
X0018785Y0221411D01*
X0028187Y0222432D01*
X0028187Y0223250D01*
X0017355Y0222432D01*
X0017289Y0222425D01*
X0017224Y0222414D01*
X0017159Y0222400D01*
X0017096Y0222382D01*
X0017033Y0222360D01*
X0016972Y0222335D01*
X0016912Y0222307D01*
X0016854Y0222275D01*
X0016798Y0222239D01*
X0016744Y0222201D01*
X0016693Y0222160D01*
X0016644Y0222116D01*
X0016597Y0222069D01*
X0016553Y0222019D01*
X0016512Y0221967D01*
X0016474Y0221913D01*
X0016439Y0221857D01*
X0016408Y0221799D01*
X0016380Y0221739D01*
X0016355Y0221677D01*
X0016334Y0221615D01*
X0016334Y0219366D02*
X0016355Y0219304D01*
X0016380Y0219242D01*
X0016408Y0219182D01*
X0016439Y0219124D01*
X0016474Y0219068D01*
X0016512Y0219014D01*
X0016553Y0218962D01*
X0016597Y0218912D01*
X0016644Y0218865D01*
X0016693Y0218821D01*
X0016744Y0218780D01*
X0016798Y0218742D01*
X0016854Y0218706D01*
X0016912Y0218674D01*
X0016972Y0218646D01*
X0017033Y0218621D01*
X0017096Y0218599D01*
X0017159Y0218581D01*
X0017224Y0218567D01*
X0017289Y0218556D01*
X0017355Y0218549D01*
X0028187Y0217527D01*
X0016334Y0219367D02*
X0016300Y0219482D01*
X0016270Y0219599D01*
X0016244Y0219716D01*
X0016222Y0219834D01*
X0016203Y0219952D01*
X0016188Y0220072D01*
X0016177Y0220191D01*
X0016169Y0220311D01*
X0016165Y0220431D01*
X0016165Y0220551D01*
X0016169Y0220671D01*
X0016177Y0220791D01*
X0016188Y0220910D01*
X0016203Y0221030D01*
X0016222Y0221148D01*
X0016244Y0221266D01*
X0016270Y0221383D01*
X0016300Y0221500D01*
X0016334Y0221615D01*
X0017960Y0226724D02*
X0012041Y0226724D01*
X0012041Y0196476D01*
X0012041Y0196476D01*
X0017961Y0196476D01*
X0017355Y0200769D02*
X0028187Y0199951D01*
X0028187Y0200769D01*
X0018785Y0201790D01*
X0018785Y0203834D01*
X0028187Y0204856D01*
X0028187Y0205674D01*
X0017355Y0204652D01*
X0017355Y0204651D02*
X0017289Y0204644D01*
X0017224Y0204633D01*
X0017159Y0204619D01*
X0017096Y0204601D01*
X0017033Y0204579D01*
X0016972Y0204554D01*
X0016912Y0204526D01*
X0016854Y0204494D01*
X0016798Y0204458D01*
X0016744Y0204420D01*
X0016693Y0204379D01*
X0016644Y0204335D01*
X0016597Y0204288D01*
X0016553Y0204238D01*
X0016512Y0204186D01*
X0016474Y0204132D01*
X0016439Y0204076D01*
X0016408Y0204018D01*
X0016380Y0203958D01*
X0016355Y0203896D01*
X0016334Y0203834D01*
X0016334Y0201586D02*
X0016355Y0201524D01*
X0016380Y0201462D01*
X0016408Y0201402D01*
X0016439Y0201344D01*
X0016474Y0201288D01*
X0016512Y0201234D01*
X0016553Y0201182D01*
X0016597Y0201132D01*
X0016644Y0201085D01*
X0016693Y0201041D01*
X0016744Y0201000D01*
X0016798Y0200962D01*
X0016854Y0200926D01*
X0016912Y0200894D01*
X0016972Y0200866D01*
X0017033Y0200841D01*
X0017096Y0200819D01*
X0017159Y0200801D01*
X0017224Y0200787D01*
X0017289Y0200776D01*
X0017355Y0200769D01*
X0016334Y0201586D02*
X0016300Y0201701D01*
X0016270Y0201818D01*
X0016244Y0201935D01*
X0016222Y0202053D01*
X0016203Y0202171D01*
X0016188Y0202291D01*
X0016177Y0202410D01*
X0016169Y0202530D01*
X0016165Y0202650D01*
X0016165Y0202770D01*
X0016169Y0202890D01*
X0016177Y0203010D01*
X0016188Y0203129D01*
X0016203Y0203249D01*
X0016222Y0203367D01*
X0016244Y0203485D01*
X0016270Y0203602D01*
X0016300Y0203719D01*
X0016334Y0203834D01*
X0029110Y0196476D02*
X0038202Y0196476D01*
X0038146Y0196474D01*
X0038091Y0196468D01*
X0038036Y0196459D01*
X0037982Y0196446D01*
X0037928Y0196429D01*
X0037877Y0196408D01*
X0037826Y0196384D01*
X0037777Y0196357D01*
X0037731Y0196326D01*
X0037686Y0196293D01*
X0037644Y0196256D01*
X0037605Y0196217D01*
X0037568Y0196175D01*
X0037535Y0196130D01*
X0037504Y0196084D01*
X0037477Y0196035D01*
X0037453Y0195984D01*
X0037432Y0195933D01*
X0037415Y0195879D01*
X0037402Y0195825D01*
X0037393Y0195770D01*
X0037387Y0195715D01*
X0037385Y0195659D01*
X0037384Y0195659D02*
X0037384Y0195046D01*
X0047399Y0199746D02*
X0048830Y0199746D01*
X0049034Y0199746D02*
X0049034Y0203630D01*
X0048830Y0203629D02*
X0041472Y0203629D01*
X0040747Y0184404D02*
X0038445Y0182102D01*
X0041514Y0182102D01*
X0040747Y0179800D02*
X0040747Y0184404D01*
X0036910Y0183637D02*
X0036910Y0180567D01*
X0036143Y0179800D01*
X0033841Y0179800D01*
X0033841Y0184404D01*
X0036143Y0184404D01*
X0036910Y0183637D01*
X0065241Y0180904D02*
X0065241Y0176300D01*
X0068310Y0176300D01*
X0069845Y0176300D02*
X0072914Y0176300D01*
X0071380Y0176300D02*
X0071380Y0180904D01*
X0069845Y0179369D01*
X0048830Y0223454D02*
X0047399Y0223454D01*
X0038202Y0226724D02*
X0029111Y0226724D01*
X0037384Y0227542D02*
X0037384Y0228155D01*
X0037385Y0227542D02*
X0037387Y0227486D01*
X0037393Y0227431D01*
X0037402Y0227376D01*
X0037415Y0227322D01*
X0037432Y0227268D01*
X0037453Y0227217D01*
X0037477Y0227166D01*
X0037504Y0227117D01*
X0037535Y0227071D01*
X0037568Y0227026D01*
X0037605Y0226984D01*
X0037644Y0226945D01*
X0037686Y0226908D01*
X0037731Y0226875D01*
X0037777Y0226844D01*
X0037826Y0226817D01*
X0037877Y0226793D01*
X0037928Y0226772D01*
X0037982Y0226755D01*
X0038036Y0226742D01*
X0038091Y0226733D01*
X0038146Y0226727D01*
X0038202Y0226725D01*
X0025714Y0234300D02*
X0022645Y0234300D01*
X0024180Y0234300D02*
X0024180Y0238904D01*
X0022645Y0237369D01*
X0021110Y0238904D02*
X0018041Y0234300D01*
X0021110Y0234300D02*
X0018041Y0238904D01*
X0164573Y0120224D02*
X0166875Y0120224D01*
X0167642Y0119457D01*
X0167642Y0117922D01*
X0166875Y0117155D01*
X0164573Y0117155D01*
X0166108Y0117155D02*
X0167642Y0115620D01*
X0169177Y0116387D02*
X0169944Y0115620D01*
X0171479Y0115620D01*
X0172246Y0116387D01*
X0172246Y0117155D01*
X0171479Y0117922D01*
X0170712Y0117922D01*
X0171479Y0117922D02*
X0172246Y0118689D01*
X0172246Y0119457D01*
X0171479Y0120224D01*
X0169944Y0120224D01*
X0169177Y0119457D01*
X0164573Y0120224D02*
X0164573Y0115620D01*
X0162983Y0113624D02*
X0163750Y0112857D01*
X0163750Y0111322D01*
X0162983Y0110555D01*
X0160681Y0110555D01*
X0162216Y0110555D02*
X0163750Y0109020D01*
X0165285Y0109020D02*
X0168354Y0109020D01*
X0166820Y0109020D02*
X0166820Y0113624D01*
X0165285Y0112089D01*
X0162983Y0113624D02*
X0160681Y0113624D01*
X0160681Y0109020D01*
X0169889Y0109787D02*
X0170656Y0109020D01*
X0172191Y0109020D01*
X0172958Y0109787D01*
X0172958Y0110555D01*
X0172191Y0111322D01*
X0171423Y0111322D01*
X0172191Y0111322D02*
X0172958Y0112089D01*
X0172958Y0112857D01*
X0172191Y0113624D01*
X0170656Y0113624D01*
X0169889Y0112857D01*
X0180804Y0080925D02*
X0180037Y0080158D01*
X0180037Y0078623D01*
X0180804Y0077856D01*
X0180804Y0080925D02*
X0181572Y0080925D01*
X0184641Y0077856D01*
X0184641Y0080925D01*
X0184641Y0076321D02*
X0184641Y0073252D01*
X0184641Y0071717D02*
X0183106Y0070183D01*
X0183106Y0070950D02*
X0183106Y0068648D01*
X0184641Y0068648D02*
X0180037Y0068648D01*
X0180037Y0070950D01*
X0180804Y0071717D01*
X0182339Y0071717D01*
X0183106Y0070950D01*
X0181572Y0073252D02*
X0180037Y0074787D01*
X0184641Y0074787D01*
X0101268Y0046128D02*
X0101268Y0045361D01*
X0098198Y0042291D01*
X0101268Y0042291D01*
X0096664Y0043059D02*
X0095896Y0042291D01*
X0094362Y0042291D01*
X0093595Y0043059D01*
X0093595Y0046128D01*
X0094362Y0046895D01*
X0095896Y0046895D01*
X0096664Y0046128D01*
X0098198Y0046128D02*
X0098966Y0046895D01*
X0100500Y0046895D01*
X0101268Y0046128D01*
X0061306Y0052600D02*
X0058237Y0052600D01*
X0061306Y0055669D01*
X0061306Y0056437D01*
X0060539Y0057204D01*
X0059004Y0057204D01*
X0058237Y0056437D01*
X0056702Y0056437D02*
X0055935Y0057204D01*
X0054400Y0057204D01*
X0053633Y0056437D01*
X0053633Y0053367D01*
X0054400Y0052600D01*
X0055935Y0052600D01*
X0056702Y0053367D01*
X0052098Y0052600D02*
X0050564Y0052600D01*
X0051331Y0052600D02*
X0051331Y0057204D01*
X0050564Y0057204D02*
X0052098Y0057204D01*
X0044739Y0008404D02*
X0043204Y0008404D01*
X0042437Y0007637D01*
X0040902Y0007637D02*
X0040135Y0008404D01*
X0038600Y0008404D01*
X0037833Y0007637D01*
X0037833Y0004567D01*
X0038600Y0003800D01*
X0040135Y0003800D01*
X0040902Y0004567D01*
X0042437Y0004567D02*
X0043204Y0003800D01*
X0044739Y0003800D01*
X0045506Y0004567D01*
X0045506Y0005335D01*
X0044739Y0006102D01*
X0043972Y0006102D01*
X0044739Y0006102D02*
X0045506Y0006869D01*
X0045506Y0007637D01*
X0044739Y0008404D01*
X0036298Y0008404D02*
X0034764Y0008404D01*
X0035531Y0008404D02*
X0035531Y0003800D01*
X0034764Y0003800D02*
X0036298Y0003800D01*
X0016506Y0109300D02*
X0013437Y0109300D01*
X0014972Y0109300D02*
X0014972Y0113904D01*
X0013437Y0112369D01*
X0011902Y0113904D02*
X0010368Y0113904D01*
X0011135Y0113904D02*
X0011135Y0110067D01*
X0010368Y0109300D01*
X0009600Y0109300D01*
X0008833Y0110067D01*
D13*
X0075341Y0091600D02*
X0075341Y0075600D01*
X0085341Y0075600D01*
X0085341Y0091600D01*
X0075341Y0091600D01*
X0077841Y0087600D02*
X0080341Y0083600D01*
X0082841Y0083600D01*
X0080341Y0083600D02*
X0077841Y0083600D01*
X0080341Y0083600D02*
X0080341Y0081100D01*
X0080341Y0083600D02*
X0080341Y0089600D01*
X0077841Y0087600D02*
X0082841Y0087600D01*
X0080341Y0083600D01*
X0119741Y0076800D02*
X0119741Y0074300D01*
X0127241Y0074300D01*
X0134741Y0074300D01*
X0134741Y0076800D01*
X0119741Y0076800D01*
X0092241Y0077800D02*
X0092252Y0078659D01*
X0092283Y0079517D01*
X0092336Y0080375D01*
X0092410Y0081231D01*
X0092504Y0082084D01*
X0092620Y0082936D01*
X0092756Y0083784D01*
X0092914Y0084628D01*
X0093091Y0085469D01*
X0093290Y0086304D01*
X0093509Y0087135D01*
X0093748Y0087960D01*
X0094008Y0088779D01*
X0094287Y0089591D01*
X0094586Y0090396D01*
X0094905Y0091194D01*
X0095244Y0091983D01*
X0095601Y0092764D01*
X0095978Y0093536D01*
X0096374Y0094299D01*
X0096788Y0095051D01*
X0097220Y0095794D01*
X0097671Y0096525D01*
X0098140Y0097245D01*
X0098626Y0097953D01*
X0099129Y0098649D01*
X0099649Y0099333D01*
X0100186Y0100004D01*
X0100739Y0100661D01*
X0101308Y0101305D01*
X0101892Y0101934D01*
X0102492Y0102549D01*
X0103107Y0103149D01*
X0103736Y0103733D01*
X0104380Y0104302D01*
X0105037Y0104855D01*
X0105708Y0105392D01*
X0106392Y0105912D01*
X0107088Y0106415D01*
X0107796Y0106901D01*
X0108516Y0107370D01*
X0109247Y0107821D01*
X0109990Y0108253D01*
X0110742Y0108667D01*
X0111505Y0109063D01*
X0112277Y0109440D01*
X0113058Y0109797D01*
X0113847Y0110136D01*
X0114645Y0110455D01*
X0115450Y0110754D01*
X0116262Y0111033D01*
X0117081Y0111293D01*
X0117906Y0111532D01*
X0118737Y0111751D01*
X0119572Y0111950D01*
X0120413Y0112127D01*
X0121257Y0112285D01*
X0122105Y0112421D01*
X0122957Y0112537D01*
X0123810Y0112631D01*
X0124666Y0112705D01*
X0125524Y0112758D01*
X0126382Y0112789D01*
X0127241Y0112800D01*
X0128100Y0112789D01*
X0128958Y0112758D01*
X0129816Y0112705D01*
X0130672Y0112631D01*
X0131525Y0112537D01*
X0132377Y0112421D01*
X0133225Y0112285D01*
X0134069Y0112127D01*
X0134910Y0111950D01*
X0135745Y0111751D01*
X0136576Y0111532D01*
X0137401Y0111293D01*
X0138220Y0111033D01*
X0139032Y0110754D01*
X0139837Y0110455D01*
X0140635Y0110136D01*
X0141424Y0109797D01*
X0142205Y0109440D01*
X0142977Y0109063D01*
X0143740Y0108667D01*
X0144492Y0108253D01*
X0145235Y0107821D01*
X0145966Y0107370D01*
X0146686Y0106901D01*
X0147394Y0106415D01*
X0148090Y0105912D01*
X0148774Y0105392D01*
X0149445Y0104855D01*
X0150102Y0104302D01*
X0150746Y0103733D01*
X0151375Y0103149D01*
X0151990Y0102549D01*
X0152590Y0101934D01*
X0153174Y0101305D01*
X0153743Y0100661D01*
X0154296Y0100004D01*
X0154833Y0099333D01*
X0155353Y0098649D01*
X0155856Y0097953D01*
X0156342Y0097245D01*
X0156811Y0096525D01*
X0157262Y0095794D01*
X0157694Y0095051D01*
X0158108Y0094299D01*
X0158504Y0093536D01*
X0158881Y0092764D01*
X0159238Y0091983D01*
X0159577Y0091194D01*
X0159896Y0090396D01*
X0160195Y0089591D01*
X0160474Y0088779D01*
X0160734Y0087960D01*
X0160973Y0087135D01*
X0161192Y0086304D01*
X0161391Y0085469D01*
X0161568Y0084628D01*
X0161726Y0083784D01*
X0161862Y0082936D01*
X0161978Y0082084D01*
X0162072Y0081231D01*
X0162146Y0080375D01*
X0162199Y0079517D01*
X0162230Y0078659D01*
X0162241Y0077800D01*
X0162230Y0076941D01*
X0162199Y0076083D01*
X0162146Y0075225D01*
X0162072Y0074369D01*
X0161978Y0073516D01*
X0161862Y0072664D01*
X0161726Y0071816D01*
X0161568Y0070972D01*
X0161391Y0070131D01*
X0161192Y0069296D01*
X0160973Y0068465D01*
X0160734Y0067640D01*
X0160474Y0066821D01*
X0160195Y0066009D01*
X0159896Y0065204D01*
X0159577Y0064406D01*
X0159238Y0063617D01*
X0158881Y0062836D01*
X0158504Y0062064D01*
X0158108Y0061301D01*
X0157694Y0060549D01*
X0157262Y0059806D01*
X0156811Y0059075D01*
X0156342Y0058355D01*
X0155856Y0057647D01*
X0155353Y0056951D01*
X0154833Y0056267D01*
X0154296Y0055596D01*
X0153743Y0054939D01*
X0153174Y0054295D01*
X0152590Y0053666D01*
X0151990Y0053051D01*
X0151375Y0052451D01*
X0150746Y0051867D01*
X0150102Y0051298D01*
X0149445Y0050745D01*
X0148774Y0050208D01*
X0148090Y0049688D01*
X0147394Y0049185D01*
X0146686Y0048699D01*
X0145966Y0048230D01*
X0145235Y0047779D01*
X0144492Y0047347D01*
X0143740Y0046933D01*
X0142977Y0046537D01*
X0142205Y0046160D01*
X0141424Y0045803D01*
X0140635Y0045464D01*
X0139837Y0045145D01*
X0139032Y0044846D01*
X0138220Y0044567D01*
X0137401Y0044307D01*
X0136576Y0044068D01*
X0135745Y0043849D01*
X0134910Y0043650D01*
X0134069Y0043473D01*
X0133225Y0043315D01*
X0132377Y0043179D01*
X0131525Y0043063D01*
X0130672Y0042969D01*
X0129816Y0042895D01*
X0128958Y0042842D01*
X0128100Y0042811D01*
X0127241Y0042800D01*
X0126382Y0042811D01*
X0125524Y0042842D01*
X0124666Y0042895D01*
X0123810Y0042969D01*
X0122957Y0043063D01*
X0122105Y0043179D01*
X0121257Y0043315D01*
X0120413Y0043473D01*
X0119572Y0043650D01*
X0118737Y0043849D01*
X0117906Y0044068D01*
X0117081Y0044307D01*
X0116262Y0044567D01*
X0115450Y0044846D01*
X0114645Y0045145D01*
X0113847Y0045464D01*
X0113058Y0045803D01*
X0112277Y0046160D01*
X0111505Y0046537D01*
X0110742Y0046933D01*
X0109990Y0047347D01*
X0109247Y0047779D01*
X0108516Y0048230D01*
X0107796Y0048699D01*
X0107088Y0049185D01*
X0106392Y0049688D01*
X0105708Y0050208D01*
X0105037Y0050745D01*
X0104380Y0051298D01*
X0103736Y0051867D01*
X0103107Y0052451D01*
X0102492Y0053051D01*
X0101892Y0053666D01*
X0101308Y0054295D01*
X0100739Y0054939D01*
X0100186Y0055596D01*
X0099649Y0056267D01*
X0099129Y0056951D01*
X0098626Y0057647D01*
X0098140Y0058355D01*
X0097671Y0059075D01*
X0097220Y0059806D01*
X0096788Y0060549D01*
X0096374Y0061301D01*
X0095978Y0062064D01*
X0095601Y0062836D01*
X0095244Y0063617D01*
X0094905Y0064406D01*
X0094586Y0065204D01*
X0094287Y0066009D01*
X0094008Y0066821D01*
X0093748Y0067640D01*
X0093509Y0068465D01*
X0093290Y0069296D01*
X0093091Y0070131D01*
X0092914Y0070972D01*
X0092756Y0071816D01*
X0092620Y0072664D01*
X0092504Y0073516D01*
X0092410Y0074369D01*
X0092336Y0075225D01*
X0092283Y0076083D01*
X0092252Y0076941D01*
X0092241Y0077800D01*
X0127241Y0080300D02*
X0127241Y0085800D01*
X0127241Y0074300D02*
X0127241Y0069800D01*
X0127241Y0054300D02*
X0127241Y0048300D01*
X0130241Y0051300D02*
X0124241Y0051300D01*
X0134891Y0031475D02*
X0132391Y0028975D01*
X0132391Y0023975D01*
X0134891Y0021475D01*
X0139891Y0021475D01*
X0142391Y0023975D01*
X0144891Y0021475D01*
X0149891Y0021475D01*
X0152391Y0023975D01*
X0152391Y0028975D01*
X0149891Y0031475D01*
X0144891Y0031475D01*
X0142391Y0028975D01*
X0142391Y0023975D01*
X0142391Y0028975D02*
X0139891Y0031475D01*
X0134891Y0031475D01*
X0152391Y0028975D02*
X0154891Y0031475D01*
X0159891Y0031475D01*
X0162391Y0028975D01*
X0164891Y0031475D01*
X0169891Y0031475D01*
X0172391Y0028975D01*
X0174891Y0031475D01*
X0179891Y0031475D01*
X0182391Y0028975D01*
X0182391Y0023975D01*
X0179891Y0021475D01*
X0174891Y0021475D01*
X0172391Y0023975D01*
X0169891Y0021475D01*
X0164891Y0021475D01*
X0162391Y0023975D01*
X0159891Y0021475D01*
X0154891Y0021475D01*
X0152391Y0023975D01*
X0162391Y0023975D02*
X0162391Y0028975D01*
X0172391Y0028975D02*
X0172391Y0023975D01*
X0182391Y0023975D02*
X0184891Y0021475D01*
X0189891Y0021475D01*
X0192391Y0023975D01*
X0194891Y0021475D01*
X0199891Y0021475D01*
X0202391Y0023975D01*
X0204891Y0021475D01*
X0209891Y0021475D01*
X0212391Y0023975D01*
X0212391Y0028975D01*
X0209891Y0031475D01*
X0204891Y0031475D01*
X0202391Y0028975D01*
X0202391Y0023975D01*
X0202391Y0028975D02*
X0199891Y0031475D01*
X0194891Y0031475D01*
X0192391Y0028975D01*
X0192391Y0023975D01*
X0192391Y0028975D02*
X0189891Y0031475D01*
X0184891Y0031475D01*
X0182391Y0028975D01*
X0212391Y0028975D02*
X0214891Y0031475D01*
X0219891Y0031475D01*
X0222391Y0028975D01*
X0224891Y0031475D01*
X0229891Y0031475D01*
X0232391Y0028975D01*
X0234891Y0031475D01*
X0239891Y0031475D01*
X0242391Y0028975D01*
X0242391Y0023975D01*
X0239891Y0021475D01*
X0234891Y0021475D01*
X0232391Y0023975D01*
X0229891Y0021475D01*
X0224891Y0021475D01*
X0222391Y0023975D01*
X0219891Y0021475D01*
X0214891Y0021475D01*
X0212391Y0023975D01*
X0222391Y0023975D02*
X0222391Y0028975D01*
X0232391Y0028975D02*
X0232391Y0023975D01*
X0242391Y0023975D02*
X0244891Y0021475D01*
X0249891Y0021475D01*
X0252391Y0023975D01*
X0254891Y0021475D01*
X0259891Y0021475D01*
X0262391Y0023975D01*
X0264891Y0021475D01*
X0269891Y0021475D01*
X0272391Y0023975D01*
X0272391Y0028975D01*
X0269891Y0031475D01*
X0264891Y0031475D01*
X0262391Y0028975D01*
X0262391Y0023975D01*
X0262391Y0028975D02*
X0259891Y0031475D01*
X0254891Y0031475D01*
X0252391Y0028975D01*
X0252391Y0023975D01*
X0252391Y0028975D02*
X0249891Y0031475D01*
X0244891Y0031475D01*
X0242391Y0028975D01*
X0272391Y0028975D02*
X0274891Y0031475D01*
X0279891Y0031475D01*
X0282391Y0028975D01*
X0284891Y0031475D01*
X0289891Y0031475D01*
X0292391Y0028975D01*
X0294891Y0031475D01*
X0299891Y0031475D01*
X0302391Y0028975D01*
X0302391Y0023975D01*
X0299891Y0021475D01*
X0294891Y0021475D01*
X0292391Y0023975D01*
X0289891Y0021475D01*
X0284891Y0021475D01*
X0282391Y0023975D01*
X0279891Y0021475D01*
X0274891Y0021475D01*
X0272391Y0023975D01*
X0282391Y0023975D02*
X0282391Y0028975D01*
X0292391Y0028975D02*
X0292391Y0023975D01*
X0302391Y0023975D02*
X0304891Y0021475D01*
X0309891Y0021475D01*
X0312391Y0023975D01*
X0314891Y0021475D01*
X0319891Y0021475D01*
X0322391Y0023975D01*
X0324891Y0021475D01*
X0329891Y0021475D01*
X0332391Y0023975D01*
X0334891Y0021475D01*
X0339891Y0021475D01*
X0342391Y0023975D01*
X0344891Y0021475D01*
X0349891Y0021475D01*
X0352391Y0023975D01*
X0354891Y0021475D01*
X0359891Y0021475D01*
X0362391Y0023975D01*
X0364891Y0021475D01*
X0369891Y0021475D01*
X0372391Y0023975D01*
X0374891Y0021475D01*
X0379891Y0021475D01*
X0382391Y0023975D01*
X0384891Y0021475D01*
X0389891Y0021475D01*
X0392391Y0023975D01*
X0392391Y0028975D01*
X0389891Y0031475D01*
X0384891Y0031475D01*
X0382391Y0028975D01*
X0382391Y0023975D01*
X0382391Y0028975D02*
X0379891Y0031475D01*
X0374891Y0031475D01*
X0372391Y0028975D01*
X0372391Y0023975D01*
X0372391Y0028975D02*
X0369891Y0031475D01*
X0364891Y0031475D01*
X0362391Y0028975D01*
X0362391Y0023975D01*
X0362391Y0028975D02*
X0359891Y0031475D01*
X0354891Y0031475D01*
X0352391Y0028975D01*
X0352391Y0023975D01*
X0352391Y0028975D02*
X0349891Y0031475D01*
X0344891Y0031475D01*
X0342391Y0028975D01*
X0342391Y0023975D01*
X0342391Y0028975D02*
X0339891Y0031475D01*
X0334891Y0031475D01*
X0332391Y0028975D01*
X0332391Y0023975D01*
X0332391Y0028975D02*
X0329891Y0031475D01*
X0324891Y0031475D01*
X0322391Y0028975D01*
X0322391Y0023975D01*
X0322391Y0028975D02*
X0319891Y0031475D01*
X0314891Y0031475D01*
X0312391Y0028975D01*
X0312391Y0023975D01*
X0312391Y0028975D02*
X0309891Y0031475D01*
X0304891Y0031475D01*
X0302391Y0028975D01*
X0343481Y0055520D02*
X0343481Y0068520D01*
X0343481Y0081520D01*
X0345481Y0081520D01*
X0345481Y0068520D01*
X0343481Y0068520D01*
X0348481Y0067520D02*
X0354481Y0067520D01*
X0354481Y0082520D01*
X0348481Y0082520D01*
X0348481Y0067520D01*
X0358481Y0067520D02*
X0364481Y0067520D01*
X0364481Y0082520D01*
X0358481Y0082520D01*
X0358481Y0067520D01*
X0367481Y0068520D02*
X0369481Y0068520D01*
X0369481Y0081520D01*
X0369481Y0094520D01*
X0343481Y0094520D01*
X0343481Y0081520D01*
X0367481Y0081520D02*
X0367481Y0068520D01*
X0369481Y0068520D02*
X0369481Y0055520D01*
X0343481Y0055520D01*
X0367481Y0081520D02*
X0369481Y0081520D01*
X0379341Y0103100D02*
X0376841Y0105600D01*
X0376841Y0110600D01*
X0379341Y0113100D01*
X0376841Y0115600D01*
X0376841Y0120600D01*
X0379341Y0123100D01*
X0384341Y0123100D01*
X0386841Y0120600D01*
X0386841Y0115600D01*
X0384341Y0113100D01*
X0386841Y0110600D01*
X0386841Y0105600D01*
X0384341Y0103100D01*
X0379341Y0103100D01*
X0379341Y0113100D02*
X0384341Y0113100D01*
X0384341Y0123100D02*
X0386841Y0125600D01*
X0386841Y0130600D01*
X0384341Y0133100D01*
X0386841Y0135600D01*
X0386841Y0140600D01*
X0384341Y0143100D01*
X0379341Y0143100D01*
X0376841Y0140600D01*
X0376841Y0135600D01*
X0379341Y0133100D01*
X0384341Y0133100D01*
X0379341Y0133100D02*
X0376841Y0130600D01*
X0376841Y0125600D01*
X0379341Y0123100D01*
X0299423Y0131300D02*
X0296948Y0128825D01*
X0299423Y0131300D02*
X0296948Y0133775D01*
X0273331Y0157392D02*
X0270856Y0159867D01*
X0268381Y0157392D01*
X0244764Y0133775D02*
X0242289Y0131300D01*
X0244764Y0128825D01*
X0241511Y0122885D02*
X0241486Y0122908D01*
X0241459Y0122927D01*
X0241429Y0122943D01*
X0241398Y0122956D01*
X0241366Y0122965D01*
X0241333Y0122971D01*
X0241299Y0122973D01*
X0241265Y0122971D01*
X0241232Y0122965D01*
X0241200Y0122956D01*
X0241169Y0122943D01*
X0241139Y0122927D01*
X0241112Y0122908D01*
X0241087Y0122885D01*
X0241064Y0122860D01*
X0241045Y0122833D01*
X0241029Y0122803D01*
X0241016Y0122772D01*
X0241007Y0122740D01*
X0241001Y0122707D01*
X0240999Y0122673D01*
X0241001Y0122639D01*
X0241007Y0122606D01*
X0241016Y0122574D01*
X0241029Y0122543D01*
X0241045Y0122513D01*
X0241064Y0122486D01*
X0241087Y0122461D01*
X0241112Y0122438D01*
X0241139Y0122419D01*
X0241169Y0122403D01*
X0241200Y0122390D01*
X0241232Y0122381D01*
X0241265Y0122375D01*
X0241299Y0122373D01*
X0241333Y0122375D01*
X0241366Y0122381D01*
X0241398Y0122390D01*
X0241429Y0122403D01*
X0241459Y0122419D01*
X0241486Y0122438D01*
X0241511Y0122461D01*
X0241534Y0122486D01*
X0241553Y0122513D01*
X0241569Y0122543D01*
X0241582Y0122574D01*
X0241591Y0122606D01*
X0241597Y0122639D01*
X0241599Y0122673D01*
X0241597Y0122707D01*
X0241591Y0122740D01*
X0241582Y0122772D01*
X0241569Y0122803D01*
X0241553Y0122833D01*
X0241534Y0122860D01*
X0241511Y0122885D01*
X0217721Y0124800D02*
X0190721Y0124800D01*
X0190502Y0124797D01*
X0190283Y0124789D01*
X0190064Y0124776D01*
X0189846Y0124757D01*
X0189628Y0124733D01*
X0189411Y0124704D01*
X0189194Y0124670D01*
X0188979Y0124630D01*
X0188764Y0124585D01*
X0188551Y0124534D01*
X0188339Y0124479D01*
X0188128Y0124418D01*
X0187919Y0124353D01*
X0187712Y0124282D01*
X0187506Y0124206D01*
X0187302Y0124125D01*
X0187100Y0124040D01*
X0186901Y0123949D01*
X0186704Y0123854D01*
X0186509Y0123753D01*
X0186316Y0123648D01*
X0186126Y0123539D01*
X0185939Y0123425D01*
X0185755Y0123306D01*
X0185574Y0123183D01*
X0185396Y0123055D01*
X0185220Y0122923D01*
X0185049Y0122787D01*
X0184880Y0122647D01*
X0184715Y0122503D01*
X0184554Y0122355D01*
X0184396Y0122203D01*
X0184242Y0122047D01*
X0184092Y0121887D01*
X0183945Y0121724D01*
X0183803Y0121557D01*
X0183665Y0121387D01*
X0183531Y0121213D01*
X0183401Y0121037D01*
X0183276Y0120857D01*
X0183155Y0120674D01*
X0183039Y0120488D01*
X0182927Y0120300D01*
X0182820Y0120109D01*
X0182717Y0119915D01*
X0182619Y0119719D01*
X0182526Y0119521D01*
X0182438Y0119320D01*
X0182355Y0119117D01*
X0182276Y0118912D01*
X0182203Y0118706D01*
X0182135Y0118498D01*
X0182072Y0118288D01*
X0182014Y0118076D01*
X0181961Y0117864D01*
X0181913Y0117650D01*
X0181871Y0117435D01*
X0181834Y0117219D01*
X0181802Y0117002D01*
X0181775Y0116784D01*
X0181754Y0116566D01*
X0181738Y0116348D01*
X0181727Y0116129D01*
X0181722Y0115910D01*
X0181722Y0115690D01*
X0181727Y0115471D01*
X0181738Y0115252D01*
X0181754Y0115034D01*
X0181775Y0114816D01*
X0181802Y0114598D01*
X0181834Y0114381D01*
X0181871Y0114165D01*
X0181913Y0113950D01*
X0181961Y0113736D01*
X0182014Y0113524D01*
X0182072Y0113312D01*
X0182135Y0113102D01*
X0182203Y0112894D01*
X0182276Y0112688D01*
X0182355Y0112483D01*
X0182438Y0112280D01*
X0182526Y0112079D01*
X0182619Y0111881D01*
X0182717Y0111685D01*
X0182820Y0111491D01*
X0182927Y0111300D01*
X0183039Y0111112D01*
X0183155Y0110926D01*
X0183276Y0110743D01*
X0183401Y0110563D01*
X0183531Y0110387D01*
X0183665Y0110213D01*
X0183803Y0110043D01*
X0183945Y0109876D01*
X0184092Y0109713D01*
X0184242Y0109553D01*
X0184396Y0109397D01*
X0184554Y0109245D01*
X0184715Y0109097D01*
X0184880Y0108953D01*
X0185049Y0108813D01*
X0185220Y0108677D01*
X0185396Y0108545D01*
X0185574Y0108417D01*
X0185755Y0108294D01*
X0185939Y0108175D01*
X0186126Y0108061D01*
X0186316Y0107952D01*
X0186509Y0107847D01*
X0186704Y0107746D01*
X0186901Y0107651D01*
X0187100Y0107560D01*
X0187302Y0107475D01*
X0187506Y0107394D01*
X0187712Y0107318D01*
X0187919Y0107247D01*
X0188128Y0107182D01*
X0188339Y0107121D01*
X0188551Y0107066D01*
X0188764Y0107015D01*
X0188979Y0106970D01*
X0189194Y0106930D01*
X0189411Y0106896D01*
X0189628Y0106867D01*
X0189846Y0106843D01*
X0190064Y0106824D01*
X0190283Y0106811D01*
X0190502Y0106803D01*
X0190721Y0106800D01*
X0217721Y0106800D01*
X0217940Y0106803D01*
X0218159Y0106811D01*
X0218378Y0106824D01*
X0218596Y0106843D01*
X0218814Y0106867D01*
X0219031Y0106896D01*
X0219248Y0106930D01*
X0219463Y0106970D01*
X0219678Y0107015D01*
X0219891Y0107066D01*
X0220103Y0107121D01*
X0220314Y0107182D01*
X0220523Y0107247D01*
X0220730Y0107318D01*
X0220936Y0107394D01*
X0221140Y0107475D01*
X0221342Y0107560D01*
X0221541Y0107651D01*
X0221738Y0107746D01*
X0221933Y0107847D01*
X0222126Y0107952D01*
X0222316Y0108061D01*
X0222503Y0108175D01*
X0222687Y0108294D01*
X0222868Y0108417D01*
X0223046Y0108545D01*
X0223222Y0108677D01*
X0223393Y0108813D01*
X0223562Y0108953D01*
X0223727Y0109097D01*
X0223888Y0109245D01*
X0224046Y0109397D01*
X0224200Y0109553D01*
X0224350Y0109713D01*
X0224497Y0109876D01*
X0224639Y0110043D01*
X0224777Y0110213D01*
X0224911Y0110387D01*
X0225041Y0110563D01*
X0225166Y0110743D01*
X0225287Y0110926D01*
X0225403Y0111112D01*
X0225515Y0111300D01*
X0225622Y0111491D01*
X0225725Y0111685D01*
X0225823Y0111881D01*
X0225916Y0112079D01*
X0226004Y0112280D01*
X0226087Y0112483D01*
X0226166Y0112688D01*
X0226239Y0112894D01*
X0226307Y0113102D01*
X0226370Y0113312D01*
X0226428Y0113524D01*
X0226481Y0113736D01*
X0226529Y0113950D01*
X0226571Y0114165D01*
X0226608Y0114381D01*
X0226640Y0114598D01*
X0226667Y0114816D01*
X0226688Y0115034D01*
X0226704Y0115252D01*
X0226715Y0115471D01*
X0226720Y0115690D01*
X0226720Y0115910D01*
X0226715Y0116129D01*
X0226704Y0116348D01*
X0226688Y0116566D01*
X0226667Y0116784D01*
X0226640Y0117002D01*
X0226608Y0117219D01*
X0226571Y0117435D01*
X0226529Y0117650D01*
X0226481Y0117864D01*
X0226428Y0118076D01*
X0226370Y0118288D01*
X0226307Y0118498D01*
X0226239Y0118706D01*
X0226166Y0118912D01*
X0226087Y0119117D01*
X0226004Y0119320D01*
X0225916Y0119521D01*
X0225823Y0119719D01*
X0225725Y0119915D01*
X0225622Y0120109D01*
X0225515Y0120300D01*
X0225403Y0120488D01*
X0225287Y0120674D01*
X0225166Y0120857D01*
X0225041Y0121037D01*
X0224911Y0121213D01*
X0224777Y0121387D01*
X0224639Y0121557D01*
X0224497Y0121724D01*
X0224350Y0121887D01*
X0224200Y0122047D01*
X0224046Y0122203D01*
X0223888Y0122355D01*
X0223727Y0122503D01*
X0223562Y0122647D01*
X0223393Y0122787D01*
X0223222Y0122923D01*
X0223046Y0123055D01*
X0222868Y0123183D01*
X0222687Y0123306D01*
X0222503Y0123425D01*
X0222316Y0123539D01*
X0222126Y0123648D01*
X0221933Y0123753D01*
X0221738Y0123854D01*
X0221541Y0123949D01*
X0221342Y0124040D01*
X0221140Y0124125D01*
X0220936Y0124206D01*
X0220730Y0124282D01*
X0220523Y0124353D01*
X0220314Y0124418D01*
X0220103Y0124479D01*
X0219891Y0124534D01*
X0219678Y0124585D01*
X0219463Y0124630D01*
X0219248Y0124670D01*
X0219031Y0124704D01*
X0218814Y0124733D01*
X0218596Y0124757D01*
X0218378Y0124776D01*
X0218159Y0124789D01*
X0217940Y0124797D01*
X0217721Y0124800D01*
X0208481Y0145840D02*
X0208483Y0145966D01*
X0208489Y0146091D01*
X0208499Y0146217D01*
X0208513Y0146341D01*
X0208530Y0146466D01*
X0208552Y0146590D01*
X0208577Y0146713D01*
X0208607Y0146835D01*
X0208640Y0146956D01*
X0208677Y0147076D01*
X0208718Y0147195D01*
X0208762Y0147313D01*
X0208810Y0147429D01*
X0208862Y0147543D01*
X0208917Y0147656D01*
X0208976Y0147767D01*
X0209038Y0147876D01*
X0209104Y0147983D01*
X0209173Y0148088D01*
X0209245Y0148191D01*
X0209320Y0148292D01*
X0209399Y0148390D01*
X0209481Y0148485D01*
X0209565Y0148578D01*
X0209653Y0148669D01*
X0216481Y0145840D02*
X0216479Y0145714D01*
X0216473Y0145589D01*
X0216463Y0145463D01*
X0216449Y0145339D01*
X0216432Y0145214D01*
X0216410Y0145090D01*
X0216385Y0144967D01*
X0216355Y0144845D01*
X0216322Y0144724D01*
X0216285Y0144604D01*
X0216244Y0144485D01*
X0216200Y0144367D01*
X0216152Y0144251D01*
X0216100Y0144137D01*
X0216045Y0144024D01*
X0215986Y0143913D01*
X0215924Y0143804D01*
X0215858Y0143697D01*
X0215789Y0143592D01*
X0215717Y0143489D01*
X0215642Y0143388D01*
X0215563Y0143290D01*
X0215481Y0143195D01*
X0215397Y0143102D01*
X0215309Y0143011D01*
X0216481Y0145840D02*
X0216479Y0145966D01*
X0216473Y0146091D01*
X0216463Y0146217D01*
X0216449Y0146341D01*
X0216432Y0146466D01*
X0216410Y0146590D01*
X0216385Y0146713D01*
X0216355Y0146835D01*
X0216322Y0146956D01*
X0216285Y0147076D01*
X0216244Y0147195D01*
X0216200Y0147313D01*
X0216152Y0147429D01*
X0216100Y0147543D01*
X0216045Y0147656D01*
X0215986Y0147767D01*
X0215924Y0147876D01*
X0215858Y0147983D01*
X0215789Y0148088D01*
X0215717Y0148191D01*
X0215642Y0148292D01*
X0215563Y0148390D01*
X0215481Y0148485D01*
X0215397Y0148578D01*
X0215309Y0148669D01*
X0208481Y0145840D02*
X0208483Y0145714D01*
X0208489Y0145589D01*
X0208499Y0145463D01*
X0208513Y0145339D01*
X0208530Y0145214D01*
X0208552Y0145090D01*
X0208577Y0144967D01*
X0208607Y0144845D01*
X0208640Y0144724D01*
X0208677Y0144604D01*
X0208718Y0144485D01*
X0208762Y0144367D01*
X0208810Y0144251D01*
X0208862Y0144137D01*
X0208917Y0144024D01*
X0208976Y0143913D01*
X0209038Y0143804D01*
X0209104Y0143697D01*
X0209173Y0143592D01*
X0209245Y0143489D01*
X0209320Y0143388D01*
X0209399Y0143290D01*
X0209481Y0143195D01*
X0209565Y0143102D01*
X0209653Y0143011D01*
X0268381Y0105208D02*
X0270856Y0102733D01*
X0273331Y0105208D01*
X0214681Y0084880D02*
X0214681Y0081380D01*
X0214681Y0071380D01*
X0214681Y0067880D01*
X0206681Y0064380D02*
X0205681Y0064380D01*
X0205681Y0063380D01*
X0199681Y0063380D01*
X0199681Y0064380D01*
X0198681Y0064380D01*
X0190681Y0067880D02*
X0190681Y0071880D01*
X0190681Y0081380D01*
X0190681Y0084880D01*
X0198681Y0088380D02*
X0199681Y0088380D01*
X0199681Y0089380D01*
X0205681Y0089380D01*
X0205681Y0088380D01*
X0206681Y0088380D01*
X0201681Y0076380D02*
X0201683Y0076443D01*
X0201689Y0076505D01*
X0201699Y0076567D01*
X0201712Y0076629D01*
X0201730Y0076689D01*
X0201751Y0076748D01*
X0201776Y0076806D01*
X0201805Y0076862D01*
X0201837Y0076916D01*
X0201872Y0076968D01*
X0201910Y0077017D01*
X0201952Y0077065D01*
X0201996Y0077109D01*
X0202044Y0077151D01*
X0202093Y0077189D01*
X0202145Y0077224D01*
X0202199Y0077256D01*
X0202255Y0077285D01*
X0202313Y0077310D01*
X0202372Y0077331D01*
X0202432Y0077349D01*
X0202494Y0077362D01*
X0202556Y0077372D01*
X0202618Y0077378D01*
X0202681Y0077380D01*
X0202744Y0077378D01*
X0202806Y0077372D01*
X0202868Y0077362D01*
X0202930Y0077349D01*
X0202990Y0077331D01*
X0203049Y0077310D01*
X0203107Y0077285D01*
X0203163Y0077256D01*
X0203217Y0077224D01*
X0203269Y0077189D01*
X0203318Y0077151D01*
X0203366Y0077109D01*
X0203410Y0077065D01*
X0203452Y0077017D01*
X0203490Y0076968D01*
X0203525Y0076916D01*
X0203557Y0076862D01*
X0203586Y0076806D01*
X0203611Y0076748D01*
X0203632Y0076689D01*
X0203650Y0076629D01*
X0203663Y0076567D01*
X0203673Y0076505D01*
X0203679Y0076443D01*
X0203681Y0076380D01*
X0203679Y0076317D01*
X0203673Y0076255D01*
X0203663Y0076193D01*
X0203650Y0076131D01*
X0203632Y0076071D01*
X0203611Y0076012D01*
X0203586Y0075954D01*
X0203557Y0075898D01*
X0203525Y0075844D01*
X0203490Y0075792D01*
X0203452Y0075743D01*
X0203410Y0075695D01*
X0203366Y0075651D01*
X0203318Y0075609D01*
X0203269Y0075571D01*
X0203217Y0075536D01*
X0203163Y0075504D01*
X0203107Y0075475D01*
X0203049Y0075450D01*
X0202990Y0075429D01*
X0202930Y0075411D01*
X0202868Y0075398D01*
X0202806Y0075388D01*
X0202744Y0075382D01*
X0202681Y0075380D01*
X0202618Y0075382D01*
X0202556Y0075388D01*
X0202494Y0075398D01*
X0202432Y0075411D01*
X0202372Y0075429D01*
X0202313Y0075450D01*
X0202255Y0075475D01*
X0202199Y0075504D01*
X0202145Y0075536D01*
X0202093Y0075571D01*
X0202044Y0075609D01*
X0201996Y0075651D01*
X0201952Y0075695D01*
X0201910Y0075743D01*
X0201872Y0075792D01*
X0201837Y0075844D01*
X0201805Y0075898D01*
X0201776Y0075954D01*
X0201751Y0076012D01*
X0201730Y0076071D01*
X0201712Y0076131D01*
X0201699Y0076193D01*
X0201689Y0076255D01*
X0201683Y0076317D01*
X0201681Y0076380D01*
X0195681Y0076380D02*
X0195683Y0076552D01*
X0195689Y0076723D01*
X0195700Y0076895D01*
X0195715Y0077066D01*
X0195734Y0077237D01*
X0195757Y0077407D01*
X0195784Y0077577D01*
X0195816Y0077746D01*
X0195851Y0077914D01*
X0195891Y0078081D01*
X0195935Y0078247D01*
X0195982Y0078412D01*
X0196034Y0078576D01*
X0196090Y0078738D01*
X0196150Y0078899D01*
X0196214Y0079059D01*
X0196282Y0079217D01*
X0196353Y0079373D01*
X0196428Y0079527D01*
X0196508Y0079680D01*
X0196590Y0079830D01*
X0196677Y0079979D01*
X0196767Y0080125D01*
X0196861Y0080269D01*
X0196958Y0080411D01*
X0197059Y0080550D01*
X0197163Y0080687D01*
X0197270Y0080821D01*
X0197381Y0080952D01*
X0197494Y0081081D01*
X0197611Y0081207D01*
X0197731Y0081330D01*
X0197854Y0081450D01*
X0197980Y0081567D01*
X0198109Y0081680D01*
X0198240Y0081791D01*
X0198374Y0081898D01*
X0198511Y0082002D01*
X0198650Y0082103D01*
X0198792Y0082200D01*
X0198936Y0082294D01*
X0199082Y0082384D01*
X0199231Y0082471D01*
X0199381Y0082553D01*
X0199534Y0082633D01*
X0199688Y0082708D01*
X0199844Y0082779D01*
X0200002Y0082847D01*
X0200162Y0082911D01*
X0200323Y0082971D01*
X0200485Y0083027D01*
X0200649Y0083079D01*
X0200814Y0083126D01*
X0200980Y0083170D01*
X0201147Y0083210D01*
X0201315Y0083245D01*
X0201484Y0083277D01*
X0201654Y0083304D01*
X0201824Y0083327D01*
X0201995Y0083346D01*
X0202166Y0083361D01*
X0202338Y0083372D01*
X0202509Y0083378D01*
X0202681Y0083380D01*
X0202853Y0083378D01*
X0203024Y0083372D01*
X0203196Y0083361D01*
X0203367Y0083346D01*
X0203538Y0083327D01*
X0203708Y0083304D01*
X0203878Y0083277D01*
X0204047Y0083245D01*
X0204215Y0083210D01*
X0204382Y0083170D01*
X0204548Y0083126D01*
X0204713Y0083079D01*
X0204877Y0083027D01*
X0205039Y0082971D01*
X0205200Y0082911D01*
X0205360Y0082847D01*
X0205518Y0082779D01*
X0205674Y0082708D01*
X0205828Y0082633D01*
X0205981Y0082553D01*
X0206131Y0082471D01*
X0206280Y0082384D01*
X0206426Y0082294D01*
X0206570Y0082200D01*
X0206712Y0082103D01*
X0206851Y0082002D01*
X0206988Y0081898D01*
X0207122Y0081791D01*
X0207253Y0081680D01*
X0207382Y0081567D01*
X0207508Y0081450D01*
X0207631Y0081330D01*
X0207751Y0081207D01*
X0207868Y0081081D01*
X0207981Y0080952D01*
X0208092Y0080821D01*
X0208199Y0080687D01*
X0208303Y0080550D01*
X0208404Y0080411D01*
X0208501Y0080269D01*
X0208595Y0080125D01*
X0208685Y0079979D01*
X0208772Y0079830D01*
X0208854Y0079680D01*
X0208934Y0079527D01*
X0209009Y0079373D01*
X0209080Y0079217D01*
X0209148Y0079059D01*
X0209212Y0078899D01*
X0209272Y0078738D01*
X0209328Y0078576D01*
X0209380Y0078412D01*
X0209427Y0078247D01*
X0209471Y0078081D01*
X0209511Y0077914D01*
X0209546Y0077746D01*
X0209578Y0077577D01*
X0209605Y0077407D01*
X0209628Y0077237D01*
X0209647Y0077066D01*
X0209662Y0076895D01*
X0209673Y0076723D01*
X0209679Y0076552D01*
X0209681Y0076380D01*
X0209679Y0076208D01*
X0209673Y0076037D01*
X0209662Y0075865D01*
X0209647Y0075694D01*
X0209628Y0075523D01*
X0209605Y0075353D01*
X0209578Y0075183D01*
X0209546Y0075014D01*
X0209511Y0074846D01*
X0209471Y0074679D01*
X0209427Y0074513D01*
X0209380Y0074348D01*
X0209328Y0074184D01*
X0209272Y0074022D01*
X0209212Y0073861D01*
X0209148Y0073701D01*
X0209080Y0073543D01*
X0209009Y0073387D01*
X0208934Y0073233D01*
X0208854Y0073080D01*
X0208772Y0072930D01*
X0208685Y0072781D01*
X0208595Y0072635D01*
X0208501Y0072491D01*
X0208404Y0072349D01*
X0208303Y0072210D01*
X0208199Y0072073D01*
X0208092Y0071939D01*
X0207981Y0071808D01*
X0207868Y0071679D01*
X0207751Y0071553D01*
X0207631Y0071430D01*
X0207508Y0071310D01*
X0207382Y0071193D01*
X0207253Y0071080D01*
X0207122Y0070969D01*
X0206988Y0070862D01*
X0206851Y0070758D01*
X0206712Y0070657D01*
X0206570Y0070560D01*
X0206426Y0070466D01*
X0206280Y0070376D01*
X0206131Y0070289D01*
X0205981Y0070207D01*
X0205828Y0070127D01*
X0205674Y0070052D01*
X0205518Y0069981D01*
X0205360Y0069913D01*
X0205200Y0069849D01*
X0205039Y0069789D01*
X0204877Y0069733D01*
X0204713Y0069681D01*
X0204548Y0069634D01*
X0204382Y0069590D01*
X0204215Y0069550D01*
X0204047Y0069515D01*
X0203878Y0069483D01*
X0203708Y0069456D01*
X0203538Y0069433D01*
X0203367Y0069414D01*
X0203196Y0069399D01*
X0203024Y0069388D01*
X0202853Y0069382D01*
X0202681Y0069380D01*
X0202509Y0069382D01*
X0202338Y0069388D01*
X0202166Y0069399D01*
X0201995Y0069414D01*
X0201824Y0069433D01*
X0201654Y0069456D01*
X0201484Y0069483D01*
X0201315Y0069515D01*
X0201147Y0069550D01*
X0200980Y0069590D01*
X0200814Y0069634D01*
X0200649Y0069681D01*
X0200485Y0069733D01*
X0200323Y0069789D01*
X0200162Y0069849D01*
X0200002Y0069913D01*
X0199844Y0069981D01*
X0199688Y0070052D01*
X0199534Y0070127D01*
X0199381Y0070207D01*
X0199231Y0070289D01*
X0199082Y0070376D01*
X0198936Y0070466D01*
X0198792Y0070560D01*
X0198650Y0070657D01*
X0198511Y0070758D01*
X0198374Y0070862D01*
X0198240Y0070969D01*
X0198109Y0071080D01*
X0197980Y0071193D01*
X0197854Y0071310D01*
X0197731Y0071430D01*
X0197611Y0071553D01*
X0197494Y0071679D01*
X0197381Y0071808D01*
X0197270Y0071939D01*
X0197163Y0072073D01*
X0197059Y0072210D01*
X0196958Y0072349D01*
X0196861Y0072491D01*
X0196767Y0072635D01*
X0196677Y0072781D01*
X0196590Y0072930D01*
X0196508Y0073080D01*
X0196428Y0073233D01*
X0196353Y0073387D01*
X0196282Y0073543D01*
X0196214Y0073701D01*
X0196150Y0073861D01*
X0196090Y0074022D01*
X0196034Y0074184D01*
X0195982Y0074348D01*
X0195935Y0074513D01*
X0195891Y0074679D01*
X0195851Y0074846D01*
X0195816Y0075014D01*
X0195784Y0075183D01*
X0195757Y0075353D01*
X0195734Y0075523D01*
X0195715Y0075694D01*
X0195700Y0075865D01*
X0195689Y0076037D01*
X0195683Y0076208D01*
X0195681Y0076380D01*
X0194876Y0222660D02*
X0192376Y0225160D01*
X0189876Y0222660D01*
X0184876Y0222660D01*
X0182376Y0225160D01*
X0179876Y0222660D01*
X0174876Y0222660D01*
X0172376Y0225160D01*
X0169876Y0222660D01*
X0164876Y0222660D01*
X0162376Y0225160D01*
X0159876Y0222660D01*
X0154876Y0222660D01*
X0152376Y0225160D01*
X0149876Y0222660D01*
X0144876Y0222660D01*
X0142376Y0225160D01*
X0139876Y0222660D01*
X0134876Y0222660D01*
X0132376Y0225160D01*
X0132376Y0230160D01*
X0134876Y0232660D01*
X0139876Y0232660D01*
X0142376Y0230160D01*
X0144876Y0232660D01*
X0149876Y0232660D01*
X0152376Y0230160D01*
X0152376Y0225160D01*
X0152376Y0230160D02*
X0154876Y0232660D01*
X0159876Y0232660D01*
X0162376Y0230160D01*
X0164876Y0232660D01*
X0169876Y0232660D01*
X0172376Y0230160D01*
X0172376Y0225160D01*
X0172376Y0230160D02*
X0174876Y0232660D01*
X0179876Y0232660D01*
X0182376Y0230160D01*
X0184876Y0232660D01*
X0189876Y0232660D01*
X0192376Y0230160D01*
X0192376Y0225160D01*
X0194876Y0222660D02*
X0199876Y0222660D01*
X0202376Y0225160D01*
X0202376Y0230160D01*
X0199876Y0232660D01*
X0194876Y0232660D01*
X0192376Y0230160D01*
X0202376Y0230160D02*
X0204876Y0232660D01*
X0209876Y0232660D01*
X0212376Y0230160D01*
X0214876Y0232660D01*
X0219876Y0232660D01*
X0222376Y0230160D01*
X0224876Y0232660D01*
X0229876Y0232660D01*
X0232376Y0230160D01*
X0234876Y0232660D01*
X0239876Y0232660D01*
X0242376Y0230160D01*
X0244876Y0232660D01*
X0249876Y0232660D01*
X0252376Y0230160D01*
X0254876Y0232660D01*
X0259876Y0232660D01*
X0262376Y0230160D01*
X0264876Y0232660D01*
X0269876Y0232660D01*
X0272376Y0230160D01*
X0274876Y0232660D01*
X0279876Y0232660D01*
X0282376Y0230160D01*
X0284876Y0232660D01*
X0289876Y0232660D01*
X0292376Y0230160D01*
X0294876Y0232660D01*
X0299876Y0232660D01*
X0302376Y0230160D01*
X0304876Y0232660D01*
X0309876Y0232660D01*
X0312376Y0230160D01*
X0314876Y0232660D01*
X0319876Y0232660D01*
X0322376Y0230160D01*
X0324876Y0232660D01*
X0329876Y0232660D01*
X0332376Y0230160D01*
X0334876Y0232660D01*
X0339876Y0232660D01*
X0342376Y0230160D01*
X0344876Y0232660D01*
X0349876Y0232660D01*
X0352376Y0230160D01*
X0354876Y0232660D01*
X0359876Y0232660D01*
X0362376Y0230160D01*
X0364876Y0232660D01*
X0369876Y0232660D01*
X0372376Y0230160D01*
X0374876Y0232660D01*
X0379876Y0232660D01*
X0382376Y0230160D01*
X0384876Y0232660D01*
X0389876Y0232660D01*
X0392376Y0230160D01*
X0392376Y0225160D01*
X0389876Y0222660D01*
X0384876Y0222660D01*
X0382376Y0225160D01*
X0379876Y0222660D01*
X0374876Y0222660D01*
X0372376Y0225160D01*
X0372376Y0230160D01*
X0372376Y0225160D02*
X0369876Y0222660D01*
X0364876Y0222660D01*
X0362376Y0225160D01*
X0359876Y0222660D01*
X0354876Y0222660D01*
X0352376Y0225160D01*
X0349876Y0222660D01*
X0344876Y0222660D01*
X0342376Y0225160D01*
X0342376Y0230160D01*
X0342376Y0225160D02*
X0339876Y0222660D01*
X0334876Y0222660D01*
X0332376Y0225160D01*
X0329876Y0222660D01*
X0324876Y0222660D01*
X0322376Y0225160D01*
X0319876Y0222660D01*
X0314876Y0222660D01*
X0312376Y0225160D01*
X0312376Y0230160D01*
X0312376Y0225160D02*
X0309876Y0222660D01*
X0304876Y0222660D01*
X0302376Y0225160D01*
X0299876Y0222660D01*
X0294876Y0222660D01*
X0292376Y0225160D01*
X0289876Y0222660D01*
X0284876Y0222660D01*
X0282376Y0225160D01*
X0282376Y0230160D01*
X0282376Y0225160D02*
X0279876Y0222660D01*
X0274876Y0222660D01*
X0272376Y0225160D01*
X0269876Y0222660D01*
X0264876Y0222660D01*
X0262376Y0225160D01*
X0259876Y0222660D01*
X0254876Y0222660D01*
X0252376Y0225160D01*
X0252376Y0230160D01*
X0252376Y0225160D02*
X0249876Y0222660D01*
X0244876Y0222660D01*
X0242376Y0225160D01*
X0239876Y0222660D01*
X0234876Y0222660D01*
X0232376Y0225160D01*
X0229876Y0222660D01*
X0224876Y0222660D01*
X0222376Y0225160D01*
X0222376Y0230160D01*
X0222376Y0225160D02*
X0219876Y0222660D01*
X0214876Y0222660D01*
X0212376Y0225160D01*
X0209876Y0222660D01*
X0204876Y0222660D01*
X0202376Y0225160D01*
X0212376Y0225160D02*
X0212376Y0230160D01*
X0232376Y0230160D02*
X0232376Y0225160D01*
X0242376Y0225160D02*
X0242376Y0230160D01*
X0262376Y0230160D02*
X0262376Y0225160D01*
X0272376Y0225160D02*
X0272376Y0230160D01*
X0292376Y0230160D02*
X0292376Y0225160D01*
X0302376Y0225160D02*
X0302376Y0230160D01*
X0322376Y0230160D02*
X0322376Y0225160D01*
X0332376Y0225160D02*
X0332376Y0230160D01*
X0352376Y0230160D02*
X0352376Y0225160D01*
X0362376Y0225160D02*
X0362376Y0230160D01*
X0382376Y0230160D02*
X0382376Y0225160D01*
X0182376Y0225160D02*
X0182376Y0230160D01*
X0162376Y0230160D02*
X0162376Y0225160D01*
X0142376Y0225160D02*
X0142376Y0230160D01*
D14*
X0105840Y0120299D02*
X0106891Y0119248D01*
X0106891Y0117146D01*
X0105840Y0116095D01*
X0105840Y0113854D02*
X0106891Y0112803D01*
X0106891Y0110701D01*
X0105840Y0109650D01*
X0101637Y0109650D01*
X0100586Y0110701D01*
X0100586Y0112803D01*
X0101637Y0113854D01*
X0101637Y0116095D02*
X0100586Y0117146D01*
X0100586Y0119248D01*
X0101637Y0120299D01*
X0102687Y0120299D01*
X0103738Y0119248D01*
X0104789Y0120299D01*
X0105840Y0120299D01*
X0103738Y0119248D02*
X0103738Y0118197D01*
D15*
X0127241Y0080050D03*
D16*
X0095807Y0132150D02*
X0093872Y0132150D01*
X0093389Y0132634D01*
X0093389Y0133601D01*
X0093872Y0134085D01*
X0093389Y0135097D02*
X0093389Y0137031D01*
X0093872Y0137031D01*
X0095807Y0135097D01*
X0096291Y0135097D01*
X0095807Y0134085D02*
X0096291Y0133601D01*
X0096291Y0132634D01*
X0095807Y0132150D01*
X0094907Y0161757D02*
X0095391Y0162241D01*
X0095391Y0163208D01*
X0094907Y0163692D01*
X0094907Y0164703D02*
X0095391Y0165187D01*
X0095391Y0166155D01*
X0094907Y0166638D01*
X0092972Y0166638D01*
X0092489Y0166155D01*
X0092489Y0165187D01*
X0092972Y0164703D01*
X0093456Y0164703D01*
X0093940Y0165187D01*
X0093940Y0166638D01*
X0092972Y0163692D02*
X0092489Y0163208D01*
X0092489Y0162241D01*
X0092972Y0161757D01*
X0094907Y0161757D01*
X0093489Y0178550D02*
X0093972Y0179034D01*
X0093972Y0179517D01*
X0093489Y0180001D01*
X0092038Y0180001D01*
X0092038Y0179034D01*
X0092521Y0178550D01*
X0093489Y0178550D01*
X0092038Y0180001D02*
X0093005Y0180969D01*
X0093972Y0181452D01*
X0091026Y0180969D02*
X0090542Y0181452D01*
X0089575Y0181452D01*
X0089091Y0180969D01*
X0089091Y0179034D01*
X0089575Y0178550D01*
X0090542Y0178550D01*
X0091026Y0179034D01*
X0144519Y0200100D02*
X0145136Y0199483D01*
X0147605Y0199483D01*
X0148222Y0200100D01*
X0148222Y0201334D01*
X0147605Y0201952D01*
X0147605Y0203166D02*
X0146987Y0203166D01*
X0146370Y0203783D01*
X0146370Y0205018D01*
X0146987Y0205635D01*
X0147605Y0205635D01*
X0148222Y0205018D01*
X0148222Y0203783D01*
X0147605Y0203166D01*
X0146370Y0203783D02*
X0145753Y0203166D01*
X0145136Y0203166D01*
X0144519Y0203783D01*
X0144519Y0205018D01*
X0145136Y0205635D01*
X0145753Y0205635D01*
X0146370Y0205018D01*
X0145136Y0201952D02*
X0144519Y0201334D01*
X0144519Y0200100D01*
X0262393Y0126166D02*
X0265165Y0123395D01*
X0265165Y0122286D01*
X0264056Y0121177D01*
X0262948Y0121177D01*
X0260176Y0123949D01*
X0264540Y0126096D02*
X0264540Y0128313D01*
X0267866Y0124987D01*
X0266758Y0123878D02*
X0268975Y0126096D01*
D17*
X0087497Y0155997D02*
X0084741Y0151076D01*
X0081985Y0155997D01*
X0087497Y0155997D01*
D18*
X0078837Y0153263D02*
X0078837Y0150260D01*
X0078837Y0151762D02*
X0074334Y0151762D01*
X0075835Y0150260D01*
X0075084Y0148659D02*
X0074334Y0147908D01*
X0074334Y0145656D01*
X0078837Y0145656D01*
X0078837Y0147908D01*
X0078087Y0148659D01*
X0075084Y0148659D01*
X0073591Y0083456D02*
X0073591Y0080454D01*
X0070588Y0083456D01*
X0069838Y0083456D01*
X0069087Y0082706D01*
X0069087Y0081205D01*
X0069838Y0080454D01*
X0069838Y0078853D02*
X0069087Y0078102D01*
X0069087Y0075850D01*
X0073591Y0075850D01*
X0073591Y0078102D01*
X0072840Y0078853D01*
X0069838Y0078853D01*
X0215263Y0101301D02*
X0216014Y0100550D01*
X0217515Y0100550D01*
X0218266Y0101301D01*
X0218266Y0104303D01*
X0217515Y0105054D01*
X0216014Y0105054D01*
X0215263Y0104303D01*
X0215263Y0101301D01*
X0216764Y0102051D02*
X0218266Y0100550D01*
X0219867Y0100550D02*
X0222870Y0100550D01*
X0221368Y0100550D02*
X0221368Y0105054D01*
X0219867Y0103553D01*
X0221931Y0087029D02*
X0221931Y0084026D01*
X0221931Y0085527D02*
X0217427Y0085527D01*
X0218928Y0084026D01*
X0218178Y0082425D02*
X0217427Y0081674D01*
X0217427Y0080173D01*
X0218178Y0079422D01*
X0218928Y0079422D01*
X0219679Y0080173D01*
X0219679Y0081674D01*
X0220430Y0082425D01*
X0221180Y0082425D01*
X0221931Y0081674D01*
X0221931Y0080173D01*
X0221180Y0079422D01*
X0221980Y0144882D02*
X0218978Y0144882D01*
X0218227Y0145633D01*
X0218227Y0147134D01*
X0218978Y0147885D01*
X0221980Y0147885D01*
X0222731Y0147134D01*
X0222731Y0145633D01*
X0221980Y0144882D01*
X0221230Y0146383D02*
X0222731Y0147885D01*
X0222731Y0149486D02*
X0219728Y0152489D01*
X0218978Y0152489D01*
X0218227Y0151738D01*
X0218227Y0150237D01*
X0218978Y0149486D01*
X0222731Y0149486D02*
X0222731Y0152489D01*
X0343731Y0100023D02*
X0343731Y0099273D01*
X0344482Y0098522D01*
X0345983Y0098522D01*
X0346734Y0097771D01*
X0346734Y0097021D01*
X0345983Y0096270D01*
X0344482Y0096270D01*
X0343731Y0097021D01*
X0343731Y0100023D02*
X0344482Y0100774D01*
X0345983Y0100774D01*
X0346734Y0100023D01*
X0348335Y0100774D02*
X0348335Y0096270D01*
X0349836Y0097771D01*
X0351337Y0096270D01*
X0351337Y0100774D01*
X0352939Y0099273D02*
X0354440Y0100774D01*
X0354440Y0096270D01*
X0352939Y0096270D02*
X0355941Y0096270D01*
D19*
X0084741Y0150879D03*
D20*
X0080341Y0078100D03*
D21*
X0080341Y0071850D03*
X0080341Y0095350D03*
D22*
X0040777Y0172100D03*
D23*
X0054941Y0092800D03*
X0054941Y0086100D03*
X0054941Y0079400D03*
X0054941Y0072700D03*
X0054941Y0066000D03*
D24*
X0047241Y0023600D03*
D25*
X0121043Y0155635D03*
D26*
X0100450Y0223238D03*
X0100450Y0227962D03*
D27*
X0100450Y0225600D03*
X0158141Y0167591D03*
X0178941Y0167091D03*
D28*
X0176579Y0167091D03*
X0181303Y0167091D03*
X0160503Y0167591D03*
X0155779Y0167591D03*
D29*
X0190721Y0122800D02*
X0217721Y0122800D01*
X0217891Y0122798D01*
X0218062Y0122792D01*
X0218232Y0122781D01*
X0218402Y0122767D01*
X0218571Y0122748D01*
X0218740Y0122725D01*
X0218909Y0122699D01*
X0219076Y0122668D01*
X0219243Y0122633D01*
X0219409Y0122593D01*
X0219574Y0122550D01*
X0219738Y0122503D01*
X0219900Y0122452D01*
X0220062Y0122397D01*
X0220222Y0122338D01*
X0220380Y0122275D01*
X0220537Y0122209D01*
X0220692Y0122138D01*
X0220846Y0122064D01*
X0220997Y0121986D01*
X0221147Y0121904D01*
X0221295Y0121819D01*
X0221440Y0121730D01*
X0221583Y0121638D01*
X0221724Y0121542D01*
X0221863Y0121443D01*
X0221999Y0121340D01*
X0222133Y0121235D01*
X0222264Y0121126D01*
X0222392Y0121013D01*
X0222518Y0120898D01*
X0222641Y0120780D01*
X0222760Y0120659D01*
X0222877Y0120534D01*
X0222991Y0120407D01*
X0223102Y0120278D01*
X0223209Y0120145D01*
X0223313Y0120010D01*
X0223414Y0119873D01*
X0223512Y0119733D01*
X0223606Y0119591D01*
X0223696Y0119447D01*
X0223783Y0119300D01*
X0223867Y0119151D01*
X0223946Y0119001D01*
X0224022Y0118848D01*
X0224095Y0118694D01*
X0224163Y0118538D01*
X0224228Y0118380D01*
X0224289Y0118221D01*
X0224346Y0118060D01*
X0224399Y0117898D01*
X0224448Y0117735D01*
X0224493Y0117571D01*
X0224534Y0117405D01*
X0224572Y0117239D01*
X0224605Y0117071D01*
X0224633Y0116903D01*
X0224658Y0116735D01*
X0224679Y0116566D01*
X0224696Y0116396D01*
X0224708Y0116226D01*
X0224716Y0116056D01*
X0224720Y0115885D01*
X0224720Y0115715D01*
X0224716Y0115544D01*
X0224708Y0115374D01*
X0224696Y0115204D01*
X0224679Y0115034D01*
X0224658Y0114865D01*
X0224633Y0114697D01*
X0224605Y0114529D01*
X0224572Y0114361D01*
X0224534Y0114195D01*
X0224493Y0114029D01*
X0224448Y0113865D01*
X0224399Y0113702D01*
X0224346Y0113540D01*
X0224289Y0113379D01*
X0224228Y0113220D01*
X0224163Y0113062D01*
X0224095Y0112906D01*
X0224022Y0112752D01*
X0223946Y0112599D01*
X0223867Y0112449D01*
X0223783Y0112300D01*
X0223696Y0112153D01*
X0223606Y0112009D01*
X0223512Y0111867D01*
X0223414Y0111727D01*
X0223313Y0111590D01*
X0223209Y0111455D01*
X0223102Y0111322D01*
X0222991Y0111193D01*
X0222877Y0111066D01*
X0222760Y0110941D01*
X0222641Y0110820D01*
X0222518Y0110702D01*
X0222392Y0110587D01*
X0222264Y0110474D01*
X0222133Y0110365D01*
X0221999Y0110260D01*
X0221863Y0110157D01*
X0221724Y0110058D01*
X0221583Y0109962D01*
X0221440Y0109870D01*
X0221295Y0109781D01*
X0221147Y0109696D01*
X0220997Y0109614D01*
X0220846Y0109536D01*
X0220692Y0109462D01*
X0220537Y0109391D01*
X0220380Y0109325D01*
X0220222Y0109262D01*
X0220062Y0109203D01*
X0219900Y0109148D01*
X0219738Y0109097D01*
X0219574Y0109050D01*
X0219409Y0109007D01*
X0219243Y0108967D01*
X0219076Y0108932D01*
X0218909Y0108901D01*
X0218740Y0108875D01*
X0218571Y0108852D01*
X0218402Y0108833D01*
X0218232Y0108819D01*
X0218062Y0108808D01*
X0217891Y0108802D01*
X0217721Y0108800D01*
X0190721Y0108800D01*
X0190551Y0108802D01*
X0190380Y0108808D01*
X0190210Y0108819D01*
X0190040Y0108833D01*
X0189871Y0108852D01*
X0189702Y0108875D01*
X0189533Y0108901D01*
X0189366Y0108932D01*
X0189199Y0108967D01*
X0189033Y0109007D01*
X0188868Y0109050D01*
X0188704Y0109097D01*
X0188542Y0109148D01*
X0188380Y0109203D01*
X0188220Y0109262D01*
X0188062Y0109325D01*
X0187905Y0109391D01*
X0187750Y0109462D01*
X0187596Y0109536D01*
X0187445Y0109614D01*
X0187295Y0109696D01*
X0187147Y0109781D01*
X0187002Y0109870D01*
X0186859Y0109962D01*
X0186718Y0110058D01*
X0186579Y0110157D01*
X0186443Y0110260D01*
X0186309Y0110365D01*
X0186178Y0110474D01*
X0186050Y0110587D01*
X0185924Y0110702D01*
X0185801Y0110820D01*
X0185682Y0110941D01*
X0185565Y0111066D01*
X0185451Y0111193D01*
X0185340Y0111322D01*
X0185233Y0111455D01*
X0185129Y0111590D01*
X0185028Y0111727D01*
X0184930Y0111867D01*
X0184836Y0112009D01*
X0184746Y0112153D01*
X0184659Y0112300D01*
X0184575Y0112449D01*
X0184496Y0112599D01*
X0184420Y0112752D01*
X0184347Y0112906D01*
X0184279Y0113062D01*
X0184214Y0113220D01*
X0184153Y0113379D01*
X0184096Y0113540D01*
X0184043Y0113702D01*
X0183994Y0113865D01*
X0183949Y0114029D01*
X0183908Y0114195D01*
X0183870Y0114361D01*
X0183837Y0114529D01*
X0183809Y0114697D01*
X0183784Y0114865D01*
X0183763Y0115034D01*
X0183746Y0115204D01*
X0183734Y0115374D01*
X0183726Y0115544D01*
X0183722Y0115715D01*
X0183722Y0115885D01*
X0183726Y0116056D01*
X0183734Y0116226D01*
X0183746Y0116396D01*
X0183763Y0116566D01*
X0183784Y0116735D01*
X0183809Y0116903D01*
X0183837Y0117071D01*
X0183870Y0117239D01*
X0183908Y0117405D01*
X0183949Y0117571D01*
X0183994Y0117735D01*
X0184043Y0117898D01*
X0184096Y0118060D01*
X0184153Y0118221D01*
X0184214Y0118380D01*
X0184279Y0118538D01*
X0184347Y0118694D01*
X0184420Y0118848D01*
X0184496Y0119001D01*
X0184575Y0119151D01*
X0184659Y0119300D01*
X0184746Y0119447D01*
X0184836Y0119591D01*
X0184930Y0119733D01*
X0185028Y0119873D01*
X0185129Y0120010D01*
X0185233Y0120145D01*
X0185340Y0120278D01*
X0185451Y0120407D01*
X0185565Y0120534D01*
X0185682Y0120659D01*
X0185801Y0120780D01*
X0185924Y0120898D01*
X0186050Y0121013D01*
X0186178Y0121126D01*
X0186309Y0121235D01*
X0186443Y0121340D01*
X0186579Y0121443D01*
X0186718Y0121542D01*
X0186859Y0121638D01*
X0187002Y0121730D01*
X0187147Y0121819D01*
X0187295Y0121904D01*
X0187445Y0121986D01*
X0187596Y0122064D01*
X0187750Y0122138D01*
X0187905Y0122209D01*
X0188062Y0122275D01*
X0188220Y0122338D01*
X0188380Y0122397D01*
X0188542Y0122452D01*
X0188704Y0122503D01*
X0188868Y0122550D01*
X0189033Y0122593D01*
X0189199Y0122633D01*
X0189366Y0122668D01*
X0189533Y0122699D01*
X0189702Y0122725D01*
X0189871Y0122748D01*
X0190040Y0122767D01*
X0190210Y0122781D01*
X0190380Y0122792D01*
X0190551Y0122798D01*
X0190721Y0122800D01*
X0190681Y0081380D02*
X0191681Y0081380D01*
X0191681Y0071880D01*
X0190681Y0071880D01*
X0213681Y0071380D02*
X0214681Y0071380D01*
X0213681Y0071380D02*
X0213681Y0081380D01*
X0214681Y0081380D01*
D30*
X0351481Y0074270D03*
X0351481Y0071770D03*
X0351481Y0069270D03*
X0361481Y0069270D03*
X0361481Y0071770D03*
X0361481Y0074270D03*
D31*
X0298125Y0120403D02*
X0297418Y0121110D01*
X0296357Y0120049D01*
X0297065Y0119342D01*
X0298125Y0120403D01*
X0298093Y0120370D02*
X0296679Y0120370D01*
X0296777Y0120469D02*
X0298059Y0120469D01*
X0297961Y0120567D02*
X0296876Y0120567D01*
X0296974Y0120666D02*
X0297862Y0120666D01*
X0297764Y0120764D02*
X0297073Y0120764D01*
X0297171Y0120863D02*
X0297665Y0120863D01*
X0297567Y0120961D02*
X0297270Y0120961D01*
X0297368Y0121060D02*
X0297468Y0121060D01*
X0297994Y0120272D02*
X0296580Y0120272D01*
X0296482Y0120173D02*
X0297896Y0120173D01*
X0297797Y0120075D02*
X0296383Y0120075D01*
X0296430Y0119976D02*
X0297699Y0119976D01*
X0297600Y0119878D02*
X0296529Y0119878D01*
X0296627Y0119779D02*
X0297502Y0119779D01*
X0297403Y0119681D02*
X0296726Y0119681D01*
X0296824Y0119582D02*
X0297305Y0119582D01*
X0297206Y0119484D02*
X0296923Y0119484D01*
X0297021Y0119385D02*
X0297108Y0119385D01*
X0284206Y0106483D02*
X0283499Y0107190D01*
X0282438Y0106130D01*
X0283145Y0105423D01*
X0284206Y0106483D01*
X0284203Y0106480D02*
X0282789Y0106480D01*
X0282887Y0106579D02*
X0284110Y0106579D01*
X0284012Y0106677D02*
X0282986Y0106677D01*
X0283084Y0106776D02*
X0283913Y0106776D01*
X0283815Y0106874D02*
X0283183Y0106874D01*
X0283281Y0106973D02*
X0283716Y0106973D01*
X0283618Y0107071D02*
X0283380Y0107071D01*
X0283478Y0107170D02*
X0283519Y0107170D01*
X0284104Y0106382D02*
X0282690Y0106382D01*
X0282592Y0106283D02*
X0284006Y0106283D01*
X0283907Y0106185D02*
X0282493Y0106185D01*
X0282482Y0106086D02*
X0283809Y0106086D01*
X0283710Y0105988D02*
X0282580Y0105988D01*
X0282679Y0105889D02*
X0283612Y0105889D01*
X0283513Y0105791D02*
X0282777Y0105791D01*
X0282876Y0105692D02*
X0283415Y0105692D01*
X0283316Y0105594D02*
X0282974Y0105594D01*
X0283073Y0105495D02*
X0283218Y0105495D01*
X0255098Y0110306D02*
X0254037Y0111366D01*
X0253330Y0110659D01*
X0254391Y0109598D01*
X0255098Y0110306D01*
X0255082Y0110322D02*
X0253667Y0110322D01*
X0253569Y0110421D02*
X0254983Y0110421D01*
X0254884Y0110519D02*
X0253470Y0110519D01*
X0253372Y0110618D02*
X0254786Y0110618D01*
X0254687Y0110716D02*
X0253387Y0110716D01*
X0253486Y0110815D02*
X0254589Y0110815D01*
X0254490Y0110913D02*
X0253584Y0110913D01*
X0253683Y0111012D02*
X0254392Y0111012D01*
X0254293Y0111110D02*
X0253781Y0111110D01*
X0253880Y0111209D02*
X0254195Y0111209D01*
X0254096Y0111307D02*
X0253978Y0111307D01*
X0253766Y0110224D02*
X0255016Y0110224D01*
X0254918Y0110125D02*
X0253864Y0110125D01*
X0253963Y0110027D02*
X0254819Y0110027D01*
X0254721Y0109928D02*
X0254061Y0109928D01*
X0254160Y0109830D02*
X0254622Y0109830D01*
X0254524Y0109731D02*
X0254258Y0109731D01*
X0254357Y0109633D02*
X0254425Y0109633D01*
X0247078Y0144274D02*
X0248138Y0145335D01*
X0247431Y0146042D01*
X0246371Y0144981D01*
X0247078Y0144274D01*
X0247112Y0144309D02*
X0247043Y0144309D01*
X0246945Y0144407D02*
X0247211Y0144407D01*
X0247309Y0144506D02*
X0246846Y0144506D01*
X0246748Y0144604D02*
X0247408Y0144604D01*
X0247506Y0144703D02*
X0246649Y0144703D01*
X0246551Y0144801D02*
X0247605Y0144801D01*
X0247703Y0144900D02*
X0246452Y0144900D01*
X0246388Y0144998D02*
X0247802Y0144998D01*
X0247900Y0145097D02*
X0246486Y0145097D01*
X0246585Y0145195D02*
X0247999Y0145195D01*
X0248097Y0145294D02*
X0246683Y0145294D01*
X0246782Y0145392D02*
X0248081Y0145392D01*
X0247982Y0145491D02*
X0246880Y0145491D01*
X0246979Y0145589D02*
X0247884Y0145589D01*
X0247785Y0145688D02*
X0247077Y0145688D01*
X0247176Y0145786D02*
X0247687Y0145786D01*
X0247588Y0145885D02*
X0247274Y0145885D01*
X0247373Y0145983D02*
X0247490Y0145983D01*
X0260302Y0158888D02*
X0261692Y0158888D01*
X0261593Y0158790D02*
X0260401Y0158790D01*
X0260499Y0158691D02*
X0261495Y0158691D01*
X0261396Y0158593D02*
X0260598Y0158593D01*
X0260696Y0158494D02*
X0261298Y0158494D01*
X0261199Y0158396D02*
X0260795Y0158396D01*
X0260893Y0158297D02*
X0261101Y0158297D01*
X0261002Y0158199D02*
X0260992Y0158199D01*
X0260997Y0158193D02*
X0262058Y0159254D01*
X0261351Y0159961D01*
X0260290Y0158901D01*
X0260997Y0158193D01*
X0260376Y0158987D02*
X0261790Y0158987D01*
X0261889Y0159085D02*
X0260475Y0159085D01*
X0260573Y0159184D02*
X0261987Y0159184D01*
X0262030Y0159282D02*
X0260672Y0159282D01*
X0260770Y0159381D02*
X0261931Y0159381D01*
X0261833Y0159479D02*
X0260869Y0159479D01*
X0260967Y0159578D02*
X0261734Y0159578D01*
X0261636Y0159676D02*
X0261066Y0159676D01*
X0261164Y0159775D02*
X0261537Y0159775D01*
X0261439Y0159873D02*
X0261263Y0159873D01*
X0289398Y0149510D02*
X0290105Y0150218D01*
X0291166Y0149157D01*
X0290458Y0148450D01*
X0289398Y0149510D01*
X0289417Y0149530D02*
X0290793Y0149530D01*
X0290694Y0149628D02*
X0289515Y0149628D01*
X0289614Y0149727D02*
X0290596Y0149727D01*
X0290497Y0149825D02*
X0289713Y0149825D01*
X0289811Y0149924D02*
X0290399Y0149924D01*
X0290300Y0150022D02*
X0289910Y0150022D01*
X0290008Y0150121D02*
X0290202Y0150121D01*
X0290891Y0149431D02*
X0289477Y0149431D01*
X0289576Y0149333D02*
X0290990Y0149333D01*
X0291088Y0149234D02*
X0289674Y0149234D01*
X0289773Y0149136D02*
X0291144Y0149136D01*
X0291046Y0149037D02*
X0289871Y0149037D01*
X0289970Y0148939D02*
X0290947Y0148939D01*
X0290849Y0148840D02*
X0290068Y0148840D01*
X0290167Y0148742D02*
X0290750Y0148742D01*
X0290652Y0148643D02*
X0290265Y0148643D01*
X0290364Y0148545D02*
X0290553Y0148545D01*
M02*
