G75*
%MOIN*%
%OFA0B0*%
%FSLAX25Y25*%
%IPPOS*%
%LPD*%
%AMOC8*
5,1,8,0,0,1.08239X$1,22.5*
%
%ADD10R,0.14580X0.07099*%
%ADD11OC8,0.13200*%
%ADD12C,0.13200*%
%ADD13R,0.05918X0.07099*%
%ADD14R,0.07099X0.05918*%
%ADD15R,0.08674X0.06706*%
%ADD16R,0.09461X0.07887*%
%ADD17C,0.07400*%
%ADD18R,0.07887X0.10249*%
%ADD19R,0.41784X0.43320*%
%ADD20R,0.09300X0.05000*%
%ADD21R,0.25209X0.22060*%
%ADD22R,0.07099X0.04737*%
%ADD23R,0.06706X0.02375*%
%ADD24C,0.08674*%
%ADD25C,0.06800*%
%ADD26R,0.05524X0.05524*%
%ADD27C,0.05200*%
%ADD28C,0.06000*%
%ADD29R,0.08674X0.07099*%
%ADD30R,0.06706X0.05918*%
%ADD31R,0.05918X0.06706*%
%ADD32R,0.07099X0.07898*%
%ADD33C,0.06000*%
%ADD34R,0.05500X0.02000*%
%ADD35R,0.10643X0.08674*%
%ADD36R,0.13792X0.08674*%
%ADD37R,0.13005X0.02769*%
%ADD38C,0.04343*%
%ADD39C,0.04000*%
D10*
X0096111Y0027800D03*
X0117371Y0027800D03*
D11*
X0127241Y0092800D03*
D12*
X0127241Y0062800D03*
D13*
X0125601Y0172200D03*
X0133081Y0172200D03*
X0095378Y0175900D03*
X0087504Y0175900D03*
X0073781Y0171100D03*
X0066301Y0171100D03*
D14*
X0097341Y0168937D03*
X0097341Y0161063D03*
X0098941Y0138437D03*
X0098941Y0130563D03*
D15*
X0140041Y0194494D03*
X0140041Y0206306D03*
D16*
X0084741Y0165839D03*
X0084741Y0145761D03*
D17*
X0080341Y0103600D03*
X0080341Y0063600D03*
D18*
X0051613Y0172100D03*
X0035669Y0172100D03*
D19*
X0030641Y0079400D03*
D20*
X0063441Y0079400D03*
X0063441Y0086100D03*
X0063441Y0092800D03*
X0063441Y0072700D03*
X0063441Y0066000D03*
D21*
X0026998Y0023600D03*
D22*
X0055739Y0014624D03*
X0055739Y0032576D03*
D23*
X0113169Y0122466D03*
X0113169Y0125025D03*
X0113169Y0127584D03*
X0113169Y0130143D03*
X0113169Y0132702D03*
X0113169Y0135261D03*
X0113169Y0137820D03*
X0113169Y0140380D03*
X0113169Y0142939D03*
X0113169Y0145498D03*
X0113169Y0148057D03*
X0113169Y0150616D03*
X0113169Y0153175D03*
X0113169Y0155734D03*
X0141713Y0155734D03*
X0141713Y0153175D03*
X0141713Y0150616D03*
X0141713Y0148057D03*
X0141713Y0145498D03*
X0141713Y0142939D03*
X0141713Y0140380D03*
X0141713Y0137820D03*
X0141713Y0135261D03*
X0141713Y0132702D03*
X0141713Y0130143D03*
X0141713Y0127584D03*
X0141713Y0125025D03*
X0141713Y0122466D03*
D24*
X0060546Y0129663D02*
X0060546Y0137537D01*
X0036530Y0137537D02*
X0036530Y0129663D01*
X0044404Y0114702D02*
X0052278Y0114702D01*
D25*
X0137391Y0029475D02*
X0137391Y0023475D01*
X0147391Y0023475D02*
X0147391Y0029475D01*
X0157391Y0029475D02*
X0157391Y0023475D01*
X0167391Y0023475D02*
X0167391Y0029475D01*
X0177391Y0029475D02*
X0177391Y0023475D01*
X0187391Y0023475D02*
X0187391Y0029475D01*
X0197391Y0029475D02*
X0197391Y0023475D01*
X0207391Y0023475D02*
X0207391Y0029475D01*
X0217391Y0029475D02*
X0217391Y0023475D01*
X0227391Y0023475D02*
X0227391Y0029475D01*
X0237391Y0029475D02*
X0237391Y0023475D01*
X0247391Y0023475D02*
X0247391Y0029475D01*
X0257391Y0029475D02*
X0257391Y0023475D01*
X0267391Y0023475D02*
X0267391Y0029475D01*
X0277391Y0029475D02*
X0277391Y0023475D01*
X0287391Y0023475D02*
X0287391Y0029475D01*
X0297391Y0029475D02*
X0297391Y0023475D01*
X0307391Y0023475D02*
X0307391Y0029475D01*
X0317391Y0029475D02*
X0317391Y0023475D01*
X0327391Y0023475D02*
X0327391Y0029475D01*
X0337391Y0029475D02*
X0337391Y0023475D01*
X0347391Y0023475D02*
X0347391Y0029475D01*
X0357391Y0029475D02*
X0357391Y0023475D01*
X0367391Y0023475D02*
X0367391Y0029475D01*
X0377391Y0029475D02*
X0377391Y0023475D01*
X0387391Y0023475D02*
X0387391Y0029475D01*
X0384841Y0108100D02*
X0378841Y0108100D01*
X0378841Y0118100D02*
X0384841Y0118100D01*
X0384841Y0128100D02*
X0378841Y0128100D01*
X0378841Y0138100D02*
X0384841Y0138100D01*
X0387376Y0224660D02*
X0387376Y0230660D01*
X0377376Y0230660D02*
X0377376Y0224660D01*
X0367376Y0224660D02*
X0367376Y0230660D01*
X0357376Y0230660D02*
X0357376Y0224660D01*
X0347376Y0224660D02*
X0347376Y0230660D01*
X0337376Y0230660D02*
X0337376Y0224660D01*
X0327376Y0224660D02*
X0327376Y0230660D01*
X0317376Y0230660D02*
X0317376Y0224660D01*
X0307376Y0224660D02*
X0307376Y0230660D01*
X0297376Y0230660D02*
X0297376Y0224660D01*
X0287376Y0224660D02*
X0287376Y0230660D01*
X0277376Y0230660D02*
X0277376Y0224660D01*
X0267376Y0224660D02*
X0267376Y0230660D01*
X0257376Y0230660D02*
X0257376Y0224660D01*
X0247376Y0224660D02*
X0247376Y0230660D01*
X0237376Y0230660D02*
X0237376Y0224660D01*
X0227376Y0224660D02*
X0227376Y0230660D01*
X0217376Y0230660D02*
X0217376Y0224660D01*
X0207376Y0224660D02*
X0207376Y0230660D01*
X0197376Y0230660D02*
X0197376Y0224660D01*
X0187376Y0224660D02*
X0187376Y0230660D01*
X0177376Y0230660D02*
X0177376Y0224660D01*
X0167376Y0224660D02*
X0167376Y0230660D01*
X0157376Y0230660D02*
X0157376Y0224660D01*
X0147376Y0224660D02*
X0147376Y0230660D01*
X0137376Y0230660D02*
X0137376Y0224660D01*
X0193781Y0092180D02*
X0193781Y0086180D01*
X0211581Y0086180D02*
X0211581Y0092180D01*
X0211581Y0066580D02*
X0211581Y0060580D01*
X0193781Y0060580D02*
X0193781Y0066580D01*
D26*
X0178941Y0162366D03*
X0178941Y0170634D03*
X0158141Y0171134D03*
X0158141Y0162866D03*
X0105175Y0225600D03*
X0096907Y0225600D03*
D27*
X0194221Y0118000D02*
X0194221Y0113600D01*
X0214221Y0113600D02*
X0214221Y0118000D01*
D28*
X0212481Y0140840D03*
X0212481Y0150840D03*
D29*
X0119241Y0193788D03*
X0119241Y0204812D03*
D30*
X0158041Y0148440D03*
X0158041Y0140960D03*
X0179441Y0141160D03*
X0179441Y0148640D03*
X0174841Y0083500D03*
X0174841Y0076020D03*
D31*
X0166721Y0103820D03*
X0159241Y0103820D03*
X0122381Y0226300D03*
X0114901Y0226300D03*
D32*
X0162983Y0125420D03*
X0174179Y0125420D03*
D33*
X0351481Y0092620D02*
X0351481Y0087420D01*
X0361481Y0087420D02*
X0361481Y0092620D01*
X0361481Y0062620D02*
X0361481Y0057420D01*
X0351481Y0057420D02*
X0351481Y0062620D01*
D34*
G36*
X0279363Y0111680D02*
X0283251Y0107792D01*
X0281837Y0106378D01*
X0277949Y0110266D01*
X0279363Y0111680D01*
G37*
G36*
X0280755Y0113072D02*
X0284643Y0109184D01*
X0283229Y0107770D01*
X0279341Y0111658D01*
X0280755Y0113072D01*
G37*
G36*
X0282146Y0114464D02*
X0286034Y0110576D01*
X0284620Y0109162D01*
X0280732Y0113050D01*
X0282146Y0114464D01*
G37*
G36*
X0283538Y0115856D02*
X0287426Y0111968D01*
X0286012Y0110554D01*
X0282124Y0114442D01*
X0283538Y0115856D01*
G37*
G36*
X0284930Y0117248D02*
X0288818Y0113360D01*
X0287404Y0111946D01*
X0283516Y0115834D01*
X0284930Y0117248D01*
G37*
G36*
X0286322Y0118640D02*
X0290210Y0114752D01*
X0288796Y0113338D01*
X0284908Y0117226D01*
X0286322Y0118640D01*
G37*
G36*
X0287714Y0120032D02*
X0291602Y0116144D01*
X0290188Y0114730D01*
X0286300Y0118618D01*
X0287714Y0120032D01*
G37*
G36*
X0289106Y0121424D02*
X0292994Y0117536D01*
X0291580Y0116122D01*
X0287692Y0120010D01*
X0289106Y0121424D01*
G37*
G36*
X0290498Y0122815D02*
X0294386Y0118927D01*
X0292972Y0117513D01*
X0289084Y0121401D01*
X0290498Y0122815D01*
G37*
G36*
X0291890Y0124207D02*
X0295778Y0120319D01*
X0294364Y0118905D01*
X0290476Y0122793D01*
X0291890Y0124207D01*
G37*
G36*
X0293282Y0125599D02*
X0297170Y0121711D01*
X0295756Y0120297D01*
X0291868Y0124185D01*
X0293282Y0125599D01*
G37*
G36*
X0294674Y0126991D02*
X0298562Y0123103D01*
X0297148Y0121689D01*
X0293260Y0125577D01*
X0294674Y0126991D01*
G37*
G36*
X0296066Y0128383D02*
X0299954Y0124495D01*
X0298540Y0123081D01*
X0294652Y0126969D01*
X0296066Y0128383D01*
G37*
G36*
X0294652Y0135631D02*
X0298540Y0139519D01*
X0299954Y0138105D01*
X0296066Y0134217D01*
X0294652Y0135631D01*
G37*
G36*
X0293260Y0137023D02*
X0297148Y0140911D01*
X0298562Y0139497D01*
X0294674Y0135609D01*
X0293260Y0137023D01*
G37*
G36*
X0291868Y0138415D02*
X0295756Y0142303D01*
X0297170Y0140889D01*
X0293282Y0137001D01*
X0291868Y0138415D01*
G37*
G36*
X0290476Y0139807D02*
X0294364Y0143695D01*
X0295778Y0142281D01*
X0291890Y0138393D01*
X0290476Y0139807D01*
G37*
G36*
X0289084Y0141199D02*
X0292972Y0145087D01*
X0294386Y0143673D01*
X0290498Y0139785D01*
X0289084Y0141199D01*
G37*
G36*
X0287692Y0142590D02*
X0291580Y0146478D01*
X0292994Y0145064D01*
X0289106Y0141176D01*
X0287692Y0142590D01*
G37*
G36*
X0286300Y0143982D02*
X0290188Y0147870D01*
X0291602Y0146456D01*
X0287714Y0142568D01*
X0286300Y0143982D01*
G37*
G36*
X0284908Y0145374D02*
X0288796Y0149262D01*
X0290210Y0147848D01*
X0286322Y0143960D01*
X0284908Y0145374D01*
G37*
G36*
X0283516Y0146766D02*
X0287404Y0150654D01*
X0288818Y0149240D01*
X0284930Y0145352D01*
X0283516Y0146766D01*
G37*
G36*
X0282124Y0148158D02*
X0286012Y0152046D01*
X0287426Y0150632D01*
X0283538Y0146744D01*
X0282124Y0148158D01*
G37*
G36*
X0280732Y0149550D02*
X0284620Y0153438D01*
X0286034Y0152024D01*
X0282146Y0148136D01*
X0280732Y0149550D01*
G37*
G36*
X0279341Y0150942D02*
X0283229Y0154830D01*
X0284643Y0153416D01*
X0280755Y0149528D01*
X0279341Y0150942D01*
G37*
G36*
X0277949Y0152334D02*
X0281837Y0156222D01*
X0283251Y0154808D01*
X0279363Y0150920D01*
X0277949Y0152334D01*
G37*
G36*
X0276557Y0153726D02*
X0280445Y0157614D01*
X0281859Y0156200D01*
X0277971Y0152312D01*
X0276557Y0153726D01*
G37*
G36*
X0275165Y0155118D02*
X0279053Y0159006D01*
X0280467Y0157592D01*
X0276579Y0153704D01*
X0275165Y0155118D01*
G37*
G36*
X0273773Y0156510D02*
X0277661Y0160398D01*
X0279075Y0158984D01*
X0275187Y0155096D01*
X0273773Y0156510D01*
G37*
G36*
X0266525Y0155096D02*
X0262637Y0158984D01*
X0264051Y0160398D01*
X0267939Y0156510D01*
X0266525Y0155096D01*
G37*
G36*
X0265133Y0153704D02*
X0261245Y0157592D01*
X0262659Y0159006D01*
X0266547Y0155118D01*
X0265133Y0153704D01*
G37*
G36*
X0263741Y0152312D02*
X0259853Y0156200D01*
X0261267Y0157614D01*
X0265155Y0153726D01*
X0263741Y0152312D01*
G37*
G36*
X0262349Y0150920D02*
X0258461Y0154808D01*
X0259875Y0156222D01*
X0263763Y0152334D01*
X0262349Y0150920D01*
G37*
G36*
X0260957Y0149528D02*
X0257069Y0153416D01*
X0258483Y0154830D01*
X0262371Y0150942D01*
X0260957Y0149528D01*
G37*
G36*
X0259566Y0148136D02*
X0255678Y0152024D01*
X0257092Y0153438D01*
X0260980Y0149550D01*
X0259566Y0148136D01*
G37*
G36*
X0258174Y0146744D02*
X0254286Y0150632D01*
X0255700Y0152046D01*
X0259588Y0148158D01*
X0258174Y0146744D01*
G37*
G36*
X0256782Y0145352D02*
X0252894Y0149240D01*
X0254308Y0150654D01*
X0258196Y0146766D01*
X0256782Y0145352D01*
G37*
G36*
X0255390Y0143960D02*
X0251502Y0147848D01*
X0252916Y0149262D01*
X0256804Y0145374D01*
X0255390Y0143960D01*
G37*
G36*
X0253998Y0142568D02*
X0250110Y0146456D01*
X0251524Y0147870D01*
X0255412Y0143982D01*
X0253998Y0142568D01*
G37*
G36*
X0252606Y0141176D02*
X0248718Y0145064D01*
X0250132Y0146478D01*
X0254020Y0142590D01*
X0252606Y0141176D01*
G37*
G36*
X0251214Y0139785D02*
X0247326Y0143673D01*
X0248740Y0145087D01*
X0252628Y0141199D01*
X0251214Y0139785D01*
G37*
G36*
X0249822Y0138393D02*
X0245934Y0142281D01*
X0247348Y0143695D01*
X0251236Y0139807D01*
X0249822Y0138393D01*
G37*
G36*
X0248430Y0137001D02*
X0244542Y0140889D01*
X0245956Y0142303D01*
X0249844Y0138415D01*
X0248430Y0137001D01*
G37*
G36*
X0247038Y0135609D02*
X0243150Y0139497D01*
X0244564Y0140911D01*
X0248452Y0137023D01*
X0247038Y0135609D01*
G37*
G36*
X0245646Y0134217D02*
X0241758Y0138105D01*
X0243172Y0139519D01*
X0247060Y0135631D01*
X0245646Y0134217D01*
G37*
G36*
X0247060Y0126969D02*
X0243172Y0123081D01*
X0241758Y0124495D01*
X0245646Y0128383D01*
X0247060Y0126969D01*
G37*
G36*
X0248452Y0125577D02*
X0244564Y0121689D01*
X0243150Y0123103D01*
X0247038Y0126991D01*
X0248452Y0125577D01*
G37*
G36*
X0249844Y0124185D02*
X0245956Y0120297D01*
X0244542Y0121711D01*
X0248430Y0125599D01*
X0249844Y0124185D01*
G37*
G36*
X0251236Y0122793D02*
X0247348Y0118905D01*
X0245934Y0120319D01*
X0249822Y0124207D01*
X0251236Y0122793D01*
G37*
G36*
X0252628Y0121401D02*
X0248740Y0117513D01*
X0247326Y0118927D01*
X0251214Y0122815D01*
X0252628Y0121401D01*
G37*
G36*
X0254020Y0120010D02*
X0250132Y0116122D01*
X0248718Y0117536D01*
X0252606Y0121424D01*
X0254020Y0120010D01*
G37*
G36*
X0255412Y0118618D02*
X0251524Y0114730D01*
X0250110Y0116144D01*
X0253998Y0120032D01*
X0255412Y0118618D01*
G37*
G36*
X0256804Y0117226D02*
X0252916Y0113338D01*
X0251502Y0114752D01*
X0255390Y0118640D01*
X0256804Y0117226D01*
G37*
G36*
X0258196Y0115834D02*
X0254308Y0111946D01*
X0252894Y0113360D01*
X0256782Y0117248D01*
X0258196Y0115834D01*
G37*
G36*
X0259588Y0114442D02*
X0255700Y0110554D01*
X0254286Y0111968D01*
X0258174Y0115856D01*
X0259588Y0114442D01*
G37*
G36*
X0260980Y0113050D02*
X0257092Y0109162D01*
X0255678Y0110576D01*
X0259566Y0114464D01*
X0260980Y0113050D01*
G37*
G36*
X0262371Y0111658D02*
X0258483Y0107770D01*
X0257069Y0109184D01*
X0260957Y0113072D01*
X0262371Y0111658D01*
G37*
G36*
X0263763Y0110266D02*
X0259875Y0106378D01*
X0258461Y0107792D01*
X0262349Y0111680D01*
X0263763Y0110266D01*
G37*
G36*
X0265155Y0108874D02*
X0261267Y0104986D01*
X0259853Y0106400D01*
X0263741Y0110288D01*
X0265155Y0108874D01*
G37*
G36*
X0266547Y0107482D02*
X0262659Y0103594D01*
X0261245Y0105008D01*
X0265133Y0108896D01*
X0266547Y0107482D01*
G37*
G36*
X0267939Y0106090D02*
X0264051Y0102202D01*
X0262637Y0103616D01*
X0266525Y0107504D01*
X0267939Y0106090D01*
G37*
G36*
X0275187Y0107504D02*
X0279075Y0103616D01*
X0277661Y0102202D01*
X0273773Y0106090D01*
X0275187Y0107504D01*
G37*
G36*
X0276579Y0108896D02*
X0280467Y0105008D01*
X0279053Y0103594D01*
X0275165Y0107482D01*
X0276579Y0108896D01*
G37*
G36*
X0277971Y0110288D02*
X0281859Y0106400D01*
X0280445Y0104986D01*
X0276557Y0108874D01*
X0277971Y0110288D01*
G37*
D35*
X0023530Y0194080D03*
X0023530Y0229120D03*
D36*
X0046758Y0229120D03*
X0046758Y0194080D03*
D37*
X0047152Y0205301D03*
X0047152Y0208450D03*
X0047152Y0211600D03*
X0047152Y0214750D03*
X0047152Y0217899D03*
D38*
X0035341Y0220261D03*
X0035341Y0202939D03*
D39*
X0063491Y0194925D03*
X0081616Y0206175D03*
X0103491Y0199300D03*
X0128491Y0189925D03*
X0105491Y0179925D03*
X0105991Y0168675D03*
X0114741Y0161800D03*
X0105366Y0158675D03*
X0104741Y0145550D03*
X0121616Y0146800D03*
X0129116Y0134925D03*
X0133491Y0134925D03*
X0132241Y0127425D03*
X0132241Y0122425D03*
X0144116Y0116175D03*
X0166616Y0113050D03*
X0150366Y0130550D03*
X0199741Y0166175D03*
X0211616Y0170550D03*
X0214741Y0166800D03*
X0213491Y0177425D03*
X0203741Y0178800D03*
X0228491Y0153675D03*
X0235366Y0151800D03*
X0255991Y0137425D03*
X0256741Y0126800D03*
X0262241Y0118675D03*
X0241041Y0112800D03*
X0236541Y0116400D03*
X0237341Y0107600D03*
X0223491Y0098050D03*
X0254741Y0103675D03*
X0268741Y0095800D03*
X0280541Y0083600D03*
X0260741Y0065800D03*
X0243741Y0070800D03*
X0217241Y0073675D03*
X0178741Y0065800D03*
X0117241Y0036175D03*
X0078491Y0037925D03*
X0050991Y0023675D03*
X0015491Y0048925D03*
X0072866Y0068050D03*
X0103491Y0081925D03*
X0066491Y0106925D03*
X0084741Y0133050D03*
X0075991Y0159300D03*
X0065991Y0162425D03*
X0019491Y0173925D03*
X0063491Y0232925D03*
X0172741Y0238800D03*
X0272241Y0183675D03*
X0277866Y0180550D03*
X0341741Y0142800D03*
X0311741Y0122400D03*
X0304141Y0124400D03*
X0306741Y0131800D03*
X0285741Y0126800D03*
X0305991Y0107425D03*
X0341616Y0076800D03*
X0377741Y0090800D03*
X0361741Y0118800D03*
X0365741Y0166800D03*
X0389741Y0166800D03*
X0353741Y0182800D03*
X0389741Y0198800D03*
X0375741Y0240800D03*
X0282741Y0240800D03*
X0239741Y0129300D03*
X0228941Y0122800D03*
X0221616Y0116800D03*
X0302741Y0061800D03*
X0265741Y0010800D03*
X0181741Y0010800D03*
X0024491Y0108925D03*
X0353741Y0010800D03*
X0385741Y0050800D03*
M02*
