G75*
%MOIN*%
%OFA0B0*%
%FSLAX25Y25*%
%IPPOS*%
%LPD*%
%AMOC8*
5,1,8,0,0,1.08239X$1,22.5*
%
%ADD10R,0.13780X0.06299*%
%ADD11R,0.05118X0.06299*%
%ADD12R,0.00984X0.01378*%
%ADD13R,0.04331X0.03937*%
%ADD14R,0.06299X0.05118*%
%ADD15R,0.07874X0.05906*%
%ADD16R,0.01378X0.00984*%
%ADD17OC8,0.12400*%
%ADD18C,0.12400*%
%ADD19R,0.05906X0.07874*%
%ADD20C,0.06600*%
%ADD21R,0.03543X0.03150*%
%ADD22C,0.07874*%
%ADD23C,0.06000*%
%ADD24C,0.04400*%
%ADD25C,0.05200*%
%ADD26R,0.05118X0.05906*%
%ADD27R,0.02756X0.03543*%
%ADD28R,0.06299X0.07874*%
%ADD29R,0.05906X0.05118*%
%ADD30C,0.05200*%
%ADD31R,0.22047X0.12205*%
%ADD32C,0.00800*%
%ADD33C,0.03200*%
%ADD34C,0.01600*%
D10*
X0073111Y0123300D03*
X0094371Y0123300D03*
D11*
X0195624Y0137700D03*
X0203498Y0137700D03*
X0204858Y0157480D03*
X0196984Y0157480D03*
X0254261Y0179960D03*
X0261741Y0179960D03*
X0210238Y0105580D03*
X0202364Y0105580D03*
X0199004Y0075360D03*
X0206878Y0075360D03*
D12*
X0268197Y0118560D03*
X0270165Y0118560D03*
D13*
X0271587Y0132600D03*
X0264895Y0132600D03*
D14*
X0263541Y0161343D03*
X0271401Y0161283D03*
X0279201Y0161283D03*
X0287701Y0161443D03*
X0287701Y0169317D03*
X0279201Y0169157D03*
X0271401Y0169157D03*
X0263541Y0169217D03*
X0254721Y0169297D03*
X0246261Y0169297D03*
X0238561Y0169217D03*
X0231061Y0169277D03*
X0223481Y0168977D03*
X0223481Y0161103D03*
X0231061Y0161403D03*
X0238561Y0161343D03*
X0246261Y0161423D03*
X0254721Y0161423D03*
X0181581Y0112437D03*
X0181581Y0104563D03*
D15*
X0041641Y0035506D03*
X0041641Y0023694D03*
X0328941Y0103254D03*
X0328941Y0115066D03*
D16*
X0349081Y0114724D03*
X0349081Y0112756D03*
D17*
X0127241Y0092800D03*
D18*
X0127241Y0062800D03*
D19*
X0042147Y0048600D03*
X0030335Y0048600D03*
D20*
X0080341Y0063600D03*
X0080341Y0103600D03*
D21*
X0096178Y0199060D03*
X0088304Y0202800D03*
X0096178Y0206540D03*
D22*
X0060546Y0137537D02*
X0060546Y0129663D01*
X0052278Y0114702D02*
X0044404Y0114702D01*
X0036530Y0129663D02*
X0036530Y0137537D01*
D23*
X0137376Y0224660D02*
X0137376Y0230660D01*
X0147376Y0230660D02*
X0147376Y0224660D01*
X0157376Y0224660D02*
X0157376Y0230660D01*
X0167376Y0230660D02*
X0167376Y0224660D01*
X0177376Y0224660D02*
X0177376Y0230660D01*
X0187376Y0230660D02*
X0187376Y0224660D01*
X0197376Y0224660D02*
X0197376Y0230660D01*
X0207376Y0230660D02*
X0207376Y0224660D01*
X0217376Y0224660D02*
X0217376Y0230660D01*
X0227376Y0230660D02*
X0227376Y0224660D01*
X0237376Y0224660D02*
X0237376Y0230660D01*
X0247376Y0230660D02*
X0247376Y0224660D01*
X0257376Y0224660D02*
X0257376Y0230660D01*
X0267376Y0230660D02*
X0267376Y0224660D01*
X0277376Y0224660D02*
X0277376Y0230660D01*
X0287376Y0230660D02*
X0287376Y0224660D01*
X0297376Y0224660D02*
X0297376Y0230660D01*
X0307376Y0230660D02*
X0307376Y0224660D01*
X0317376Y0224660D02*
X0317376Y0230660D01*
X0327376Y0230660D02*
X0327376Y0224660D01*
X0337376Y0224660D02*
X0337376Y0230660D01*
X0347376Y0230660D02*
X0347376Y0224660D01*
X0357376Y0224660D02*
X0357376Y0230660D01*
X0367376Y0230660D02*
X0367376Y0224660D01*
X0377376Y0224660D02*
X0377376Y0230660D01*
X0387376Y0230660D02*
X0387376Y0224660D01*
X0384841Y0138100D02*
X0378841Y0138100D01*
X0378841Y0128100D02*
X0384841Y0128100D01*
X0384841Y0118100D02*
X0378841Y0118100D01*
X0378841Y0108100D02*
X0384841Y0108100D01*
X0387391Y0029475D02*
X0387391Y0023475D01*
X0377391Y0023475D02*
X0377391Y0029475D01*
X0367391Y0029475D02*
X0367391Y0023475D01*
X0357391Y0023475D02*
X0357391Y0029475D01*
X0347391Y0029475D02*
X0347391Y0023475D01*
X0337391Y0023475D02*
X0337391Y0029475D01*
X0327391Y0029475D02*
X0327391Y0023475D01*
X0317391Y0023475D02*
X0317391Y0029475D01*
X0307391Y0029475D02*
X0307391Y0023475D01*
X0297391Y0023475D02*
X0297391Y0029475D01*
X0287391Y0029475D02*
X0287391Y0023475D01*
X0277391Y0023475D02*
X0277391Y0029475D01*
X0267391Y0029475D02*
X0267391Y0023475D01*
X0257391Y0023475D02*
X0257391Y0029475D01*
X0247391Y0029475D02*
X0247391Y0023475D01*
X0237391Y0023475D02*
X0237391Y0029475D01*
X0227391Y0029475D02*
X0227391Y0023475D01*
X0217391Y0023475D02*
X0217391Y0029475D01*
X0207391Y0029475D02*
X0207391Y0023475D01*
X0197391Y0023475D02*
X0197391Y0029475D01*
X0187391Y0029475D02*
X0187391Y0023475D01*
X0177391Y0023475D02*
X0177391Y0029475D01*
X0167391Y0029475D02*
X0167391Y0023475D01*
X0157391Y0023475D02*
X0157391Y0029475D01*
X0147391Y0029475D02*
X0147391Y0023475D01*
X0137391Y0023475D02*
X0137391Y0029475D01*
X0193781Y0060580D02*
X0193781Y0066580D01*
X0211581Y0066580D02*
X0211581Y0060580D01*
X0211581Y0086180D02*
X0211581Y0092180D01*
X0193781Y0092180D02*
X0193781Y0086180D01*
D24*
X0194221Y0113600D02*
X0194221Y0118000D01*
X0214221Y0118000D02*
X0214221Y0113600D01*
D25*
X0212481Y0140840D03*
X0212481Y0150840D03*
D26*
X0347001Y0128500D03*
X0354481Y0128500D03*
X0357181Y0151700D03*
X0349701Y0151700D03*
D27*
X0279120Y0147080D03*
X0274002Y0147080D03*
D28*
X0255813Y0147800D03*
X0244789Y0147800D03*
D29*
X0333241Y0077400D03*
X0333241Y0069920D03*
X0381981Y0073240D03*
X0381981Y0065760D03*
D30*
X0361481Y0062620D02*
X0361481Y0057420D01*
X0351481Y0057420D02*
X0351481Y0062620D01*
X0351481Y0087420D02*
X0351481Y0092620D01*
X0361481Y0092620D02*
X0361481Y0087420D01*
D31*
X0076041Y0052285D03*
X0076041Y0012915D03*
D32*
X0076616Y0013050D01*
X0124116Y0013050D01*
X0137241Y0026175D01*
X0137391Y0026475D01*
X0137241Y0026800D01*
X0137241Y0052425D01*
X0127241Y0062425D01*
X0127241Y0062800D01*
X0117241Y0036175D02*
X0072866Y0080550D01*
X0072866Y0068050D01*
X0079741Y0063050D02*
X0080341Y0063600D01*
X0079741Y0063050D02*
X0079741Y0055550D01*
X0076616Y0052425D01*
X0076041Y0052285D01*
X0042241Y0054300D02*
X0042241Y0048675D01*
X0042147Y0048600D01*
X0041616Y0048050D01*
X0041616Y0035550D01*
X0041641Y0035506D01*
X0030366Y0026175D02*
X0043491Y0013050D01*
X0075991Y0013050D01*
X0076041Y0012915D01*
X0050991Y0023675D02*
X0042241Y0023675D01*
X0041641Y0023694D01*
X0030366Y0026175D02*
X0030366Y0048050D01*
X0030335Y0048600D01*
X0020991Y0054300D02*
X0042241Y0054300D01*
X0042241Y0108675D01*
X0024741Y0108675D01*
X0024491Y0108925D01*
X0042241Y0108675D02*
X0047866Y0114300D01*
X0048341Y0114702D01*
X0054741Y0114925D01*
X0036616Y0133050D01*
X0036530Y0133600D01*
X0060546Y0133600D02*
X0060991Y0133675D01*
X0065991Y0138675D01*
X0065991Y0162425D01*
X0075991Y0159300D02*
X0075991Y0204925D01*
X0114741Y0243675D01*
X0185991Y0243675D01*
X0194741Y0234925D01*
X0379116Y0234925D01*
X0385991Y0228050D01*
X0387241Y0228050D01*
X0387376Y0227660D01*
X0377376Y0227660D02*
X0377241Y0227425D01*
X0369741Y0219925D01*
X0301616Y0219925D01*
X0262241Y0180550D01*
X0261741Y0179960D01*
X0262241Y0179925D01*
X0262241Y0169300D01*
X0263541Y0169217D01*
X0263491Y0169300D01*
X0262241Y0169300D01*
X0259116Y0169300D01*
X0254741Y0169300D01*
X0254721Y0169297D01*
X0254116Y0169300D01*
X0246616Y0169300D01*
X0246261Y0169297D01*
X0245991Y0169300D01*
X0239116Y0169300D01*
X0238561Y0169217D01*
X0238491Y0169300D01*
X0231616Y0169300D01*
X0231061Y0169277D01*
X0230991Y0169300D01*
X0226616Y0173675D01*
X0207241Y0173675D01*
X0199741Y0166175D01*
X0196616Y0167425D02*
X0196616Y0158050D01*
X0196984Y0157480D01*
X0197241Y0158050D01*
X0196984Y0157480D02*
X0196616Y0157425D01*
X0195991Y0156800D01*
X0195991Y0138050D01*
X0195624Y0137700D01*
X0195991Y0137425D01*
X0195991Y0121175D01*
X0202241Y0114925D01*
X0202241Y0106175D01*
X0202364Y0105580D01*
X0202241Y0105550D01*
X0190366Y0093675D01*
X0181616Y0102425D01*
X0181616Y0104300D01*
X0181581Y0104563D01*
X0181581Y0112437D02*
X0181616Y0113050D01*
X0191616Y0113050D01*
X0194116Y0115550D01*
X0194221Y0115800D01*
X0210366Y0111800D02*
X0210366Y0106175D01*
X0210238Y0105580D01*
X0214221Y0111520D02*
X0214221Y0115800D01*
X0214116Y0115550D01*
X0210366Y0111800D01*
X0214221Y0111520D02*
X0218141Y0107600D01*
X0237341Y0107600D01*
X0238541Y0110400D02*
X0252541Y0096400D01*
X0252541Y0080000D01*
X0255741Y0076800D01*
X0281741Y0076800D01*
X0301741Y0096800D01*
X0301741Y0108800D01*
X0303741Y0110800D01*
X0312541Y0110800D01*
X0312541Y0102000D01*
X0333241Y0081300D01*
X0333241Y0077400D01*
X0333491Y0076800D01*
X0341616Y0076800D01*
X0347241Y0069925D02*
X0333491Y0069925D01*
X0333241Y0069920D01*
X0347241Y0069925D02*
X0347241Y0112425D01*
X0348491Y0112425D01*
X0349081Y0112756D01*
X0347241Y0112425D02*
X0343491Y0112425D01*
X0349116Y0118050D01*
X0361616Y0118050D01*
X0361616Y0118675D01*
X0361741Y0118800D01*
X0361616Y0118050D02*
X0381616Y0118050D01*
X0381841Y0118100D01*
X0381841Y0128100D02*
X0381616Y0128675D01*
X0354741Y0128675D01*
X0354481Y0128500D01*
X0347001Y0128500D02*
X0346616Y0128675D01*
X0320366Y0128675D01*
X0292241Y0156800D01*
X0292241Y0174300D01*
X0279741Y0174300D01*
X0277866Y0176175D01*
X0277866Y0180550D01*
X0272241Y0183675D02*
X0301616Y0183675D01*
X0301616Y0151800D01*
X0349116Y0151800D01*
X0349701Y0151700D01*
X0357181Y0151700D02*
X0357241Y0151175D01*
X0369116Y0151175D01*
X0381616Y0138675D01*
X0381841Y0138100D01*
X0350991Y0114300D02*
X0350366Y0114925D01*
X0349116Y0114925D01*
X0349081Y0114724D01*
X0350991Y0114300D02*
X0350991Y0090550D01*
X0351481Y0090020D01*
X0328941Y0103254D02*
X0317741Y0114454D01*
X0317741Y0116400D01*
X0311741Y0122400D01*
X0306541Y0123200D02*
X0306541Y0118800D01*
X0298941Y0111200D01*
X0298941Y0102000D01*
X0280541Y0083600D01*
X0305991Y0089925D02*
X0342866Y0053050D01*
X0354116Y0053050D01*
X0360991Y0059925D01*
X0361481Y0060020D01*
X0361616Y0060550D01*
X0366616Y0065550D01*
X0381616Y0065550D01*
X0381981Y0065760D01*
X0378491Y0069925D02*
X0377866Y0069925D01*
X0377866Y0090550D01*
X0377741Y0090800D01*
X0381981Y0073240D02*
X0381616Y0073050D01*
X0378491Y0069925D01*
X0377866Y0069925D02*
X0347241Y0069925D01*
X0382866Y0048050D02*
X0385366Y0050550D01*
X0385741Y0050800D01*
X0382866Y0048050D02*
X0382866Y0022425D01*
X0371616Y0011175D01*
X0354116Y0011175D01*
X0353741Y0010800D01*
X0302741Y0061800D02*
X0261616Y0061800D01*
X0261616Y0023050D01*
X0265366Y0019300D01*
X0265366Y0011175D01*
X0265741Y0010800D01*
X0247391Y0026475D02*
X0247241Y0026800D01*
X0217241Y0056800D01*
X0217241Y0073675D01*
X0207241Y0074925D02*
X0206878Y0075360D01*
X0206616Y0075550D01*
X0202241Y0079925D01*
X0184741Y0079925D01*
X0132866Y0131800D01*
X0132241Y0131800D01*
X0129116Y0134925D01*
X0105366Y0158675D01*
X0114741Y0161800D02*
X0163491Y0113050D01*
X0166616Y0113050D01*
X0147241Y0113050D02*
X0144116Y0116175D01*
X0147241Y0113050D02*
X0147241Y0026800D01*
X0147391Y0026475D01*
X0147866Y0026800D01*
X0157391Y0026475D02*
X0157866Y0026175D01*
X0172866Y0011175D01*
X0181616Y0011175D01*
X0181741Y0010800D01*
X0157866Y0026800D02*
X0157391Y0026475D01*
X0157866Y0026800D02*
X0157866Y0028675D01*
X0193781Y0063580D02*
X0194116Y0063675D01*
X0198491Y0063675D01*
X0198491Y0074925D01*
X0199004Y0075360D01*
X0200991Y0081800D02*
X0194116Y0088675D01*
X0193781Y0089180D01*
X0193491Y0090550D01*
X0190366Y0093675D01*
X0200991Y0081800D02*
X0232866Y0081800D01*
X0243491Y0071175D01*
X0243741Y0070800D01*
X0244116Y0070550D01*
X0255991Y0070550D01*
X0260741Y0065800D01*
X0261616Y0064925D01*
X0261616Y0061800D01*
X0305991Y0089925D02*
X0305991Y0107425D01*
X0306541Y0123200D02*
X0305341Y0124400D01*
X0304141Y0124400D01*
X0304116Y0124925D01*
X0282241Y0146800D01*
X0282241Y0150550D01*
X0255991Y0150550D01*
X0255813Y0147800D01*
X0255991Y0148050D01*
X0255991Y0150550D01*
X0255991Y0157425D01*
X0258491Y0157425D01*
X0259116Y0158050D01*
X0259116Y0169300D01*
X0263541Y0169217D02*
X0264116Y0169300D01*
X0270991Y0169300D01*
X0271401Y0169157D01*
X0271616Y0169300D01*
X0279116Y0169300D01*
X0279201Y0169157D01*
X0279741Y0169300D01*
X0287241Y0169300D01*
X0287701Y0169317D01*
X0287701Y0161443D02*
X0287866Y0161175D01*
X0287866Y0150550D01*
X0293491Y0150550D01*
X0309741Y0134300D01*
X0307241Y0131800D01*
X0306741Y0131800D01*
X0309741Y0134300D02*
X0328491Y0115550D01*
X0328941Y0115066D01*
X0329116Y0114925D01*
X0331616Y0112425D01*
X0343491Y0112425D01*
X0279116Y0116175D02*
X0279116Y0146800D01*
X0279120Y0147080D01*
X0274002Y0147080D02*
X0273491Y0146800D01*
X0273491Y0134925D01*
X0271616Y0133050D01*
X0271587Y0132600D01*
X0270991Y0132425D01*
X0270366Y0131800D01*
X0270366Y0118675D01*
X0270165Y0118560D01*
X0270366Y0118050D01*
X0271616Y0116800D01*
X0271616Y0111175D01*
X0264116Y0103675D01*
X0254741Y0103675D01*
X0253491Y0100550D02*
X0245366Y0108675D01*
X0245366Y0119300D01*
X0231616Y0133050D01*
X0231616Y0156800D01*
X0220366Y0156800D01*
X0211616Y0165550D01*
X0211616Y0170550D01*
X0214741Y0166800D02*
X0220991Y0166800D01*
X0222866Y0168675D01*
X0223481Y0168977D01*
X0223491Y0161175D02*
X0223481Y0161103D01*
X0223491Y0161175D02*
X0230991Y0161175D01*
X0231061Y0161403D01*
X0231616Y0161800D01*
X0238491Y0161800D01*
X0238561Y0161343D01*
X0239116Y0161800D01*
X0245991Y0161800D01*
X0246261Y0161423D01*
X0246616Y0161175D01*
X0246616Y0159300D01*
X0247241Y0159300D01*
X0247866Y0158675D01*
X0248491Y0158675D01*
X0248491Y0158050D01*
X0250366Y0158050D01*
X0250483Y0157448D01*
X0250366Y0157425D01*
X0250366Y0143675D01*
X0255991Y0138050D01*
X0255991Y0137425D01*
X0255991Y0138050D02*
X0262241Y0131800D01*
X0257241Y0126800D01*
X0256741Y0126800D01*
X0256616Y0126800D01*
X0262241Y0131800D02*
X0262866Y0132425D01*
X0264741Y0132425D01*
X0264895Y0132600D01*
X0264741Y0133050D01*
X0264895Y0132600D02*
X0265366Y0132425D01*
X0267866Y0129925D01*
X0267866Y0118675D01*
X0268197Y0118560D01*
X0267866Y0118675D02*
X0262241Y0118675D01*
X0279116Y0116175D02*
X0263491Y0100550D01*
X0253491Y0100550D01*
X0238541Y0110400D02*
X0221741Y0110400D01*
X0218141Y0114000D01*
X0218141Y0122800D01*
X0222541Y0127200D01*
X0222866Y0127425D01*
X0228491Y0127425D01*
X0228491Y0153675D01*
X0235366Y0151800D02*
X0239741Y0147425D01*
X0244741Y0147425D01*
X0244789Y0147800D01*
X0239741Y0147425D02*
X0239741Y0129300D01*
X0228941Y0122800D02*
X0235341Y0116400D01*
X0236541Y0116400D01*
X0241041Y0112800D02*
X0225616Y0112800D01*
X0221616Y0116800D01*
X0223491Y0098050D02*
X0219116Y0098050D01*
X0211616Y0090550D01*
X0211581Y0089180D01*
X0207241Y0074925D02*
X0207241Y0063675D01*
X0210991Y0063675D01*
X0211581Y0063580D01*
X0132241Y0122425D02*
X0110991Y0122425D01*
X0084741Y0148675D01*
X0084741Y0206175D01*
X0095991Y0206175D01*
X0096178Y0206540D01*
X0088491Y0203050D02*
X0088304Y0202800D01*
X0088491Y0203050D02*
X0112866Y0203050D01*
X0114116Y0204300D01*
X0128491Y0189925D01*
X0114116Y0204300D02*
X0137241Y0227425D01*
X0137376Y0227660D01*
X0137866Y0228050D01*
X0150366Y0240550D01*
X0182866Y0240550D01*
X0182866Y0199925D01*
X0203491Y0179300D01*
X0203741Y0178800D01*
X0203491Y0178675D01*
X0203491Y0174300D01*
X0196616Y0167425D01*
X0204858Y0157480D02*
X0205366Y0157425D01*
X0212241Y0150550D01*
X0212481Y0150840D01*
X0212481Y0140840D02*
X0212241Y0140550D01*
X0209741Y0138050D01*
X0204116Y0138050D01*
X0203498Y0137700D01*
X0248491Y0158675D02*
X0250991Y0158675D01*
X0251616Y0158050D01*
X0252866Y0158050D01*
X0253491Y0158675D01*
X0254741Y0158675D01*
X0254741Y0161175D01*
X0254721Y0161423D01*
X0250483Y0157448D02*
X0250491Y0157409D01*
X0263541Y0161343D02*
X0264116Y0161175D01*
X0270991Y0161175D01*
X0271401Y0161283D01*
X0271616Y0161175D01*
X0279116Y0161175D01*
X0279201Y0161283D01*
X0279741Y0161175D01*
X0287241Y0161175D01*
X0287701Y0161443D01*
X0254261Y0179960D02*
X0254116Y0179925D01*
X0215991Y0179925D01*
X0213491Y0177425D01*
X0150366Y0152425D02*
X0103491Y0199300D01*
X0096616Y0199300D01*
X0096178Y0199060D01*
X0084741Y0206175D02*
X0081616Y0206175D01*
X0063491Y0194925D02*
X0063491Y0232925D01*
X0105491Y0179925D02*
X0105991Y0179925D01*
X0105991Y0168675D01*
X0104741Y0145550D02*
X0104741Y0133050D01*
X0126616Y0133050D01*
X0132241Y0127425D01*
X0133491Y0134925D02*
X0121616Y0146800D01*
X0150366Y0152425D02*
X0150366Y0130550D01*
X0094371Y0123300D02*
X0094116Y0123675D01*
X0084741Y0133050D01*
X0094371Y0123300D02*
X0094116Y0123050D01*
X0094116Y0110550D01*
X0072866Y0089300D01*
X0072866Y0080550D01*
X0079741Y0103675D02*
X0080341Y0103600D01*
X0079741Y0103675D02*
X0073491Y0109925D01*
X0073491Y0114925D01*
X0066616Y0114925D01*
X0066616Y0107425D01*
X0066491Y0106925D01*
X0066616Y0114925D02*
X0054741Y0114925D01*
X0048491Y0114925D01*
X0048341Y0114702D01*
X0073491Y0114925D02*
X0073491Y0123050D01*
X0073111Y0123300D01*
X0020991Y0054300D02*
X0015991Y0049300D01*
X0015491Y0048925D01*
X0172741Y0238800D02*
X0184741Y0240550D01*
X0182866Y0240550D01*
X0365741Y0166800D02*
X0389741Y0166800D01*
D33*
X0389741Y0166800D03*
X0365741Y0166800D03*
X0353741Y0182800D03*
X0389741Y0198800D03*
X0375741Y0240800D03*
X0282741Y0240800D03*
X0272241Y0183675D03*
X0277866Y0180550D03*
X0235366Y0151800D03*
X0228491Y0153675D03*
X0214741Y0166800D03*
X0211616Y0170550D03*
X0213491Y0177425D03*
X0203741Y0178800D03*
X0199741Y0166175D03*
X0150366Y0130550D03*
X0133491Y0134925D03*
X0129116Y0134925D03*
X0132241Y0127425D03*
X0132241Y0122425D03*
X0144116Y0116175D03*
X0166616Y0113050D03*
X0121616Y0146800D03*
X0104741Y0145550D03*
X0105366Y0158675D03*
X0114741Y0161800D03*
X0105991Y0168675D03*
X0105491Y0179925D03*
X0128491Y0189925D03*
X0103491Y0199300D03*
X0081616Y0206175D03*
X0063491Y0194925D03*
X0019491Y0173925D03*
X0065991Y0162425D03*
X0075991Y0159300D03*
X0084741Y0133050D03*
X0066491Y0106925D03*
X0024491Y0108925D03*
X0072866Y0068050D03*
X0103491Y0081925D03*
X0117241Y0036175D03*
X0078491Y0037925D03*
X0050991Y0023675D03*
X0015491Y0048925D03*
X0178741Y0065800D03*
X0217241Y0073675D03*
X0243741Y0070800D03*
X0260741Y0065800D03*
X0280541Y0083600D03*
X0268741Y0095800D03*
X0254741Y0103675D03*
X0241041Y0112800D03*
X0236541Y0116400D03*
X0237341Y0107600D03*
X0223491Y0098050D03*
X0221616Y0116800D03*
X0228941Y0122800D03*
X0239741Y0129300D03*
X0256741Y0126800D03*
X0262241Y0118675D03*
X0285741Y0126800D03*
X0304141Y0124400D03*
X0306741Y0131800D03*
X0311741Y0122400D03*
X0305991Y0107425D03*
X0341616Y0076800D03*
X0377741Y0090800D03*
X0361741Y0118800D03*
X0341741Y0142800D03*
X0255991Y0137425D03*
X0302741Y0061800D03*
X0265741Y0010800D03*
X0181741Y0010800D03*
X0353741Y0010800D03*
X0385741Y0050800D03*
X0172741Y0238800D03*
X0063491Y0232925D03*
D34*
X0008739Y0246401D02*
X0008643Y0007400D01*
X0063417Y0007400D01*
X0063417Y0011050D01*
X0042663Y0011050D01*
X0041491Y0012222D01*
X0028366Y0025347D01*
X0028366Y0043063D01*
X0026720Y0043063D01*
X0025783Y0044000D01*
X0025783Y0052300D01*
X0021819Y0052300D01*
X0018691Y0049172D01*
X0018691Y0048288D01*
X0018204Y0047112D01*
X0017304Y0046212D01*
X0016128Y0045725D01*
X0014854Y0045725D01*
X0013678Y0046212D01*
X0012778Y0047112D01*
X0012291Y0048288D01*
X0012291Y0049562D01*
X0012778Y0050738D01*
X0013678Y0051638D01*
X0014854Y0052125D01*
X0015988Y0052125D01*
X0018991Y0055128D01*
X0020163Y0056300D01*
X0040241Y0056300D01*
X0040241Y0106675D01*
X0026766Y0106675D01*
X0026304Y0106212D01*
X0025128Y0105725D01*
X0023854Y0105725D01*
X0022678Y0106212D01*
X0021778Y0107112D01*
X0021291Y0108288D01*
X0021291Y0109562D01*
X0021778Y0110738D01*
X0022678Y0111638D01*
X0023854Y0112125D01*
X0025128Y0112125D01*
X0026304Y0111638D01*
X0027204Y0110738D01*
X0027230Y0110675D01*
X0040601Y0110675D01*
X0039710Y0111566D01*
X0038867Y0113601D01*
X0038867Y0115804D01*
X0039710Y0117839D01*
X0041268Y0119396D01*
X0043303Y0120239D01*
X0046598Y0120239D01*
X0040768Y0126070D01*
X0039666Y0124969D01*
X0037631Y0124126D01*
X0035429Y0124126D01*
X0033394Y0124969D01*
X0031836Y0126527D01*
X0030993Y0128562D01*
X0030993Y0138638D01*
X0031836Y0140673D01*
X0033394Y0142231D01*
X0035429Y0143074D01*
X0037631Y0143074D01*
X0039666Y0142231D01*
X0041224Y0140673D01*
X0042067Y0138638D01*
X0042067Y0130427D01*
X0052255Y0120239D01*
X0053379Y0120239D01*
X0055414Y0119396D01*
X0056972Y0117839D01*
X0057351Y0116925D01*
X0071491Y0116925D01*
X0071491Y0118550D01*
X0065559Y0118550D01*
X0064621Y0119488D01*
X0064621Y0125908D01*
X0063682Y0124969D01*
X0061647Y0124126D01*
X0059444Y0124126D01*
X0057409Y0124969D01*
X0055852Y0126527D01*
X0055009Y0128562D01*
X0055009Y0138638D01*
X0055852Y0140673D01*
X0057409Y0142231D01*
X0059444Y0143074D01*
X0061647Y0143074D01*
X0063682Y0142231D01*
X0063991Y0141922D01*
X0063991Y0159900D01*
X0063278Y0160612D01*
X0062791Y0161788D01*
X0062791Y0163062D01*
X0063278Y0164238D01*
X0064178Y0165138D01*
X0065354Y0165625D01*
X0066628Y0165625D01*
X0067804Y0165138D01*
X0068704Y0164238D01*
X0069191Y0163062D01*
X0069191Y0161788D01*
X0068704Y0160612D01*
X0067991Y0159900D01*
X0067991Y0137847D01*
X0066083Y0135938D01*
X0066083Y0128562D01*
X0065871Y0128050D01*
X0080664Y0128050D01*
X0081601Y0127112D01*
X0081601Y0119488D01*
X0080664Y0118550D01*
X0075491Y0118550D01*
X0075491Y0110753D01*
X0078219Y0108025D01*
X0079366Y0108500D01*
X0081316Y0108500D01*
X0083117Y0107754D01*
X0084495Y0106376D01*
X0085241Y0104575D01*
X0085241Y0104503D01*
X0092116Y0111378D01*
X0092116Y0118550D01*
X0086818Y0118550D01*
X0085881Y0119488D01*
X0085881Y0127112D01*
X0086818Y0128050D01*
X0086913Y0128050D01*
X0085113Y0129850D01*
X0084104Y0129850D01*
X0082928Y0130337D01*
X0082028Y0131237D01*
X0081541Y0132413D01*
X0081541Y0133687D01*
X0082028Y0134863D01*
X0082928Y0135763D01*
X0084104Y0136250D01*
X0085378Y0136250D01*
X0086554Y0135763D01*
X0087454Y0134863D01*
X0087941Y0133687D01*
X0087941Y0132678D01*
X0092570Y0128050D01*
X0101923Y0128050D01*
X0102861Y0127112D01*
X0102861Y0119488D01*
X0101923Y0118550D01*
X0096116Y0118550D01*
X0096116Y0109722D01*
X0094944Y0108550D01*
X0074866Y0088472D01*
X0074866Y0081378D01*
X0116869Y0039375D01*
X0117878Y0039375D01*
X0119054Y0038888D01*
X0119954Y0037988D01*
X0120441Y0036812D01*
X0120441Y0035538D01*
X0119954Y0034362D01*
X0119054Y0033462D01*
X0117878Y0032975D01*
X0116604Y0032975D01*
X0115428Y0033462D01*
X0114528Y0034362D01*
X0114041Y0035538D01*
X0114041Y0036547D01*
X0084695Y0065892D01*
X0085241Y0064575D01*
X0085241Y0062625D01*
X0084495Y0060824D01*
X0083658Y0059987D01*
X0087727Y0059987D01*
X0088665Y0059050D01*
X0088665Y0045520D01*
X0087727Y0044583D01*
X0064355Y0044583D01*
X0063417Y0045520D01*
X0063417Y0059050D01*
X0064355Y0059987D01*
X0077024Y0059987D01*
X0076187Y0060824D01*
X0075441Y0062625D01*
X0075441Y0064575D01*
X0076187Y0066376D01*
X0077565Y0067754D01*
X0079366Y0068500D01*
X0081316Y0068500D01*
X0082633Y0067954D01*
X0074866Y0075722D01*
X0074866Y0070575D01*
X0075579Y0069863D01*
X0076066Y0068687D01*
X0076066Y0067413D01*
X0075579Y0066237D01*
X0074679Y0065337D01*
X0073503Y0064850D01*
X0072229Y0064850D01*
X0071053Y0065337D01*
X0070153Y0066237D01*
X0069666Y0067413D01*
X0069666Y0068687D01*
X0070153Y0069863D01*
X0070866Y0070575D01*
X0070866Y0090128D01*
X0079438Y0098700D01*
X0079366Y0098700D01*
X0077565Y0099446D01*
X0076187Y0100824D01*
X0075441Y0102625D01*
X0075441Y0104575D01*
X0075609Y0104979D01*
X0071491Y0109097D01*
X0071491Y0112925D01*
X0068616Y0112925D01*
X0068616Y0109325D01*
X0069204Y0108738D01*
X0069691Y0107562D01*
X0069691Y0106288D01*
X0069204Y0105112D01*
X0068304Y0104212D01*
X0067128Y0103725D01*
X0065854Y0103725D01*
X0064678Y0104212D01*
X0063778Y0105112D01*
X0063291Y0106288D01*
X0063291Y0107562D01*
X0063778Y0108738D01*
X0064616Y0109575D01*
X0064616Y0112925D01*
X0057535Y0112925D01*
X0056972Y0111566D01*
X0055414Y0110008D01*
X0053379Y0109165D01*
X0045560Y0109165D01*
X0044241Y0107847D01*
X0044241Y0054137D01*
X0045762Y0054137D01*
X0046699Y0053200D01*
X0046699Y0044000D01*
X0045762Y0043063D01*
X0043616Y0043063D01*
X0043616Y0040058D01*
X0046241Y0040058D01*
X0047178Y0039121D01*
X0047178Y0031890D01*
X0046241Y0030953D01*
X0037041Y0030953D01*
X0036104Y0031890D01*
X0036104Y0039121D01*
X0037041Y0040058D01*
X0039616Y0040058D01*
X0039616Y0043063D01*
X0038531Y0043063D01*
X0037594Y0044000D01*
X0037594Y0052300D01*
X0034888Y0052300D01*
X0034888Y0044000D01*
X0033951Y0043063D01*
X0032366Y0043063D01*
X0032366Y0027003D01*
X0036104Y0023265D01*
X0036104Y0027310D01*
X0037041Y0028247D01*
X0046241Y0028247D01*
X0047178Y0027310D01*
X0047178Y0025675D01*
X0048466Y0025675D01*
X0049178Y0026388D01*
X0050354Y0026875D01*
X0051628Y0026875D01*
X0052804Y0026388D01*
X0053704Y0025488D01*
X0054191Y0024312D01*
X0054191Y0023038D01*
X0053704Y0021862D01*
X0052804Y0020962D01*
X0051628Y0020475D01*
X0050354Y0020475D01*
X0049178Y0020962D01*
X0048466Y0021675D01*
X0047178Y0021675D01*
X0047178Y0020079D01*
X0046241Y0019142D01*
X0040228Y0019142D01*
X0044319Y0015050D01*
X0063417Y0015050D01*
X0063417Y0019680D01*
X0064355Y0020617D01*
X0087727Y0020617D01*
X0088665Y0019680D01*
X0088665Y0015050D01*
X0123288Y0015050D01*
X0132791Y0024553D01*
X0132791Y0030390D01*
X0133491Y0032081D01*
X0134785Y0033375D01*
X0135241Y0033563D01*
X0135241Y0051597D01*
X0130946Y0055892D01*
X0128793Y0055000D01*
X0125689Y0055000D01*
X0122823Y0056187D01*
X0120628Y0058382D01*
X0119441Y0061248D01*
X0119441Y0064352D01*
X0120628Y0067218D01*
X0122823Y0069413D01*
X0125689Y0070600D01*
X0128793Y0070600D01*
X0131659Y0069413D01*
X0133854Y0067218D01*
X0135041Y0064352D01*
X0135041Y0061248D01*
X0133929Y0058565D01*
X0139241Y0053253D01*
X0139241Y0033688D01*
X0139997Y0033375D01*
X0141291Y0032081D01*
X0141991Y0030390D01*
X0141991Y0022560D01*
X0141291Y0020869D01*
X0139997Y0019575D01*
X0138306Y0018875D01*
X0136476Y0018875D01*
X0134785Y0019575D01*
X0134128Y0020233D01*
X0124944Y0011050D01*
X0088665Y0011050D01*
X0088665Y0007400D01*
X0392464Y0007400D01*
X0392528Y0165166D01*
X0392454Y0164987D01*
X0391554Y0164087D01*
X0390378Y0163600D01*
X0389104Y0163600D01*
X0387928Y0164087D01*
X0387216Y0164800D01*
X0368266Y0164800D01*
X0367554Y0164087D01*
X0366378Y0163600D01*
X0365104Y0163600D01*
X0363928Y0164087D01*
X0363028Y0164987D01*
X0362541Y0166163D01*
X0362541Y0167437D01*
X0363028Y0168613D01*
X0363928Y0169513D01*
X0365104Y0170000D01*
X0366378Y0170000D01*
X0367554Y0169513D01*
X0368266Y0168800D01*
X0387216Y0168800D01*
X0387928Y0169513D01*
X0389104Y0170000D01*
X0390378Y0170000D01*
X0391554Y0169513D01*
X0392454Y0168613D01*
X0392529Y0168431D01*
X0392541Y0197197D01*
X0392454Y0196987D01*
X0391554Y0196087D01*
X0390378Y0195600D01*
X0389104Y0195600D01*
X0387928Y0196087D01*
X0387028Y0196987D01*
X0386541Y0198163D01*
X0386541Y0199437D01*
X0387028Y0200613D01*
X0387928Y0201513D01*
X0389104Y0202000D01*
X0390378Y0202000D01*
X0391554Y0201513D01*
X0392454Y0200613D01*
X0392542Y0200400D01*
X0392560Y0246401D01*
X0008739Y0246401D01*
X0008738Y0244867D02*
X0113104Y0244867D01*
X0113913Y0245675D02*
X0075163Y0206925D01*
X0073991Y0205753D01*
X0073991Y0161825D01*
X0073278Y0161113D01*
X0072791Y0159937D01*
X0072791Y0158663D01*
X0073278Y0157487D01*
X0074178Y0156587D01*
X0075354Y0156100D01*
X0076628Y0156100D01*
X0077804Y0156587D01*
X0078704Y0157487D01*
X0079191Y0158663D01*
X0079191Y0159937D01*
X0078704Y0161113D01*
X0077991Y0161825D01*
X0077991Y0204097D01*
X0078714Y0204819D01*
X0078903Y0204362D01*
X0079803Y0203462D01*
X0080979Y0202975D01*
X0082253Y0202975D01*
X0082741Y0203177D01*
X0082741Y0147847D01*
X0083913Y0146675D01*
X0110163Y0120425D01*
X0129716Y0120425D01*
X0130428Y0119712D01*
X0131604Y0119225D01*
X0132878Y0119225D01*
X0134054Y0119712D01*
X0134954Y0120612D01*
X0135441Y0121788D01*
X0135441Y0123062D01*
X0134954Y0124238D01*
X0134266Y0124925D01*
X0134954Y0125612D01*
X0135326Y0126511D01*
X0142760Y0119077D01*
X0142303Y0118888D01*
X0141403Y0117988D01*
X0140916Y0116812D01*
X0140916Y0115538D01*
X0141403Y0114362D01*
X0142303Y0113462D01*
X0143479Y0112975D01*
X0144488Y0112975D01*
X0145241Y0112222D01*
X0145241Y0033563D01*
X0144785Y0033375D01*
X0143491Y0032081D01*
X0142791Y0030390D01*
X0142791Y0022560D01*
X0143491Y0020869D01*
X0144785Y0019575D01*
X0146476Y0018875D01*
X0148306Y0018875D01*
X0149997Y0019575D01*
X0151291Y0020869D01*
X0151991Y0022560D01*
X0151991Y0030390D01*
X0151291Y0032081D01*
X0149997Y0033375D01*
X0149241Y0033688D01*
X0149241Y0112597D01*
X0182741Y0079097D01*
X0183913Y0077925D01*
X0194845Y0077925D01*
X0194845Y0071548D01*
X0195578Y0070815D01*
X0194696Y0071180D01*
X0192866Y0071180D01*
X0191175Y0070480D01*
X0189881Y0069186D01*
X0189181Y0067495D01*
X0189181Y0059665D01*
X0189881Y0057974D01*
X0191175Y0056680D01*
X0192866Y0055980D01*
X0194696Y0055980D01*
X0196387Y0056680D01*
X0197681Y0057974D01*
X0198381Y0059665D01*
X0198381Y0061675D01*
X0199319Y0061675D01*
X0200491Y0062847D01*
X0200491Y0070610D01*
X0202226Y0070610D01*
X0202941Y0071326D01*
X0203656Y0070610D01*
X0205241Y0070610D01*
X0205241Y0062847D01*
X0206413Y0061675D01*
X0206981Y0061675D01*
X0206981Y0059665D01*
X0207681Y0057974D01*
X0208975Y0056680D01*
X0210666Y0055980D01*
X0212496Y0055980D01*
X0214187Y0056680D01*
X0215241Y0057735D01*
X0215241Y0055972D01*
X0237138Y0034075D01*
X0236476Y0034075D01*
X0234785Y0033375D01*
X0233491Y0032081D01*
X0232791Y0030390D01*
X0232791Y0022560D01*
X0233491Y0020869D01*
X0234785Y0019575D01*
X0236476Y0018875D01*
X0238306Y0018875D01*
X0239997Y0019575D01*
X0241291Y0020869D01*
X0241991Y0022560D01*
X0241991Y0029222D01*
X0242791Y0028422D01*
X0242791Y0022560D01*
X0243491Y0020869D01*
X0244785Y0019575D01*
X0246476Y0018875D01*
X0248306Y0018875D01*
X0249997Y0019575D01*
X0251291Y0020869D01*
X0251991Y0022560D01*
X0251991Y0030390D01*
X0251291Y0032081D01*
X0249997Y0033375D01*
X0248306Y0034075D01*
X0246476Y0034075D01*
X0244785Y0033375D01*
X0244140Y0032729D01*
X0219241Y0057628D01*
X0219241Y0071150D01*
X0219954Y0071862D01*
X0220441Y0073038D01*
X0220441Y0074312D01*
X0219954Y0075488D01*
X0219054Y0076388D01*
X0217878Y0076875D01*
X0216604Y0076875D01*
X0215428Y0076388D01*
X0214528Y0075488D01*
X0214041Y0074312D01*
X0214041Y0073038D01*
X0214528Y0071862D01*
X0215241Y0071150D01*
X0215241Y0069425D01*
X0214187Y0070480D01*
X0212496Y0071180D01*
X0210669Y0071180D01*
X0211037Y0071548D01*
X0211037Y0079172D01*
X0210409Y0079800D01*
X0232038Y0079800D01*
X0240541Y0071297D01*
X0240541Y0070163D01*
X0241028Y0068987D01*
X0241928Y0068087D01*
X0243104Y0067600D01*
X0244378Y0067600D01*
X0245554Y0068087D01*
X0246016Y0068550D01*
X0255163Y0068550D01*
X0257541Y0066172D01*
X0257541Y0065163D01*
X0258028Y0063987D01*
X0258928Y0063087D01*
X0259616Y0062802D01*
X0259616Y0033532D01*
X0258306Y0034075D01*
X0256476Y0034075D01*
X0254785Y0033375D01*
X0253491Y0032081D01*
X0252791Y0030390D01*
X0252791Y0022560D01*
X0253491Y0020869D01*
X0254785Y0019575D01*
X0256476Y0018875D01*
X0258306Y0018875D01*
X0259997Y0019575D01*
X0261129Y0020708D01*
X0263366Y0018472D01*
X0263366Y0012950D01*
X0263028Y0012613D01*
X0262541Y0011437D01*
X0262541Y0010163D01*
X0263028Y0008987D01*
X0263928Y0008087D01*
X0265104Y0007600D01*
X0266378Y0007600D01*
X0267554Y0008087D01*
X0268454Y0008987D01*
X0268941Y0010163D01*
X0268941Y0011437D01*
X0268454Y0012613D01*
X0267554Y0013513D01*
X0267366Y0013591D01*
X0267366Y0018875D01*
X0268306Y0018875D01*
X0269997Y0019575D01*
X0271291Y0020869D01*
X0271991Y0022560D01*
X0271991Y0030390D01*
X0271291Y0032081D01*
X0269997Y0033375D01*
X0268306Y0034075D01*
X0266476Y0034075D01*
X0264785Y0033375D01*
X0263616Y0032205D01*
X0263616Y0059800D01*
X0300216Y0059800D01*
X0300928Y0059087D01*
X0302104Y0058600D01*
X0303378Y0058600D01*
X0304554Y0059087D01*
X0305454Y0059987D01*
X0305941Y0061163D01*
X0305941Y0062437D01*
X0305454Y0063613D01*
X0304554Y0064513D01*
X0303378Y0065000D01*
X0302104Y0065000D01*
X0300928Y0064513D01*
X0300216Y0063800D01*
X0263616Y0063800D01*
X0263616Y0064379D01*
X0263941Y0065163D01*
X0263941Y0066437D01*
X0263454Y0067613D01*
X0262554Y0068513D01*
X0261378Y0069000D01*
X0260369Y0069000D01*
X0256819Y0072550D01*
X0246480Y0072550D01*
X0246454Y0072613D01*
X0245554Y0073513D01*
X0244378Y0074000D01*
X0243494Y0074000D01*
X0234866Y0082628D01*
X0233694Y0083800D01*
X0215574Y0083800D01*
X0216181Y0085265D01*
X0216181Y0092287D01*
X0219944Y0096050D01*
X0220966Y0096050D01*
X0221678Y0095337D01*
X0222854Y0094850D01*
X0224128Y0094850D01*
X0225304Y0095337D01*
X0226204Y0096237D01*
X0226691Y0097413D01*
X0226691Y0098687D01*
X0226204Y0099863D01*
X0225304Y0100763D01*
X0224128Y0101250D01*
X0222854Y0101250D01*
X0221678Y0100763D01*
X0220966Y0100050D01*
X0218288Y0100050D01*
X0214252Y0096014D01*
X0214187Y0096080D01*
X0212496Y0096780D01*
X0210666Y0096780D01*
X0208975Y0096080D01*
X0207681Y0094786D01*
X0206981Y0093095D01*
X0206981Y0085265D01*
X0207588Y0083800D01*
X0201819Y0083800D01*
X0198381Y0087238D01*
X0198381Y0093095D01*
X0197681Y0094786D01*
X0196387Y0096080D01*
X0195830Y0096310D01*
X0200350Y0100830D01*
X0205586Y0100830D01*
X0206301Y0101546D01*
X0207016Y0100830D01*
X0213460Y0100830D01*
X0214397Y0101768D01*
X0214397Y0108516D01*
X0217313Y0105600D01*
X0234816Y0105600D01*
X0235528Y0104887D01*
X0236704Y0104400D01*
X0237978Y0104400D01*
X0239154Y0104887D01*
X0240054Y0105787D01*
X0240133Y0105979D01*
X0250541Y0095572D01*
X0250541Y0079172D01*
X0254913Y0074800D01*
X0282569Y0074800D01*
X0283741Y0075972D01*
X0303741Y0095972D01*
X0303741Y0105150D01*
X0303991Y0104900D01*
X0303991Y0089097D01*
X0340866Y0052222D01*
X0342038Y0051050D01*
X0354944Y0051050D01*
X0358428Y0054533D01*
X0359102Y0053859D01*
X0360646Y0053220D01*
X0362316Y0053220D01*
X0363860Y0053859D01*
X0365042Y0055041D01*
X0365681Y0056585D01*
X0365681Y0061787D01*
X0367444Y0063550D01*
X0377428Y0063550D01*
X0377428Y0062538D01*
X0378366Y0061601D01*
X0385596Y0061601D01*
X0386534Y0062538D01*
X0386534Y0068982D01*
X0386015Y0069500D01*
X0386534Y0070018D01*
X0386534Y0076462D01*
X0385596Y0077399D01*
X0379866Y0077399D01*
X0379866Y0088400D01*
X0380454Y0088987D01*
X0380941Y0090163D01*
X0380941Y0091437D01*
X0380454Y0092613D01*
X0379554Y0093513D01*
X0378378Y0094000D01*
X0377104Y0094000D01*
X0375928Y0093513D01*
X0375028Y0092613D01*
X0374541Y0091437D01*
X0374541Y0090163D01*
X0375028Y0088987D01*
X0375866Y0088150D01*
X0375866Y0071925D01*
X0349241Y0071925D01*
X0349241Y0083802D01*
X0350646Y0083220D01*
X0352316Y0083220D01*
X0353860Y0083859D01*
X0355042Y0085041D01*
X0355681Y0086585D01*
X0355681Y0093455D01*
X0355042Y0094999D01*
X0353860Y0096181D01*
X0352991Y0096541D01*
X0352991Y0115128D01*
X0352069Y0116050D01*
X0360018Y0116050D01*
X0361104Y0115600D01*
X0362378Y0115600D01*
X0363464Y0116050D01*
X0374711Y0116050D01*
X0374941Y0115494D01*
X0376235Y0114200D01*
X0377926Y0113500D01*
X0385756Y0113500D01*
X0387447Y0114200D01*
X0388741Y0115494D01*
X0389441Y0117185D01*
X0389441Y0119015D01*
X0388741Y0120706D01*
X0387447Y0122000D01*
X0385756Y0122700D01*
X0377926Y0122700D01*
X0376235Y0122000D01*
X0374941Y0120706D01*
X0374670Y0120050D01*
X0364687Y0120050D01*
X0364454Y0120613D01*
X0363554Y0121513D01*
X0362378Y0122000D01*
X0361104Y0122000D01*
X0359928Y0121513D01*
X0359028Y0120613D01*
X0358795Y0120050D01*
X0348288Y0120050D01*
X0342663Y0114425D01*
X0334478Y0114425D01*
X0334478Y0118681D01*
X0333541Y0119618D01*
X0327251Y0119618D01*
X0320194Y0126675D01*
X0342842Y0126675D01*
X0342842Y0124884D01*
X0343779Y0123947D01*
X0350223Y0123947D01*
X0350741Y0124466D01*
X0351259Y0123947D01*
X0357703Y0123947D01*
X0358640Y0124884D01*
X0358640Y0126675D01*
X0374452Y0126675D01*
X0374941Y0125494D01*
X0376235Y0124200D01*
X0377926Y0123500D01*
X0385756Y0123500D01*
X0387447Y0124200D01*
X0388741Y0125494D01*
X0389441Y0127185D01*
X0389441Y0129015D01*
X0388741Y0130706D01*
X0387447Y0132000D01*
X0385756Y0132700D01*
X0377926Y0132700D01*
X0376235Y0132000D01*
X0374941Y0130706D01*
X0374929Y0130675D01*
X0358640Y0130675D01*
X0358640Y0132115D01*
X0357703Y0133053D01*
X0351259Y0133053D01*
X0350741Y0132534D01*
X0350223Y0133053D01*
X0343779Y0133053D01*
X0342842Y0132115D01*
X0342842Y0130675D01*
X0321194Y0130675D01*
X0302069Y0149800D01*
X0345542Y0149800D01*
X0345542Y0148084D01*
X0346479Y0147147D01*
X0352923Y0147147D01*
X0353441Y0147666D01*
X0353959Y0147147D01*
X0360403Y0147147D01*
X0361340Y0148084D01*
X0361340Y0149175D01*
X0368288Y0149175D01*
X0375849Y0141613D01*
X0374941Y0140706D01*
X0374241Y0139015D01*
X0374241Y0137185D01*
X0374941Y0135494D01*
X0376235Y0134200D01*
X0377926Y0133500D01*
X0385756Y0133500D01*
X0387447Y0134200D01*
X0388741Y0135494D01*
X0389441Y0137185D01*
X0389441Y0139015D01*
X0388741Y0140706D01*
X0387447Y0142000D01*
X0385756Y0142700D01*
X0380419Y0142700D01*
X0369944Y0153175D01*
X0361340Y0153175D01*
X0361340Y0155315D01*
X0360403Y0156253D01*
X0353959Y0156253D01*
X0353441Y0155734D01*
X0352923Y0156253D01*
X0346479Y0156253D01*
X0345542Y0155315D01*
X0345542Y0153800D01*
X0303616Y0153800D01*
X0303616Y0184503D01*
X0302444Y0185675D01*
X0274766Y0185675D01*
X0274054Y0186388D01*
X0272878Y0186875D01*
X0271604Y0186875D01*
X0271246Y0186726D01*
X0302444Y0217925D01*
X0370569Y0217925D01*
X0374087Y0221443D01*
X0374770Y0220760D01*
X0376461Y0220060D01*
X0378291Y0220060D01*
X0379982Y0220760D01*
X0381276Y0222054D01*
X0381976Y0223745D01*
X0381976Y0229237D01*
X0382776Y0228437D01*
X0382776Y0223745D01*
X0383476Y0222054D01*
X0384770Y0220760D01*
X0386461Y0220060D01*
X0388291Y0220060D01*
X0389982Y0220760D01*
X0391276Y0222054D01*
X0391976Y0223745D01*
X0391976Y0231575D01*
X0391276Y0233266D01*
X0389982Y0234560D01*
X0388291Y0235260D01*
X0386461Y0235260D01*
X0384770Y0234560D01*
X0383540Y0233329D01*
X0381116Y0235753D01*
X0381116Y0235753D01*
X0379944Y0236925D01*
X0195569Y0236925D01*
X0187991Y0244503D01*
X0186819Y0245675D01*
X0113913Y0245675D01*
X0111506Y0243268D02*
X0008738Y0243268D01*
X0008737Y0241670D02*
X0109907Y0241670D01*
X0108309Y0240071D02*
X0008736Y0240071D01*
X0008736Y0238472D02*
X0106710Y0238472D01*
X0105112Y0236874D02*
X0008735Y0236874D01*
X0008735Y0235275D02*
X0061316Y0235275D01*
X0061678Y0235638D02*
X0060778Y0234738D01*
X0060291Y0233562D01*
X0060291Y0232288D01*
X0060778Y0231112D01*
X0061491Y0230400D01*
X0061491Y0197450D01*
X0060778Y0196738D01*
X0060291Y0195562D01*
X0060291Y0194288D01*
X0060778Y0193112D01*
X0061678Y0192212D01*
X0062854Y0191725D01*
X0064128Y0191725D01*
X0065304Y0192212D01*
X0066204Y0193112D01*
X0066691Y0194288D01*
X0066691Y0195562D01*
X0066204Y0196738D01*
X0065491Y0197450D01*
X0065491Y0230400D01*
X0066204Y0231112D01*
X0066691Y0232288D01*
X0066691Y0233562D01*
X0066204Y0234738D01*
X0065304Y0235638D01*
X0064128Y0236125D01*
X0062854Y0236125D01*
X0061678Y0235638D01*
X0060339Y0233677D02*
X0008734Y0233677D01*
X0008733Y0232078D02*
X0060378Y0232078D01*
X0061411Y0230480D02*
X0008733Y0230480D01*
X0008732Y0228881D02*
X0061491Y0228881D01*
X0061491Y0227283D02*
X0008731Y0227283D01*
X0008731Y0225684D02*
X0031470Y0225684D01*
X0031618Y0225833D02*
X0029770Y0223984D01*
X0028769Y0221569D01*
X0028769Y0218954D01*
X0029770Y0216539D01*
X0031618Y0214690D01*
X0034034Y0213690D01*
X0036648Y0213690D01*
X0039064Y0214690D01*
X0040912Y0216539D01*
X0041913Y0218954D01*
X0041913Y0221569D01*
X0040912Y0223984D01*
X0039064Y0225833D01*
X0036648Y0226833D01*
X0034034Y0226833D01*
X0031618Y0225833D01*
X0029872Y0224086D02*
X0008730Y0224086D01*
X0008729Y0222487D02*
X0029150Y0222487D01*
X0028769Y0220889D02*
X0008729Y0220889D01*
X0008728Y0219290D02*
X0028769Y0219290D01*
X0029292Y0217692D02*
X0008727Y0217692D01*
X0008727Y0216093D02*
X0030215Y0216093D01*
X0032090Y0214495D02*
X0008726Y0214495D01*
X0008726Y0212896D02*
X0061491Y0212896D01*
X0061491Y0211298D02*
X0008725Y0211298D01*
X0008724Y0209699D02*
X0061491Y0209699D01*
X0061491Y0208101D02*
X0039473Y0208101D01*
X0039064Y0208510D02*
X0036648Y0209510D01*
X0034034Y0209510D01*
X0031618Y0208510D01*
X0029770Y0206661D01*
X0028769Y0204246D01*
X0028769Y0201631D01*
X0029770Y0199216D01*
X0031618Y0197367D01*
X0034034Y0196367D01*
X0036648Y0196367D01*
X0039064Y0197367D01*
X0040912Y0199216D01*
X0041913Y0201631D01*
X0041913Y0204246D01*
X0040912Y0206661D01*
X0039064Y0208510D01*
X0040978Y0206502D02*
X0061491Y0206502D01*
X0061491Y0204904D02*
X0041640Y0204904D01*
X0041913Y0203305D02*
X0061491Y0203305D01*
X0061491Y0201707D02*
X0041913Y0201707D01*
X0041282Y0200108D02*
X0061491Y0200108D01*
X0061491Y0198510D02*
X0040206Y0198510D01*
X0037962Y0196911D02*
X0060952Y0196911D01*
X0060291Y0195313D02*
X0008718Y0195313D01*
X0008719Y0196911D02*
X0032720Y0196911D01*
X0030476Y0198510D02*
X0008720Y0198510D01*
X0008720Y0200108D02*
X0029400Y0200108D01*
X0028769Y0201707D02*
X0008721Y0201707D01*
X0008722Y0203305D02*
X0028769Y0203305D01*
X0029042Y0204904D02*
X0008722Y0204904D01*
X0008723Y0206502D02*
X0029704Y0206502D01*
X0031209Y0208101D02*
X0008724Y0208101D01*
X0008718Y0193714D02*
X0060529Y0193714D01*
X0061911Y0192116D02*
X0008717Y0192116D01*
X0008717Y0190517D02*
X0073991Y0190517D01*
X0073991Y0188919D02*
X0008716Y0188919D01*
X0008715Y0187320D02*
X0073991Y0187320D01*
X0073991Y0185722D02*
X0008715Y0185722D01*
X0008714Y0184123D02*
X0073991Y0184123D01*
X0073991Y0182525D02*
X0008713Y0182525D01*
X0008713Y0180926D02*
X0073991Y0180926D01*
X0073991Y0179328D02*
X0008712Y0179328D01*
X0008711Y0177729D02*
X0073991Y0177729D01*
X0073991Y0176131D02*
X0021811Y0176131D01*
X0022204Y0175738D02*
X0021304Y0176638D01*
X0020128Y0177125D01*
X0018854Y0177125D01*
X0017678Y0176638D01*
X0016778Y0175738D01*
X0016291Y0174562D01*
X0016291Y0173288D01*
X0016778Y0172112D01*
X0017678Y0171212D01*
X0018854Y0170725D01*
X0020128Y0170725D01*
X0021304Y0171212D01*
X0022204Y0172112D01*
X0022691Y0173288D01*
X0022691Y0174562D01*
X0022204Y0175738D01*
X0022691Y0174532D02*
X0073991Y0174532D01*
X0073991Y0172934D02*
X0022544Y0172934D01*
X0021426Y0171335D02*
X0073991Y0171335D01*
X0073991Y0169737D02*
X0008708Y0169737D01*
X0008709Y0171335D02*
X0017555Y0171335D01*
X0016438Y0172934D02*
X0008709Y0172934D01*
X0008710Y0174532D02*
X0016291Y0174532D01*
X0017171Y0176131D02*
X0008711Y0176131D01*
X0008708Y0168138D02*
X0073991Y0168138D01*
X0073991Y0166539D02*
X0008707Y0166539D01*
X0008706Y0164941D02*
X0063981Y0164941D01*
X0062907Y0163342D02*
X0008706Y0163342D01*
X0008705Y0161744D02*
X0062809Y0161744D01*
X0063745Y0160145D02*
X0008704Y0160145D01*
X0008704Y0158547D02*
X0063991Y0158547D01*
X0063991Y0156948D02*
X0008703Y0156948D01*
X0008702Y0155350D02*
X0063991Y0155350D01*
X0063991Y0153751D02*
X0008702Y0153751D01*
X0008701Y0152153D02*
X0063991Y0152153D01*
X0063991Y0150554D02*
X0008700Y0150554D01*
X0008700Y0148956D02*
X0063991Y0148956D01*
X0063991Y0147357D02*
X0008699Y0147357D01*
X0008699Y0145759D02*
X0063991Y0145759D01*
X0063991Y0144160D02*
X0008698Y0144160D01*
X0008697Y0142562D02*
X0034192Y0142562D01*
X0032126Y0140963D02*
X0008697Y0140963D01*
X0008696Y0139365D02*
X0031294Y0139365D01*
X0030993Y0137766D02*
X0008695Y0137766D01*
X0008695Y0136168D02*
X0030993Y0136168D01*
X0030993Y0134569D02*
X0008694Y0134569D01*
X0008693Y0132971D02*
X0030993Y0132971D01*
X0030993Y0131372D02*
X0008693Y0131372D01*
X0008692Y0129774D02*
X0030993Y0129774D01*
X0031153Y0128175D02*
X0008691Y0128175D01*
X0008691Y0126577D02*
X0031815Y0126577D01*
X0033384Y0124978D02*
X0008690Y0124978D01*
X0008690Y0123380D02*
X0043458Y0123380D01*
X0041859Y0124978D02*
X0039676Y0124978D01*
X0044319Y0128175D02*
X0055169Y0128175D01*
X0055009Y0129774D02*
X0042721Y0129774D01*
X0042067Y0131372D02*
X0055009Y0131372D01*
X0055009Y0132971D02*
X0042067Y0132971D01*
X0042067Y0134569D02*
X0055009Y0134569D01*
X0055009Y0136168D02*
X0042067Y0136168D01*
X0042067Y0137766D02*
X0055009Y0137766D01*
X0055310Y0139365D02*
X0041766Y0139365D01*
X0040934Y0140963D02*
X0056142Y0140963D01*
X0058208Y0142562D02*
X0038868Y0142562D01*
X0062884Y0142562D02*
X0063991Y0142562D01*
X0067991Y0142562D02*
X0088026Y0142562D01*
X0089624Y0140963D02*
X0067991Y0140963D01*
X0067991Y0139365D02*
X0091223Y0139365D01*
X0092821Y0137766D02*
X0067911Y0137766D01*
X0066312Y0136168D02*
X0083906Y0136168D01*
X0085576Y0136168D02*
X0094420Y0136168D01*
X0096018Y0134569D02*
X0087575Y0134569D01*
X0087941Y0132971D02*
X0097617Y0132971D01*
X0099215Y0131372D02*
X0089247Y0131372D01*
X0090846Y0129774D02*
X0100814Y0129774D01*
X0102412Y0128175D02*
X0092444Y0128175D01*
X0086787Y0128175D02*
X0065923Y0128175D01*
X0066083Y0129774D02*
X0085189Y0129774D01*
X0081972Y0131372D02*
X0066083Y0131372D01*
X0066083Y0132971D02*
X0081541Y0132971D01*
X0081907Y0134569D02*
X0066083Y0134569D01*
X0067991Y0144160D02*
X0086427Y0144160D01*
X0084829Y0145759D02*
X0067991Y0145759D01*
X0067991Y0147357D02*
X0083230Y0147357D01*
X0082741Y0148956D02*
X0067991Y0148956D01*
X0067991Y0150554D02*
X0082741Y0150554D01*
X0082741Y0152153D02*
X0067991Y0152153D01*
X0067991Y0153751D02*
X0082741Y0153751D01*
X0082741Y0155350D02*
X0067991Y0155350D01*
X0067991Y0156948D02*
X0073817Y0156948D01*
X0072839Y0158547D02*
X0067991Y0158547D01*
X0068237Y0160145D02*
X0072878Y0160145D01*
X0073909Y0161744D02*
X0069173Y0161744D01*
X0069075Y0163342D02*
X0073991Y0163342D01*
X0073991Y0164941D02*
X0068000Y0164941D01*
X0077991Y0164941D02*
X0082741Y0164941D01*
X0082741Y0166539D02*
X0077991Y0166539D01*
X0077991Y0168138D02*
X0082741Y0168138D01*
X0082741Y0169737D02*
X0077991Y0169737D01*
X0077991Y0171335D02*
X0082741Y0171335D01*
X0082741Y0172934D02*
X0077991Y0172934D01*
X0077991Y0174532D02*
X0082741Y0174532D01*
X0082741Y0176131D02*
X0077991Y0176131D01*
X0077991Y0177729D02*
X0082741Y0177729D01*
X0082741Y0179328D02*
X0077991Y0179328D01*
X0077991Y0180926D02*
X0082741Y0180926D01*
X0082741Y0182525D02*
X0077991Y0182525D01*
X0077991Y0184123D02*
X0082741Y0184123D01*
X0082741Y0185722D02*
X0077991Y0185722D01*
X0077991Y0187320D02*
X0082741Y0187320D01*
X0082741Y0188919D02*
X0077991Y0188919D01*
X0077991Y0190517D02*
X0082741Y0190517D01*
X0082741Y0192116D02*
X0077991Y0192116D01*
X0077991Y0193714D02*
X0082741Y0193714D01*
X0082741Y0195313D02*
X0077991Y0195313D01*
X0077991Y0196911D02*
X0082741Y0196911D01*
X0082741Y0198510D02*
X0077991Y0198510D01*
X0077991Y0200108D02*
X0082741Y0200108D01*
X0082741Y0201707D02*
X0077991Y0201707D01*
X0077991Y0203305D02*
X0080182Y0203305D01*
X0076338Y0208101D02*
X0065491Y0208101D01*
X0065491Y0209699D02*
X0077937Y0209699D01*
X0079535Y0211298D02*
X0065491Y0211298D01*
X0065491Y0212896D02*
X0081134Y0212896D01*
X0082732Y0214495D02*
X0065491Y0214495D01*
X0065491Y0216093D02*
X0084331Y0216093D01*
X0085929Y0217692D02*
X0065491Y0217692D01*
X0065491Y0219290D02*
X0087528Y0219290D01*
X0089126Y0220889D02*
X0065491Y0220889D01*
X0065491Y0222487D02*
X0090725Y0222487D01*
X0092323Y0224086D02*
X0065491Y0224086D01*
X0065491Y0225684D02*
X0093922Y0225684D01*
X0095520Y0227283D02*
X0065491Y0227283D01*
X0065491Y0228881D02*
X0097119Y0228881D01*
X0098718Y0230480D02*
X0065571Y0230480D01*
X0066604Y0232078D02*
X0100316Y0232078D01*
X0101915Y0233677D02*
X0066643Y0233677D01*
X0065666Y0235275D02*
X0103513Y0235275D01*
X0105973Y0232078D02*
X0132985Y0232078D01*
X0132776Y0231575D02*
X0132776Y0225788D01*
X0112116Y0205128D01*
X0112038Y0205050D01*
X0099550Y0205050D01*
X0099550Y0208778D01*
X0098612Y0209715D01*
X0093744Y0209715D01*
X0092806Y0208778D01*
X0092806Y0208175D01*
X0084141Y0208175D01*
X0083429Y0208888D01*
X0082972Y0209077D01*
X0115569Y0241675D01*
X0148663Y0241675D01*
X0140764Y0233777D01*
X0139982Y0234560D01*
X0138291Y0235260D01*
X0136461Y0235260D01*
X0134770Y0234560D01*
X0133476Y0233266D01*
X0132776Y0231575D01*
X0132776Y0230480D02*
X0104374Y0230480D01*
X0102776Y0228881D02*
X0132776Y0228881D01*
X0132776Y0227283D02*
X0101177Y0227283D01*
X0099579Y0225684D02*
X0132672Y0225684D01*
X0131073Y0224086D02*
X0097980Y0224086D01*
X0096382Y0222487D02*
X0129475Y0222487D01*
X0127876Y0220889D02*
X0094783Y0220889D01*
X0093185Y0219290D02*
X0126278Y0219290D01*
X0124679Y0217692D02*
X0091586Y0217692D01*
X0089988Y0216093D02*
X0123081Y0216093D01*
X0121482Y0214495D02*
X0088389Y0214495D01*
X0086791Y0212896D02*
X0119884Y0212896D01*
X0118285Y0211298D02*
X0085192Y0211298D01*
X0083594Y0209699D02*
X0093728Y0209699D01*
X0098628Y0209699D02*
X0116687Y0209699D01*
X0115088Y0208101D02*
X0099550Y0208101D01*
X0099550Y0206502D02*
X0113490Y0206502D01*
X0112116Y0205128D02*
X0112116Y0205128D01*
X0114116Y0201472D02*
X0125291Y0190297D01*
X0125291Y0189288D01*
X0125778Y0188112D01*
X0126678Y0187212D01*
X0127854Y0186725D01*
X0129128Y0186725D01*
X0130304Y0187212D01*
X0131204Y0188112D01*
X0131691Y0189288D01*
X0131691Y0190562D01*
X0131204Y0191738D01*
X0130304Y0192638D01*
X0129128Y0193125D01*
X0128119Y0193125D01*
X0116944Y0204300D01*
X0134088Y0221443D01*
X0134770Y0220760D01*
X0136461Y0220060D01*
X0138291Y0220060D01*
X0139982Y0220760D01*
X0141276Y0222054D01*
X0141976Y0223745D01*
X0141976Y0229332D01*
X0142776Y0230132D01*
X0142776Y0223745D01*
X0143476Y0222054D01*
X0144770Y0220760D01*
X0146461Y0220060D01*
X0148291Y0220060D01*
X0149982Y0220760D01*
X0151276Y0222054D01*
X0151976Y0223745D01*
X0151976Y0231575D01*
X0151276Y0233266D01*
X0149982Y0234560D01*
X0148291Y0235260D01*
X0147904Y0235260D01*
X0151194Y0238550D01*
X0169541Y0238550D01*
X0169541Y0238163D01*
X0170028Y0236987D01*
X0170928Y0236087D01*
X0172104Y0235600D01*
X0173378Y0235600D01*
X0174554Y0236087D01*
X0175454Y0236987D01*
X0175536Y0237187D01*
X0180866Y0237964D01*
X0180866Y0233675D01*
X0179982Y0234560D01*
X0178291Y0235260D01*
X0176461Y0235260D01*
X0174770Y0234560D01*
X0173476Y0233266D01*
X0172776Y0231575D01*
X0172776Y0223745D01*
X0173476Y0222054D01*
X0174770Y0220760D01*
X0176461Y0220060D01*
X0178291Y0220060D01*
X0179982Y0220760D01*
X0180866Y0221645D01*
X0180866Y0199097D01*
X0200541Y0179422D01*
X0200541Y0178163D01*
X0201028Y0176987D01*
X0201491Y0176525D01*
X0201491Y0175128D01*
X0195788Y0169425D01*
X0194616Y0168253D01*
X0194616Y0162230D01*
X0193762Y0162230D01*
X0192825Y0161292D01*
X0192825Y0153668D01*
X0193762Y0152730D01*
X0193991Y0152730D01*
X0193991Y0142450D01*
X0192402Y0142450D01*
X0191465Y0141512D01*
X0191465Y0133888D01*
X0192402Y0132950D01*
X0193991Y0132950D01*
X0193991Y0121800D01*
X0193465Y0121800D01*
X0192068Y0121221D01*
X0190999Y0120153D01*
X0190421Y0118756D01*
X0190421Y0115050D01*
X0186331Y0115050D01*
X0186331Y0115659D01*
X0185393Y0116596D01*
X0177769Y0116596D01*
X0176831Y0115659D01*
X0176831Y0109215D01*
X0177547Y0108500D01*
X0176831Y0107785D01*
X0176831Y0101341D01*
X0177769Y0100404D01*
X0180809Y0100404D01*
X0188366Y0092847D01*
X0189181Y0092032D01*
X0189181Y0085265D01*
X0189881Y0083574D01*
X0191175Y0082280D01*
X0192033Y0081925D01*
X0185569Y0081925D01*
X0135288Y0132206D01*
X0135304Y0132212D01*
X0136204Y0133112D01*
X0136691Y0134288D01*
X0136691Y0135562D01*
X0136204Y0136738D01*
X0135304Y0137638D01*
X0134128Y0138125D01*
X0133119Y0138125D01*
X0124816Y0146428D01*
X0124816Y0147437D01*
X0124329Y0148613D01*
X0123429Y0149513D01*
X0122253Y0150000D01*
X0120979Y0150000D01*
X0119803Y0149513D01*
X0118903Y0148613D01*
X0118714Y0148156D01*
X0108566Y0158303D01*
X0108566Y0159312D01*
X0108079Y0160488D01*
X0107179Y0161388D01*
X0106003Y0161875D01*
X0104729Y0161875D01*
X0103553Y0161388D01*
X0102653Y0160488D01*
X0102166Y0159312D01*
X0102166Y0158038D01*
X0102653Y0156862D01*
X0103553Y0155962D01*
X0104729Y0155475D01*
X0105738Y0155475D01*
X0125916Y0135297D01*
X0125916Y0135050D01*
X0106741Y0135050D01*
X0106741Y0143025D01*
X0107454Y0143737D01*
X0107941Y0144913D01*
X0107941Y0146187D01*
X0107454Y0147363D01*
X0106554Y0148263D01*
X0105378Y0148750D01*
X0104104Y0148750D01*
X0102928Y0148263D01*
X0102028Y0147363D01*
X0101541Y0146187D01*
X0101541Y0144913D01*
X0102028Y0143737D01*
X0102741Y0143025D01*
X0102741Y0133503D01*
X0086741Y0149503D01*
X0086741Y0199625D01*
X0090738Y0199625D01*
X0091676Y0200562D01*
X0091676Y0201050D01*
X0092806Y0201050D01*
X0092806Y0196822D01*
X0093744Y0195885D01*
X0098612Y0195885D01*
X0099550Y0196822D01*
X0099550Y0197300D01*
X0100966Y0197300D01*
X0101678Y0196587D01*
X0102854Y0196100D01*
X0103863Y0196100D01*
X0148366Y0151597D01*
X0148366Y0133075D01*
X0147653Y0132363D01*
X0147464Y0131906D01*
X0117941Y0161428D01*
X0117941Y0162437D01*
X0117454Y0163613D01*
X0116554Y0164513D01*
X0115378Y0165000D01*
X0114104Y0165000D01*
X0112928Y0164513D01*
X0112028Y0163613D01*
X0111541Y0162437D01*
X0111541Y0161163D01*
X0112028Y0159987D01*
X0112928Y0159087D01*
X0114104Y0158600D01*
X0115113Y0158600D01*
X0162663Y0111050D01*
X0164091Y0111050D01*
X0164803Y0110337D01*
X0165979Y0109850D01*
X0167253Y0109850D01*
X0168429Y0110337D01*
X0169329Y0111237D01*
X0169816Y0112413D01*
X0169816Y0113687D01*
X0169329Y0114863D01*
X0168429Y0115763D01*
X0167253Y0116250D01*
X0165979Y0116250D01*
X0164803Y0115763D01*
X0164205Y0115164D01*
X0151722Y0127648D01*
X0152179Y0127837D01*
X0153079Y0128737D01*
X0153566Y0129913D01*
X0153566Y0131187D01*
X0153079Y0132363D01*
X0152366Y0133075D01*
X0152366Y0153253D01*
X0106691Y0198928D01*
X0106691Y0199937D01*
X0106230Y0201050D01*
X0113694Y0201050D01*
X0114116Y0201472D01*
X0115479Y0200108D02*
X0106620Y0200108D01*
X0107110Y0198510D02*
X0117078Y0198510D01*
X0118676Y0196911D02*
X0108708Y0196911D01*
X0110307Y0195313D02*
X0120275Y0195313D01*
X0121873Y0193714D02*
X0111905Y0193714D01*
X0113504Y0192116D02*
X0123472Y0192116D01*
X0125070Y0190517D02*
X0115102Y0190517D01*
X0116701Y0188919D02*
X0125444Y0188919D01*
X0126570Y0187320D02*
X0118299Y0187320D01*
X0119898Y0185722D02*
X0194241Y0185722D01*
X0192642Y0187320D02*
X0130412Y0187320D01*
X0131538Y0188919D02*
X0191044Y0188919D01*
X0189445Y0190517D02*
X0131691Y0190517D01*
X0130826Y0192116D02*
X0187847Y0192116D01*
X0186248Y0193714D02*
X0127530Y0193714D01*
X0125932Y0195313D02*
X0184650Y0195313D01*
X0183051Y0196911D02*
X0124333Y0196911D01*
X0122735Y0198510D02*
X0181453Y0198510D01*
X0180866Y0200108D02*
X0121136Y0200108D01*
X0119538Y0201707D02*
X0180866Y0201707D01*
X0180866Y0203305D02*
X0117939Y0203305D01*
X0117548Y0204904D02*
X0180866Y0204904D01*
X0180866Y0206502D02*
X0119147Y0206502D01*
X0120745Y0208101D02*
X0180866Y0208101D01*
X0180866Y0209699D02*
X0122344Y0209699D01*
X0123942Y0211298D02*
X0180866Y0211298D01*
X0180866Y0212896D02*
X0125541Y0212896D01*
X0127139Y0214495D02*
X0180866Y0214495D01*
X0180866Y0216093D02*
X0128738Y0216093D01*
X0130336Y0217692D02*
X0180866Y0217692D01*
X0180866Y0219290D02*
X0131935Y0219290D01*
X0133533Y0220889D02*
X0134642Y0220889D01*
X0140110Y0220889D02*
X0144642Y0220889D01*
X0143297Y0222487D02*
X0141455Y0222487D01*
X0141976Y0224086D02*
X0142776Y0224086D01*
X0142776Y0225684D02*
X0141976Y0225684D01*
X0141976Y0227283D02*
X0142776Y0227283D01*
X0142776Y0228881D02*
X0141976Y0228881D01*
X0142263Y0235275D02*
X0109170Y0235275D01*
X0107571Y0233677D02*
X0133888Y0233677D01*
X0143862Y0236874D02*
X0110768Y0236874D01*
X0112367Y0238472D02*
X0145460Y0238472D01*
X0147059Y0240071D02*
X0113965Y0240071D01*
X0115564Y0241670D02*
X0148657Y0241670D01*
X0151117Y0238472D02*
X0169541Y0238472D01*
X0170142Y0236874D02*
X0149518Y0236874D01*
X0147920Y0235275D02*
X0180866Y0235275D01*
X0180864Y0233677D02*
X0180866Y0233677D01*
X0180866Y0236874D02*
X0175340Y0236874D01*
X0173888Y0233677D02*
X0170864Y0233677D01*
X0171276Y0233266D02*
X0169982Y0234560D01*
X0168291Y0235260D01*
X0166461Y0235260D01*
X0164770Y0234560D01*
X0163476Y0233266D01*
X0162776Y0231575D01*
X0162776Y0223745D01*
X0163476Y0222054D01*
X0164770Y0220760D01*
X0166461Y0220060D01*
X0168291Y0220060D01*
X0169982Y0220760D01*
X0171276Y0222054D01*
X0171976Y0223745D01*
X0171976Y0231575D01*
X0171276Y0233266D01*
X0171767Y0232078D02*
X0172985Y0232078D01*
X0172776Y0230480D02*
X0171976Y0230480D01*
X0171976Y0228881D02*
X0172776Y0228881D01*
X0172776Y0227283D02*
X0171976Y0227283D01*
X0171976Y0225684D02*
X0172776Y0225684D01*
X0172776Y0224086D02*
X0171976Y0224086D01*
X0171455Y0222487D02*
X0173297Y0222487D01*
X0174642Y0220889D02*
X0170110Y0220889D01*
X0164642Y0220889D02*
X0160110Y0220889D01*
X0159982Y0220760D02*
X0161276Y0222054D01*
X0161976Y0223745D01*
X0161976Y0231575D01*
X0161276Y0233266D01*
X0159982Y0234560D01*
X0158291Y0235260D01*
X0156461Y0235260D01*
X0154770Y0234560D01*
X0153476Y0233266D01*
X0152776Y0231575D01*
X0152776Y0223745D01*
X0153476Y0222054D01*
X0154770Y0220760D01*
X0156461Y0220060D01*
X0158291Y0220060D01*
X0159982Y0220760D01*
X0161455Y0222487D02*
X0163297Y0222487D01*
X0162776Y0224086D02*
X0161976Y0224086D01*
X0161976Y0225684D02*
X0162776Y0225684D01*
X0162776Y0227283D02*
X0161976Y0227283D01*
X0161976Y0228881D02*
X0162776Y0228881D01*
X0162776Y0230480D02*
X0161976Y0230480D01*
X0161767Y0232078D02*
X0162985Y0232078D01*
X0163888Y0233677D02*
X0160864Y0233677D01*
X0153888Y0233677D02*
X0150864Y0233677D01*
X0151767Y0232078D02*
X0152985Y0232078D01*
X0152776Y0230480D02*
X0151976Y0230480D01*
X0151976Y0228881D02*
X0152776Y0228881D01*
X0152776Y0227283D02*
X0151976Y0227283D01*
X0151976Y0225684D02*
X0152776Y0225684D01*
X0152776Y0224086D02*
X0151976Y0224086D01*
X0151455Y0222487D02*
X0153297Y0222487D01*
X0154642Y0220889D02*
X0150110Y0220889D01*
X0180110Y0220889D02*
X0180866Y0220889D01*
X0184866Y0220721D02*
X0186461Y0220060D01*
X0188291Y0220060D01*
X0189982Y0220760D01*
X0191276Y0222054D01*
X0191976Y0223745D01*
X0191976Y0231575D01*
X0191276Y0233266D01*
X0189982Y0234560D01*
X0188291Y0235260D01*
X0186461Y0235260D01*
X0184866Y0234599D01*
X0184866Y0238547D01*
X0184886Y0238550D01*
X0185569Y0238550D01*
X0185686Y0238667D01*
X0185849Y0238690D01*
X0186258Y0239238D01*
X0186741Y0239722D01*
X0186741Y0239887D01*
X0186831Y0240007D01*
X0193524Y0233313D01*
X0193476Y0233266D01*
X0192776Y0231575D01*
X0192776Y0223745D01*
X0193476Y0222054D01*
X0194770Y0220760D01*
X0196461Y0220060D01*
X0198291Y0220060D01*
X0199982Y0220760D01*
X0201276Y0222054D01*
X0201976Y0223745D01*
X0201976Y0231575D01*
X0201417Y0232925D01*
X0203335Y0232925D01*
X0202776Y0231575D01*
X0202776Y0223745D01*
X0203476Y0222054D01*
X0204770Y0220760D01*
X0206461Y0220060D01*
X0208291Y0220060D01*
X0209982Y0220760D01*
X0211276Y0222054D01*
X0211976Y0223745D01*
X0211976Y0231575D01*
X0211417Y0232925D01*
X0213335Y0232925D01*
X0212776Y0231575D01*
X0212776Y0223745D01*
X0213476Y0222054D01*
X0214770Y0220760D01*
X0216461Y0220060D01*
X0218291Y0220060D01*
X0219982Y0220760D01*
X0221276Y0222054D01*
X0221976Y0223745D01*
X0221976Y0231575D01*
X0221417Y0232925D01*
X0223335Y0232925D01*
X0222776Y0231575D01*
X0222776Y0223745D01*
X0223476Y0222054D01*
X0224770Y0220760D01*
X0226461Y0220060D01*
X0228291Y0220060D01*
X0229982Y0220760D01*
X0231276Y0222054D01*
X0231976Y0223745D01*
X0231976Y0231575D01*
X0231417Y0232925D01*
X0233335Y0232925D01*
X0232776Y0231575D01*
X0232776Y0223745D01*
X0233476Y0222054D01*
X0234770Y0220760D01*
X0236461Y0220060D01*
X0238291Y0220060D01*
X0239982Y0220760D01*
X0241276Y0222054D01*
X0241976Y0223745D01*
X0241976Y0231575D01*
X0241417Y0232925D01*
X0243335Y0232925D01*
X0242776Y0231575D01*
X0242776Y0223745D01*
X0243476Y0222054D01*
X0244770Y0220760D01*
X0246461Y0220060D01*
X0248291Y0220060D01*
X0249982Y0220760D01*
X0251276Y0222054D01*
X0251976Y0223745D01*
X0251976Y0231575D01*
X0251417Y0232925D01*
X0253335Y0232925D01*
X0252776Y0231575D01*
X0252776Y0223745D01*
X0253476Y0222054D01*
X0254770Y0220760D01*
X0256461Y0220060D01*
X0258291Y0220060D01*
X0259982Y0220760D01*
X0261276Y0222054D01*
X0261976Y0223745D01*
X0261976Y0231575D01*
X0261417Y0232925D01*
X0263335Y0232925D01*
X0262776Y0231575D01*
X0262776Y0223745D01*
X0263476Y0222054D01*
X0264770Y0220760D01*
X0266461Y0220060D01*
X0268291Y0220060D01*
X0269982Y0220760D01*
X0271276Y0222054D01*
X0271976Y0223745D01*
X0271976Y0231575D01*
X0271417Y0232925D01*
X0273335Y0232925D01*
X0272776Y0231575D01*
X0272776Y0223745D01*
X0273476Y0222054D01*
X0274770Y0220760D01*
X0276461Y0220060D01*
X0278291Y0220060D01*
X0279982Y0220760D01*
X0281276Y0222054D01*
X0281976Y0223745D01*
X0281976Y0231575D01*
X0281417Y0232925D01*
X0283335Y0232925D01*
X0282776Y0231575D01*
X0282776Y0223745D01*
X0283476Y0222054D01*
X0284770Y0220760D01*
X0286461Y0220060D01*
X0288291Y0220060D01*
X0289982Y0220760D01*
X0291276Y0222054D01*
X0291976Y0223745D01*
X0291976Y0231575D01*
X0291417Y0232925D01*
X0293335Y0232925D01*
X0292776Y0231575D01*
X0292776Y0223745D01*
X0293476Y0222054D01*
X0294770Y0220760D01*
X0296461Y0220060D01*
X0298291Y0220060D01*
X0299369Y0220507D01*
X0263572Y0184710D01*
X0258519Y0184710D01*
X0258001Y0184191D01*
X0257483Y0184710D01*
X0251039Y0184710D01*
X0250102Y0183772D01*
X0250102Y0181925D01*
X0215163Y0181925D01*
X0213991Y0180753D01*
X0213863Y0180625D01*
X0212854Y0180625D01*
X0211678Y0180138D01*
X0210778Y0179238D01*
X0210291Y0178062D01*
X0210291Y0176788D01*
X0210752Y0175675D01*
X0206413Y0175675D01*
X0205491Y0174753D01*
X0205491Y0176061D01*
X0205554Y0176087D01*
X0206454Y0176987D01*
X0206941Y0178163D01*
X0206941Y0179437D01*
X0206454Y0180613D01*
X0205554Y0181513D01*
X0204378Y0182000D01*
X0203619Y0182000D01*
X0184866Y0200753D01*
X0184866Y0220721D01*
X0184866Y0219290D02*
X0298153Y0219290D01*
X0296554Y0217692D02*
X0184866Y0217692D01*
X0184866Y0216093D02*
X0294956Y0216093D01*
X0293357Y0214495D02*
X0184866Y0214495D01*
X0184866Y0212896D02*
X0291759Y0212896D01*
X0290160Y0211298D02*
X0184866Y0211298D01*
X0184866Y0209699D02*
X0288562Y0209699D01*
X0286963Y0208101D02*
X0184866Y0208101D01*
X0184866Y0206502D02*
X0285365Y0206502D01*
X0283766Y0204904D02*
X0184866Y0204904D01*
X0184866Y0203305D02*
X0282168Y0203305D01*
X0280569Y0201707D02*
X0184866Y0201707D01*
X0185511Y0200108D02*
X0278971Y0200108D01*
X0277372Y0198510D02*
X0187110Y0198510D01*
X0188708Y0196911D02*
X0275774Y0196911D01*
X0274175Y0195313D02*
X0190307Y0195313D01*
X0191905Y0193714D02*
X0272577Y0193714D01*
X0270978Y0192116D02*
X0193504Y0192116D01*
X0195102Y0190517D02*
X0269380Y0190517D01*
X0267781Y0188919D02*
X0196701Y0188919D01*
X0198299Y0187320D02*
X0266183Y0187320D01*
X0264584Y0185722D02*
X0199898Y0185722D01*
X0201496Y0184123D02*
X0250453Y0184123D01*
X0250102Y0182525D02*
X0203095Y0182525D01*
X0206140Y0180926D02*
X0214164Y0180926D01*
X0210868Y0179328D02*
X0206941Y0179328D01*
X0206761Y0177729D02*
X0210291Y0177729D01*
X0210564Y0176131D02*
X0205597Y0176131D01*
X0201491Y0176131D02*
X0129489Y0176131D01*
X0127890Y0177729D02*
X0200721Y0177729D01*
X0200541Y0179328D02*
X0126292Y0179328D01*
X0124693Y0180926D02*
X0199036Y0180926D01*
X0197438Y0182525D02*
X0123095Y0182525D01*
X0121496Y0184123D02*
X0195839Y0184123D01*
X0200895Y0174532D02*
X0131087Y0174532D01*
X0132686Y0172934D02*
X0199296Y0172934D01*
X0197698Y0171335D02*
X0134284Y0171335D01*
X0135883Y0169737D02*
X0196099Y0169737D01*
X0194616Y0168138D02*
X0137481Y0168138D01*
X0139080Y0166539D02*
X0194616Y0166539D01*
X0194616Y0164941D02*
X0140678Y0164941D01*
X0142277Y0163342D02*
X0194616Y0163342D01*
X0193277Y0161744D02*
X0143875Y0161744D01*
X0145474Y0160145D02*
X0192825Y0160145D01*
X0192825Y0158547D02*
X0147072Y0158547D01*
X0148671Y0156948D02*
X0192825Y0156948D01*
X0192825Y0155350D02*
X0150270Y0155350D01*
X0151868Y0153751D02*
X0192825Y0153751D01*
X0193991Y0152153D02*
X0152366Y0152153D01*
X0152366Y0150554D02*
X0193991Y0150554D01*
X0193991Y0148956D02*
X0152366Y0148956D01*
X0152366Y0147357D02*
X0193991Y0147357D01*
X0193991Y0145759D02*
X0152366Y0145759D01*
X0152366Y0144160D02*
X0193991Y0144160D01*
X0193991Y0142562D02*
X0152366Y0142562D01*
X0152366Y0140963D02*
X0191465Y0140963D01*
X0191465Y0139365D02*
X0152366Y0139365D01*
X0152366Y0137766D02*
X0191465Y0137766D01*
X0191465Y0136168D02*
X0152366Y0136168D01*
X0152366Y0134569D02*
X0191465Y0134569D01*
X0192382Y0132971D02*
X0152471Y0132971D01*
X0153489Y0131372D02*
X0193991Y0131372D01*
X0193991Y0129774D02*
X0153508Y0129774D01*
X0152517Y0128175D02*
X0193991Y0128175D01*
X0193991Y0126577D02*
X0152793Y0126577D01*
X0154391Y0124978D02*
X0193991Y0124978D01*
X0193991Y0123380D02*
X0155990Y0123380D01*
X0157588Y0121781D02*
X0193420Y0121781D01*
X0191030Y0120183D02*
X0159187Y0120183D01*
X0160785Y0118584D02*
X0190421Y0118584D01*
X0190421Y0116986D02*
X0162384Y0116986D01*
X0163982Y0115387D02*
X0164428Y0115387D01*
X0161522Y0112190D02*
X0155304Y0112190D01*
X0153706Y0113789D02*
X0159924Y0113789D01*
X0158325Y0115387D02*
X0152107Y0115387D01*
X0150509Y0116986D02*
X0156727Y0116986D01*
X0155128Y0118584D02*
X0148910Y0118584D01*
X0147312Y0120183D02*
X0153530Y0120183D01*
X0151931Y0121781D02*
X0145713Y0121781D01*
X0144115Y0123380D02*
X0150333Y0123380D01*
X0148734Y0124978D02*
X0142516Y0124978D01*
X0140918Y0126577D02*
X0147136Y0126577D01*
X0145537Y0128175D02*
X0139319Y0128175D01*
X0137721Y0129774D02*
X0143939Y0129774D01*
X0142340Y0131372D02*
X0136122Y0131372D01*
X0136062Y0132971D02*
X0140742Y0132971D01*
X0139143Y0134569D02*
X0136691Y0134569D01*
X0136440Y0136168D02*
X0137545Y0136168D01*
X0135946Y0137766D02*
X0134994Y0137766D01*
X0134348Y0139365D02*
X0131880Y0139365D01*
X0132749Y0140963D02*
X0130281Y0140963D01*
X0131151Y0142562D02*
X0128683Y0142562D01*
X0129552Y0144160D02*
X0127084Y0144160D01*
X0127954Y0145759D02*
X0125486Y0145759D01*
X0124816Y0147357D02*
X0126355Y0147357D01*
X0124757Y0148956D02*
X0123986Y0148956D01*
X0123158Y0150554D02*
X0116315Y0150554D01*
X0117914Y0148956D02*
X0119246Y0148956D01*
X0121560Y0152153D02*
X0114717Y0152153D01*
X0113118Y0153751D02*
X0119961Y0153751D01*
X0118363Y0155350D02*
X0111520Y0155350D01*
X0109921Y0156948D02*
X0116764Y0156948D01*
X0115166Y0158547D02*
X0108566Y0158547D01*
X0108221Y0160145D02*
X0111963Y0160145D01*
X0111541Y0161744D02*
X0106319Y0161744D01*
X0104413Y0161744D02*
X0086741Y0161744D01*
X0086741Y0163342D02*
X0111916Y0163342D01*
X0113962Y0164941D02*
X0086741Y0164941D01*
X0086741Y0166539D02*
X0103601Y0166539D01*
X0103278Y0166862D02*
X0104178Y0165962D01*
X0105354Y0165475D01*
X0106628Y0165475D01*
X0107804Y0165962D01*
X0108704Y0166862D01*
X0109191Y0168038D01*
X0109191Y0169312D01*
X0108704Y0170488D01*
X0107991Y0171200D01*
X0107991Y0177900D01*
X0108204Y0178112D01*
X0108691Y0179288D01*
X0108691Y0180562D01*
X0108204Y0181738D01*
X0107304Y0182638D01*
X0106128Y0183125D01*
X0104854Y0183125D01*
X0103678Y0182638D01*
X0102778Y0181738D01*
X0102291Y0180562D01*
X0102291Y0179288D01*
X0102778Y0178112D01*
X0103678Y0177212D01*
X0103991Y0177083D01*
X0103991Y0171200D01*
X0103278Y0170488D01*
X0102791Y0169312D01*
X0102791Y0168038D01*
X0103278Y0166862D01*
X0102791Y0168138D02*
X0086741Y0168138D01*
X0086741Y0169737D02*
X0102967Y0169737D01*
X0103991Y0171335D02*
X0086741Y0171335D01*
X0086741Y0172934D02*
X0103991Y0172934D01*
X0103991Y0174532D02*
X0086741Y0174532D01*
X0086741Y0176131D02*
X0103991Y0176131D01*
X0103161Y0177729D02*
X0086741Y0177729D01*
X0086741Y0179328D02*
X0102291Y0179328D01*
X0102442Y0180926D02*
X0086741Y0180926D01*
X0086741Y0182525D02*
X0103565Y0182525D01*
X0107417Y0182525D02*
X0117438Y0182525D01*
X0115839Y0184123D02*
X0086741Y0184123D01*
X0086741Y0185722D02*
X0114241Y0185722D01*
X0112642Y0187320D02*
X0086741Y0187320D01*
X0086741Y0188919D02*
X0111044Y0188919D01*
X0109445Y0190517D02*
X0086741Y0190517D01*
X0086741Y0192116D02*
X0107847Y0192116D01*
X0106248Y0193714D02*
X0086741Y0193714D01*
X0086741Y0195313D02*
X0104650Y0195313D01*
X0101354Y0196911D02*
X0099550Y0196911D01*
X0092806Y0196911D02*
X0086741Y0196911D01*
X0086741Y0198510D02*
X0092806Y0198510D01*
X0092806Y0200108D02*
X0091221Y0200108D01*
X0073991Y0200108D02*
X0065491Y0200108D01*
X0065491Y0198510D02*
X0073991Y0198510D01*
X0073991Y0196911D02*
X0066030Y0196911D01*
X0066691Y0195313D02*
X0073991Y0195313D01*
X0073991Y0193714D02*
X0066453Y0193714D01*
X0065071Y0192116D02*
X0073991Y0192116D01*
X0073991Y0201707D02*
X0065491Y0201707D01*
X0065491Y0203305D02*
X0073991Y0203305D01*
X0073991Y0204904D02*
X0065491Y0204904D01*
X0065491Y0206502D02*
X0074740Y0206502D01*
X0061491Y0214495D02*
X0038592Y0214495D01*
X0040467Y0216093D02*
X0061491Y0216093D01*
X0061491Y0217692D02*
X0041390Y0217692D01*
X0041913Y0219290D02*
X0061491Y0219290D01*
X0061491Y0220889D02*
X0041913Y0220889D01*
X0041532Y0222487D02*
X0061491Y0222487D01*
X0061491Y0224086D02*
X0040810Y0224086D01*
X0039212Y0225684D02*
X0061491Y0225684D01*
X0108540Y0180926D02*
X0119036Y0180926D01*
X0120635Y0179328D02*
X0108691Y0179328D01*
X0107991Y0177729D02*
X0122234Y0177729D01*
X0123832Y0176131D02*
X0107991Y0176131D01*
X0107991Y0174532D02*
X0125431Y0174532D01*
X0127029Y0172934D02*
X0107991Y0172934D01*
X0107991Y0171335D02*
X0128628Y0171335D01*
X0130226Y0169737D02*
X0109015Y0169737D01*
X0109191Y0168138D02*
X0131825Y0168138D01*
X0133423Y0166539D02*
X0108381Y0166539D01*
X0115520Y0164941D02*
X0135022Y0164941D01*
X0136620Y0163342D02*
X0117566Y0163342D01*
X0117941Y0161744D02*
X0138219Y0161744D01*
X0139817Y0160145D02*
X0119224Y0160145D01*
X0120822Y0158547D02*
X0141416Y0158547D01*
X0143014Y0156948D02*
X0122421Y0156948D01*
X0124020Y0155350D02*
X0144613Y0155350D01*
X0146211Y0153751D02*
X0125618Y0153751D01*
X0127217Y0152153D02*
X0147810Y0152153D01*
X0148366Y0150554D02*
X0128815Y0150554D01*
X0130414Y0148956D02*
X0148366Y0148956D01*
X0148366Y0147357D02*
X0132012Y0147357D01*
X0133611Y0145759D02*
X0148366Y0145759D01*
X0148366Y0144160D02*
X0135209Y0144160D01*
X0136808Y0142562D02*
X0148366Y0142562D01*
X0148366Y0140963D02*
X0138406Y0140963D01*
X0140005Y0139365D02*
X0148366Y0139365D01*
X0148366Y0137766D02*
X0141603Y0137766D01*
X0143202Y0136168D02*
X0148366Y0136168D01*
X0148366Y0134569D02*
X0144800Y0134569D01*
X0146399Y0132971D02*
X0148261Y0132971D01*
X0136859Y0124978D02*
X0134320Y0124978D01*
X0135309Y0123380D02*
X0138458Y0123380D01*
X0140056Y0121781D02*
X0135438Y0121781D01*
X0134524Y0120183D02*
X0141655Y0120183D01*
X0142000Y0118584D02*
X0101957Y0118584D01*
X0102861Y0120183D02*
X0129958Y0120183D01*
X0129716Y0124425D02*
X0130216Y0124925D01*
X0129528Y0125612D01*
X0129041Y0126788D01*
X0129041Y0127797D01*
X0125788Y0131050D01*
X0105194Y0131050D01*
X0111819Y0124425D01*
X0129716Y0124425D01*
X0130162Y0124978D02*
X0111266Y0124978D01*
X0109668Y0126577D02*
X0129129Y0126577D01*
X0128662Y0128175D02*
X0108069Y0128175D01*
X0106471Y0129774D02*
X0127064Y0129774D01*
X0125045Y0136168D02*
X0106741Y0136168D01*
X0106741Y0137766D02*
X0123446Y0137766D01*
X0121848Y0139365D02*
X0106741Y0139365D01*
X0106741Y0140963D02*
X0120249Y0140963D01*
X0118651Y0142562D02*
X0106741Y0142562D01*
X0107629Y0144160D02*
X0117052Y0144160D01*
X0115454Y0145759D02*
X0107941Y0145759D01*
X0107456Y0147357D02*
X0113855Y0147357D01*
X0112257Y0148956D02*
X0087289Y0148956D01*
X0086741Y0150554D02*
X0110658Y0150554D01*
X0109060Y0152153D02*
X0086741Y0152153D01*
X0086741Y0153751D02*
X0107461Y0153751D01*
X0105863Y0155350D02*
X0086741Y0155350D01*
X0086741Y0156948D02*
X0102618Y0156948D01*
X0102166Y0158547D02*
X0086741Y0158547D01*
X0086741Y0160145D02*
X0102511Y0160145D01*
X0102026Y0147357D02*
X0088887Y0147357D01*
X0090486Y0145759D02*
X0101541Y0145759D01*
X0101853Y0144160D02*
X0092084Y0144160D01*
X0093683Y0142562D02*
X0102741Y0142562D01*
X0102741Y0140963D02*
X0095281Y0140963D01*
X0096880Y0139365D02*
X0102741Y0139365D01*
X0102741Y0137766D02*
X0098478Y0137766D01*
X0100077Y0136168D02*
X0102741Y0136168D01*
X0102741Y0134569D02*
X0101675Y0134569D01*
X0102861Y0126577D02*
X0104011Y0126577D01*
X0102861Y0124978D02*
X0105609Y0124978D01*
X0107208Y0123380D02*
X0102861Y0123380D01*
X0102861Y0121781D02*
X0108806Y0121781D01*
X0096116Y0116986D02*
X0140988Y0116986D01*
X0140979Y0115387D02*
X0096116Y0115387D01*
X0096116Y0113789D02*
X0141977Y0113789D01*
X0145241Y0112190D02*
X0096116Y0112190D01*
X0096116Y0110592D02*
X0145241Y0110592D01*
X0145241Y0108993D02*
X0095387Y0108993D01*
X0093789Y0107395D02*
X0145241Y0107395D01*
X0145241Y0105796D02*
X0092190Y0105796D01*
X0090592Y0104198D02*
X0145241Y0104198D01*
X0145241Y0102599D02*
X0088993Y0102599D01*
X0087395Y0101001D02*
X0145241Y0101001D01*
X0145241Y0099402D02*
X0131670Y0099402D01*
X0130472Y0100600D02*
X0124010Y0100600D01*
X0119441Y0096031D01*
X0119441Y0089569D01*
X0124010Y0085000D01*
X0130472Y0085000D01*
X0135041Y0089569D01*
X0135041Y0096031D01*
X0130472Y0100600D01*
X0133268Y0097803D02*
X0145241Y0097803D01*
X0145241Y0096205D02*
X0134867Y0096205D01*
X0135041Y0094606D02*
X0145241Y0094606D01*
X0145241Y0093008D02*
X0135041Y0093008D01*
X0135041Y0091409D02*
X0145241Y0091409D01*
X0145241Y0089811D02*
X0135041Y0089811D01*
X0133684Y0088212D02*
X0145241Y0088212D01*
X0145241Y0086614D02*
X0132086Y0086614D01*
X0130487Y0085015D02*
X0145241Y0085015D01*
X0145241Y0083417D02*
X0106337Y0083417D01*
X0106204Y0083738D02*
X0106691Y0082562D01*
X0106691Y0081288D01*
X0106204Y0080112D01*
X0105304Y0079212D01*
X0104128Y0078725D01*
X0102854Y0078725D01*
X0101678Y0079212D01*
X0100778Y0080112D01*
X0100291Y0081288D01*
X0100291Y0082562D01*
X0100778Y0083738D01*
X0101678Y0084638D01*
X0102854Y0085125D01*
X0104128Y0085125D01*
X0105304Y0084638D01*
X0106204Y0083738D01*
X0106691Y0081818D02*
X0145241Y0081818D01*
X0145241Y0080220D02*
X0106248Y0080220D01*
X0100734Y0080220D02*
X0076025Y0080220D01*
X0074866Y0081818D02*
X0100291Y0081818D01*
X0100645Y0083417D02*
X0074866Y0083417D01*
X0074866Y0085015D02*
X0102590Y0085015D01*
X0104392Y0085015D02*
X0123995Y0085015D01*
X0122396Y0086614D02*
X0074866Y0086614D01*
X0074866Y0088212D02*
X0120798Y0088212D01*
X0119441Y0089811D02*
X0076205Y0089811D01*
X0077804Y0091409D02*
X0119441Y0091409D01*
X0119441Y0093008D02*
X0079402Y0093008D01*
X0081001Y0094606D02*
X0119441Y0094606D01*
X0119615Y0096205D02*
X0082599Y0096205D01*
X0084198Y0097803D02*
X0121214Y0097803D01*
X0122812Y0099402D02*
X0085796Y0099402D01*
X0086534Y0105796D02*
X0084735Y0105796D01*
X0083476Y0107395D02*
X0088132Y0107395D01*
X0089731Y0108993D02*
X0077251Y0108993D01*
X0075653Y0110592D02*
X0091329Y0110592D01*
X0092116Y0112190D02*
X0075491Y0112190D01*
X0075491Y0113789D02*
X0092116Y0113789D01*
X0092116Y0115387D02*
X0075491Y0115387D01*
X0075491Y0116986D02*
X0092116Y0116986D01*
X0086785Y0118584D02*
X0080697Y0118584D01*
X0081601Y0120183D02*
X0085881Y0120183D01*
X0085881Y0121781D02*
X0081601Y0121781D01*
X0081601Y0123380D02*
X0085881Y0123380D01*
X0085881Y0124978D02*
X0081601Y0124978D01*
X0081601Y0126577D02*
X0085881Y0126577D01*
X0071491Y0116986D02*
X0057325Y0116986D01*
X0056227Y0118584D02*
X0065525Y0118584D01*
X0064621Y0120183D02*
X0053516Y0120183D01*
X0050713Y0121781D02*
X0064621Y0121781D01*
X0064621Y0123380D02*
X0049115Y0123380D01*
X0047516Y0124978D02*
X0057400Y0124978D01*
X0055831Y0126577D02*
X0045918Y0126577D01*
X0045056Y0121781D02*
X0008689Y0121781D01*
X0008688Y0120183D02*
X0043166Y0120183D01*
X0040455Y0118584D02*
X0008688Y0118584D01*
X0008687Y0116986D02*
X0039357Y0116986D01*
X0038867Y0115387D02*
X0008686Y0115387D01*
X0008686Y0113789D02*
X0038867Y0113789D01*
X0039451Y0112190D02*
X0008685Y0112190D01*
X0008684Y0110592D02*
X0021718Y0110592D01*
X0021291Y0108993D02*
X0008684Y0108993D01*
X0008683Y0107395D02*
X0021661Y0107395D01*
X0023683Y0105796D02*
X0008682Y0105796D01*
X0008682Y0104198D02*
X0040241Y0104198D01*
X0040241Y0105796D02*
X0025299Y0105796D01*
X0040241Y0102599D02*
X0008681Y0102599D01*
X0008681Y0101001D02*
X0040241Y0101001D01*
X0040241Y0099402D02*
X0008680Y0099402D01*
X0008679Y0097803D02*
X0040241Y0097803D01*
X0040241Y0096205D02*
X0008679Y0096205D01*
X0008678Y0094606D02*
X0040241Y0094606D01*
X0040241Y0093008D02*
X0008677Y0093008D01*
X0008677Y0091409D02*
X0040241Y0091409D01*
X0040241Y0089811D02*
X0008676Y0089811D01*
X0008675Y0088212D02*
X0040241Y0088212D01*
X0040241Y0086614D02*
X0008675Y0086614D01*
X0008674Y0085015D02*
X0040241Y0085015D01*
X0040241Y0083417D02*
X0008673Y0083417D01*
X0008673Y0081818D02*
X0040241Y0081818D01*
X0040241Y0080220D02*
X0008672Y0080220D01*
X0008672Y0078621D02*
X0040241Y0078621D01*
X0040241Y0077023D02*
X0008671Y0077023D01*
X0008670Y0075424D02*
X0040241Y0075424D01*
X0040241Y0073826D02*
X0008670Y0073826D01*
X0008669Y0072227D02*
X0040241Y0072227D01*
X0040241Y0070629D02*
X0008668Y0070629D01*
X0008668Y0069030D02*
X0040241Y0069030D01*
X0040241Y0067432D02*
X0008667Y0067432D01*
X0008666Y0065833D02*
X0040241Y0065833D01*
X0040241Y0064235D02*
X0008666Y0064235D01*
X0008665Y0062636D02*
X0040241Y0062636D01*
X0040241Y0061038D02*
X0008664Y0061038D01*
X0008664Y0059439D02*
X0040241Y0059439D01*
X0040241Y0057841D02*
X0008663Y0057841D01*
X0008663Y0056242D02*
X0020105Y0056242D01*
X0018506Y0054644D02*
X0008662Y0054644D01*
X0008661Y0053045D02*
X0016908Y0053045D01*
X0013487Y0051447D02*
X0008661Y0051447D01*
X0008660Y0049848D02*
X0012410Y0049848D01*
X0012307Y0048250D02*
X0008659Y0048250D01*
X0008659Y0046651D02*
X0013239Y0046651D01*
X0017743Y0046651D02*
X0025783Y0046651D01*
X0025783Y0045053D02*
X0008658Y0045053D01*
X0008657Y0043454D02*
X0026329Y0043454D01*
X0028366Y0041856D02*
X0008657Y0041856D01*
X0008656Y0040257D02*
X0028366Y0040257D01*
X0028366Y0038659D02*
X0008655Y0038659D01*
X0008655Y0037060D02*
X0028366Y0037060D01*
X0028366Y0035462D02*
X0008654Y0035462D01*
X0008654Y0033863D02*
X0028366Y0033863D01*
X0028366Y0032265D02*
X0008653Y0032265D01*
X0008652Y0030666D02*
X0028366Y0030666D01*
X0028366Y0029068D02*
X0008652Y0029068D01*
X0008651Y0027469D02*
X0028366Y0027469D01*
X0028366Y0025870D02*
X0008650Y0025870D01*
X0008650Y0024272D02*
X0029441Y0024272D01*
X0031039Y0022673D02*
X0008649Y0022673D01*
X0008648Y0021075D02*
X0032638Y0021075D01*
X0034236Y0019476D02*
X0008648Y0019476D01*
X0008647Y0017878D02*
X0035835Y0017878D01*
X0037433Y0016279D02*
X0008646Y0016279D01*
X0008646Y0014681D02*
X0039032Y0014681D01*
X0040630Y0013082D02*
X0008645Y0013082D01*
X0008645Y0011484D02*
X0042229Y0011484D01*
X0043090Y0016279D02*
X0063417Y0016279D01*
X0063417Y0017878D02*
X0041491Y0017878D01*
X0046575Y0019476D02*
X0063417Y0019476D01*
X0054040Y0022673D02*
X0130911Y0022673D01*
X0129313Y0021075D02*
X0052916Y0021075D01*
X0054191Y0024272D02*
X0132510Y0024272D01*
X0132791Y0025870D02*
X0053321Y0025870D01*
X0048661Y0025870D02*
X0047178Y0025870D01*
X0047019Y0027469D02*
X0132791Y0027469D01*
X0132791Y0029068D02*
X0032366Y0029068D01*
X0032366Y0030666D02*
X0132905Y0030666D01*
X0133675Y0032265D02*
X0047178Y0032265D01*
X0047178Y0033863D02*
X0115027Y0033863D01*
X0114073Y0035462D02*
X0080553Y0035462D01*
X0080304Y0035212D02*
X0081204Y0036112D01*
X0081691Y0037288D01*
X0081691Y0038562D01*
X0081204Y0039738D01*
X0080304Y0040638D01*
X0079128Y0041125D01*
X0077854Y0041125D01*
X0076678Y0040638D01*
X0075778Y0039738D01*
X0075291Y0038562D01*
X0075291Y0037288D01*
X0075778Y0036112D01*
X0076678Y0035212D01*
X0077854Y0034725D01*
X0079128Y0034725D01*
X0080304Y0035212D01*
X0081596Y0037060D02*
X0113528Y0037060D01*
X0111929Y0038659D02*
X0081651Y0038659D01*
X0080684Y0040257D02*
X0110330Y0040257D01*
X0108732Y0041856D02*
X0043616Y0041856D01*
X0043616Y0040257D02*
X0076298Y0040257D01*
X0075331Y0038659D02*
X0047178Y0038659D01*
X0047178Y0037060D02*
X0075386Y0037060D01*
X0076429Y0035462D02*
X0047178Y0035462D01*
X0039616Y0040257D02*
X0032366Y0040257D01*
X0032366Y0038659D02*
X0036104Y0038659D01*
X0036104Y0037060D02*
X0032366Y0037060D01*
X0032366Y0035462D02*
X0036104Y0035462D01*
X0036104Y0033863D02*
X0032366Y0033863D01*
X0032366Y0032265D02*
X0036104Y0032265D01*
X0036263Y0027469D02*
X0032366Y0027469D01*
X0033499Y0025870D02*
X0036104Y0025870D01*
X0036104Y0024272D02*
X0035097Y0024272D01*
X0047178Y0021075D02*
X0049066Y0021075D01*
X0063417Y0009885D02*
X0008644Y0009885D01*
X0008643Y0008287D02*
X0063417Y0008287D01*
X0088665Y0008287D02*
X0179729Y0008287D01*
X0179928Y0008087D02*
X0181104Y0007600D01*
X0182378Y0007600D01*
X0183554Y0008087D01*
X0184454Y0008987D01*
X0184941Y0010163D01*
X0184941Y0011437D01*
X0184454Y0012613D01*
X0183554Y0013513D01*
X0182378Y0014000D01*
X0181104Y0014000D01*
X0179928Y0013513D01*
X0179591Y0013175D01*
X0173694Y0013175D01*
X0167994Y0018875D01*
X0168306Y0018875D01*
X0169997Y0019575D01*
X0171291Y0020869D01*
X0171991Y0022560D01*
X0171991Y0030390D01*
X0171291Y0032081D01*
X0169997Y0033375D01*
X0168306Y0034075D01*
X0166476Y0034075D01*
X0164785Y0033375D01*
X0163491Y0032081D01*
X0162791Y0030390D01*
X0162791Y0024078D01*
X0161991Y0024878D01*
X0161991Y0030390D01*
X0161291Y0032081D01*
X0159997Y0033375D01*
X0158306Y0034075D01*
X0156476Y0034075D01*
X0154785Y0033375D01*
X0153491Y0032081D01*
X0152791Y0030390D01*
X0152791Y0022560D01*
X0153491Y0020869D01*
X0154785Y0019575D01*
X0156476Y0018875D01*
X0158306Y0018875D01*
X0159997Y0019575D01*
X0160817Y0020396D01*
X0172038Y0009175D01*
X0178950Y0009175D01*
X0179028Y0008987D01*
X0179928Y0008087D01*
X0183753Y0008287D02*
X0263729Y0008287D01*
X0262656Y0009885D02*
X0184826Y0009885D01*
X0184921Y0011484D02*
X0262561Y0011484D01*
X0263366Y0013082D02*
X0183984Y0013082D01*
X0186476Y0018875D02*
X0188306Y0018875D01*
X0189997Y0019575D01*
X0191291Y0020869D01*
X0191991Y0022560D01*
X0191991Y0030390D01*
X0191291Y0032081D01*
X0189997Y0033375D01*
X0188306Y0034075D01*
X0186476Y0034075D01*
X0184785Y0033375D01*
X0183491Y0032081D01*
X0182791Y0030390D01*
X0182791Y0022560D01*
X0183491Y0020869D01*
X0184785Y0019575D01*
X0186476Y0018875D01*
X0185024Y0019476D02*
X0179758Y0019476D01*
X0179997Y0019575D02*
X0181291Y0020869D01*
X0181991Y0022560D01*
X0181991Y0030390D01*
X0181291Y0032081D01*
X0179997Y0033375D01*
X0178306Y0034075D01*
X0176476Y0034075D01*
X0174785Y0033375D01*
X0173491Y0032081D01*
X0172791Y0030390D01*
X0172791Y0022560D01*
X0173491Y0020869D01*
X0174785Y0019575D01*
X0176476Y0018875D01*
X0178306Y0018875D01*
X0179997Y0019575D01*
X0181376Y0021075D02*
X0183406Y0021075D01*
X0182791Y0022673D02*
X0181991Y0022673D01*
X0181991Y0024272D02*
X0182791Y0024272D01*
X0182791Y0025870D02*
X0181991Y0025870D01*
X0181991Y0027469D02*
X0182791Y0027469D01*
X0182791Y0029068D02*
X0181991Y0029068D01*
X0181877Y0030666D02*
X0182905Y0030666D01*
X0183675Y0032265D02*
X0181107Y0032265D01*
X0178818Y0033863D02*
X0185964Y0033863D01*
X0188818Y0033863D02*
X0195964Y0033863D01*
X0196476Y0034075D02*
X0194785Y0033375D01*
X0193491Y0032081D01*
X0192791Y0030390D01*
X0192791Y0022560D01*
X0193491Y0020869D01*
X0194785Y0019575D01*
X0196476Y0018875D01*
X0198306Y0018875D01*
X0199997Y0019575D01*
X0201291Y0020869D01*
X0201991Y0022560D01*
X0201991Y0030390D01*
X0201291Y0032081D01*
X0199997Y0033375D01*
X0198306Y0034075D01*
X0196476Y0034075D01*
X0198818Y0033863D02*
X0205964Y0033863D01*
X0206476Y0034075D02*
X0204785Y0033375D01*
X0203491Y0032081D01*
X0202791Y0030390D01*
X0202791Y0022560D01*
X0203491Y0020869D01*
X0204785Y0019575D01*
X0206476Y0018875D01*
X0208306Y0018875D01*
X0209997Y0019575D01*
X0211291Y0020869D01*
X0211991Y0022560D01*
X0211991Y0030390D01*
X0211291Y0032081D01*
X0209997Y0033375D01*
X0208306Y0034075D01*
X0206476Y0034075D01*
X0208818Y0033863D02*
X0215964Y0033863D01*
X0216476Y0034075D02*
X0214785Y0033375D01*
X0213491Y0032081D01*
X0212791Y0030390D01*
X0212791Y0022560D01*
X0213491Y0020869D01*
X0214785Y0019575D01*
X0216476Y0018875D01*
X0218306Y0018875D01*
X0219997Y0019575D01*
X0221291Y0020869D01*
X0221991Y0022560D01*
X0221991Y0030390D01*
X0221291Y0032081D01*
X0219997Y0033375D01*
X0218306Y0034075D01*
X0216476Y0034075D01*
X0218818Y0033863D02*
X0225964Y0033863D01*
X0226476Y0034075D02*
X0224785Y0033375D01*
X0223491Y0032081D01*
X0222791Y0030390D01*
X0222791Y0022560D01*
X0223491Y0020869D01*
X0224785Y0019575D01*
X0226476Y0018875D01*
X0228306Y0018875D01*
X0229997Y0019575D01*
X0231291Y0020869D01*
X0231991Y0022560D01*
X0231991Y0030390D01*
X0231291Y0032081D01*
X0229997Y0033375D01*
X0228306Y0034075D01*
X0226476Y0034075D01*
X0228818Y0033863D02*
X0235964Y0033863D01*
X0235751Y0035462D02*
X0149241Y0035462D01*
X0149241Y0037060D02*
X0234152Y0037060D01*
X0232554Y0038659D02*
X0149241Y0038659D01*
X0149241Y0040257D02*
X0230955Y0040257D01*
X0229357Y0041856D02*
X0149241Y0041856D01*
X0149241Y0043454D02*
X0227758Y0043454D01*
X0226160Y0045053D02*
X0149241Y0045053D01*
X0149241Y0046651D02*
X0224561Y0046651D01*
X0222963Y0048250D02*
X0149241Y0048250D01*
X0149241Y0049848D02*
X0221364Y0049848D01*
X0219766Y0051447D02*
X0149241Y0051447D01*
X0149241Y0053045D02*
X0218167Y0053045D01*
X0216569Y0054644D02*
X0149241Y0054644D01*
X0149241Y0056242D02*
X0192233Y0056242D01*
X0190015Y0057841D02*
X0149241Y0057841D01*
X0149241Y0059439D02*
X0189275Y0059439D01*
X0189181Y0061038D02*
X0149241Y0061038D01*
X0149241Y0062636D02*
X0178017Y0062636D01*
X0178104Y0062600D02*
X0179378Y0062600D01*
X0180554Y0063087D01*
X0181454Y0063987D01*
X0181941Y0065163D01*
X0181941Y0066437D01*
X0181454Y0067613D01*
X0180554Y0068513D01*
X0179378Y0069000D01*
X0178104Y0069000D01*
X0176928Y0068513D01*
X0176028Y0067613D01*
X0175541Y0066437D01*
X0175541Y0065163D01*
X0176028Y0063987D01*
X0176928Y0063087D01*
X0178104Y0062600D01*
X0179465Y0062636D02*
X0189181Y0062636D01*
X0189181Y0064235D02*
X0181556Y0064235D01*
X0181941Y0065833D02*
X0189181Y0065833D01*
X0189181Y0067432D02*
X0181529Y0067432D01*
X0175953Y0067432D02*
X0149241Y0067432D01*
X0149241Y0069030D02*
X0189817Y0069030D01*
X0191535Y0070629D02*
X0149241Y0070629D01*
X0149241Y0072227D02*
X0194845Y0072227D01*
X0194845Y0073826D02*
X0149241Y0073826D01*
X0149241Y0075424D02*
X0194845Y0075424D01*
X0194845Y0077023D02*
X0149241Y0077023D01*
X0149241Y0078621D02*
X0183216Y0078621D01*
X0181618Y0080220D02*
X0149241Y0080220D01*
X0149241Y0081818D02*
X0180019Y0081818D01*
X0178421Y0083417D02*
X0149241Y0083417D01*
X0149241Y0085015D02*
X0176822Y0085015D01*
X0175224Y0086614D02*
X0149241Y0086614D01*
X0149241Y0088212D02*
X0173625Y0088212D01*
X0172027Y0089811D02*
X0149241Y0089811D01*
X0149241Y0091409D02*
X0170428Y0091409D01*
X0168830Y0093008D02*
X0149241Y0093008D01*
X0149241Y0094606D02*
X0167231Y0094606D01*
X0165633Y0096205D02*
X0149241Y0096205D01*
X0149241Y0097803D02*
X0164034Y0097803D01*
X0162436Y0099402D02*
X0149241Y0099402D01*
X0149241Y0101001D02*
X0160837Y0101001D01*
X0159239Y0102599D02*
X0149241Y0102599D01*
X0149241Y0104198D02*
X0157640Y0104198D01*
X0156042Y0105796D02*
X0149241Y0105796D01*
X0149241Y0107395D02*
X0154443Y0107395D01*
X0152844Y0108993D02*
X0149241Y0108993D01*
X0149241Y0110592D02*
X0151246Y0110592D01*
X0149647Y0112190D02*
X0149241Y0112190D01*
X0156903Y0110592D02*
X0164549Y0110592D01*
X0168683Y0110592D02*
X0176831Y0110592D01*
X0176831Y0112190D02*
X0169723Y0112190D01*
X0169774Y0113789D02*
X0176831Y0113789D01*
X0176831Y0115387D02*
X0168804Y0115387D01*
X0177054Y0108993D02*
X0158501Y0108993D01*
X0160100Y0107395D02*
X0176831Y0107395D01*
X0176831Y0105796D02*
X0161698Y0105796D01*
X0163297Y0104198D02*
X0176831Y0104198D01*
X0176831Y0102599D02*
X0164895Y0102599D01*
X0166494Y0101001D02*
X0177172Y0101001D01*
X0181811Y0099402D02*
X0168092Y0099402D01*
X0169691Y0097803D02*
X0183409Y0097803D01*
X0185008Y0096205D02*
X0171289Y0096205D01*
X0172888Y0094606D02*
X0186606Y0094606D01*
X0188205Y0093008D02*
X0174486Y0093008D01*
X0176085Y0091409D02*
X0189181Y0091409D01*
X0189181Y0089811D02*
X0177683Y0089811D01*
X0179282Y0088212D02*
X0189181Y0088212D01*
X0189181Y0086614D02*
X0180880Y0086614D01*
X0182479Y0085015D02*
X0189284Y0085015D01*
X0190039Y0083417D02*
X0184078Y0083417D01*
X0195529Y0081925D02*
X0196387Y0082280D01*
X0197034Y0082928D01*
X0198038Y0081925D01*
X0195529Y0081925D01*
X0200604Y0085015D02*
X0207084Y0085015D01*
X0206981Y0086614D02*
X0199005Y0086614D01*
X0198381Y0088212D02*
X0206981Y0088212D01*
X0206981Y0089811D02*
X0198381Y0089811D01*
X0198381Y0091409D02*
X0206981Y0091409D01*
X0206981Y0093008D02*
X0198381Y0093008D01*
X0197755Y0094606D02*
X0207607Y0094606D01*
X0209278Y0096205D02*
X0196084Y0096205D01*
X0197323Y0097803D02*
X0216041Y0097803D01*
X0214443Y0096205D02*
X0213884Y0096205D01*
X0216902Y0093008D02*
X0250541Y0093008D01*
X0250541Y0094606D02*
X0218501Y0094606D01*
X0216181Y0091409D02*
X0250541Y0091409D01*
X0250541Y0089811D02*
X0216181Y0089811D01*
X0216181Y0088212D02*
X0250541Y0088212D01*
X0250541Y0086614D02*
X0216181Y0086614D01*
X0216078Y0085015D02*
X0250541Y0085015D01*
X0250541Y0083417D02*
X0234078Y0083417D01*
X0235676Y0081818D02*
X0250541Y0081818D01*
X0250541Y0080220D02*
X0237275Y0080220D01*
X0238873Y0078621D02*
X0251091Y0078621D01*
X0252690Y0077023D02*
X0240472Y0077023D01*
X0242070Y0075424D02*
X0254288Y0075424D01*
X0257142Y0072227D02*
X0320860Y0072227D01*
X0322459Y0070629D02*
X0258741Y0070629D01*
X0260339Y0069030D02*
X0324057Y0069030D01*
X0325656Y0067432D02*
X0263529Y0067432D01*
X0263941Y0065833D02*
X0327254Y0065833D01*
X0328853Y0064235D02*
X0304832Y0064235D01*
X0305858Y0062636D02*
X0330451Y0062636D01*
X0332050Y0061038D02*
X0305889Y0061038D01*
X0304906Y0059439D02*
X0333648Y0059439D01*
X0335247Y0057841D02*
X0263616Y0057841D01*
X0263616Y0059439D02*
X0300576Y0059439D01*
X0300650Y0064235D02*
X0263616Y0064235D01*
X0259616Y0062636D02*
X0219241Y0062636D01*
X0219241Y0061038D02*
X0259616Y0061038D01*
X0259616Y0059439D02*
X0219241Y0059439D01*
X0219241Y0057841D02*
X0259616Y0057841D01*
X0259616Y0056242D02*
X0220627Y0056242D01*
X0222226Y0054644D02*
X0259616Y0054644D01*
X0259616Y0053045D02*
X0223824Y0053045D01*
X0225423Y0051447D02*
X0259616Y0051447D01*
X0259616Y0049848D02*
X0227021Y0049848D01*
X0228620Y0048250D02*
X0259616Y0048250D01*
X0259616Y0046651D02*
X0230218Y0046651D01*
X0231817Y0045053D02*
X0259616Y0045053D01*
X0259616Y0043454D02*
X0233415Y0043454D01*
X0235014Y0041856D02*
X0259616Y0041856D01*
X0259616Y0040257D02*
X0236612Y0040257D01*
X0238211Y0038659D02*
X0259616Y0038659D01*
X0259616Y0037060D02*
X0239809Y0037060D01*
X0241408Y0035462D02*
X0259616Y0035462D01*
X0259616Y0033863D02*
X0258818Y0033863D01*
X0255964Y0033863D02*
X0248818Y0033863D01*
X0251107Y0032265D02*
X0253675Y0032265D01*
X0252905Y0030666D02*
X0251877Y0030666D01*
X0251991Y0029068D02*
X0252791Y0029068D01*
X0252791Y0027469D02*
X0251991Y0027469D01*
X0251991Y0025870D02*
X0252791Y0025870D01*
X0252791Y0024272D02*
X0251991Y0024272D01*
X0251991Y0022673D02*
X0252791Y0022673D01*
X0253406Y0021075D02*
X0251376Y0021075D01*
X0249758Y0019476D02*
X0255024Y0019476D01*
X0259758Y0019476D02*
X0262361Y0019476D01*
X0263366Y0017878D02*
X0168991Y0017878D01*
X0169758Y0019476D02*
X0175024Y0019476D01*
X0173406Y0021075D02*
X0171376Y0021075D01*
X0171991Y0022673D02*
X0172791Y0022673D01*
X0172791Y0024272D02*
X0171991Y0024272D01*
X0171991Y0025870D02*
X0172791Y0025870D01*
X0172791Y0027469D02*
X0171991Y0027469D01*
X0171991Y0029068D02*
X0172791Y0029068D01*
X0172905Y0030666D02*
X0171877Y0030666D01*
X0171107Y0032265D02*
X0173675Y0032265D01*
X0175964Y0033863D02*
X0168818Y0033863D01*
X0165964Y0033863D02*
X0158818Y0033863D01*
X0161107Y0032265D02*
X0163675Y0032265D01*
X0162905Y0030666D02*
X0161877Y0030666D01*
X0161991Y0029068D02*
X0162791Y0029068D01*
X0162791Y0027469D02*
X0161991Y0027469D01*
X0161991Y0025870D02*
X0162791Y0025870D01*
X0162791Y0024272D02*
X0162597Y0024272D01*
X0161736Y0019476D02*
X0159758Y0019476D01*
X0163335Y0017878D02*
X0131772Y0017878D01*
X0130174Y0016279D02*
X0164933Y0016279D01*
X0166532Y0014681D02*
X0128575Y0014681D01*
X0126977Y0013082D02*
X0168130Y0013082D01*
X0169729Y0011484D02*
X0125378Y0011484D01*
X0124517Y0016279D02*
X0088665Y0016279D01*
X0088665Y0017878D02*
X0126116Y0017878D01*
X0127714Y0019476D02*
X0088665Y0019476D01*
X0088665Y0009885D02*
X0171327Y0009885D01*
X0172188Y0014681D02*
X0263366Y0014681D01*
X0263366Y0016279D02*
X0170590Y0016279D01*
X0155024Y0019476D02*
X0149758Y0019476D01*
X0151376Y0021075D02*
X0153406Y0021075D01*
X0152791Y0022673D02*
X0151991Y0022673D01*
X0151991Y0024272D02*
X0152791Y0024272D01*
X0152791Y0025870D02*
X0151991Y0025870D01*
X0151991Y0027469D02*
X0152791Y0027469D01*
X0152791Y0029068D02*
X0151991Y0029068D01*
X0151877Y0030666D02*
X0152905Y0030666D01*
X0153675Y0032265D02*
X0151107Y0032265D01*
X0149241Y0033863D02*
X0155964Y0033863D01*
X0145241Y0033863D02*
X0139241Y0033863D01*
X0139241Y0035462D02*
X0145241Y0035462D01*
X0145241Y0037060D02*
X0139241Y0037060D01*
X0139241Y0038659D02*
X0145241Y0038659D01*
X0145241Y0040257D02*
X0139241Y0040257D01*
X0139241Y0041856D02*
X0145241Y0041856D01*
X0145241Y0043454D02*
X0139241Y0043454D01*
X0139241Y0045053D02*
X0145241Y0045053D01*
X0145241Y0046651D02*
X0139241Y0046651D01*
X0139241Y0048250D02*
X0145241Y0048250D01*
X0145241Y0049848D02*
X0139241Y0049848D01*
X0139241Y0051447D02*
X0145241Y0051447D01*
X0145241Y0053045D02*
X0139241Y0053045D01*
X0137851Y0054644D02*
X0145241Y0054644D01*
X0145241Y0056242D02*
X0136252Y0056242D01*
X0134654Y0057841D02*
X0145241Y0057841D01*
X0145241Y0059439D02*
X0134292Y0059439D01*
X0134954Y0061038D02*
X0145241Y0061038D01*
X0145241Y0062636D02*
X0135041Y0062636D01*
X0135041Y0064235D02*
X0145241Y0064235D01*
X0145241Y0065833D02*
X0134427Y0065833D01*
X0133640Y0067432D02*
X0145241Y0067432D01*
X0145241Y0069030D02*
X0132042Y0069030D01*
X0122440Y0069030D02*
X0087214Y0069030D01*
X0088813Y0067432D02*
X0120842Y0067432D01*
X0120055Y0065833D02*
X0090411Y0065833D01*
X0092010Y0064235D02*
X0119441Y0064235D01*
X0119441Y0062636D02*
X0093608Y0062636D01*
X0095207Y0061038D02*
X0119528Y0061038D01*
X0120190Y0059439D02*
X0096805Y0059439D01*
X0098404Y0057841D02*
X0121169Y0057841D01*
X0122768Y0056242D02*
X0100002Y0056242D01*
X0101601Y0054644D02*
X0132194Y0054644D01*
X0133792Y0053045D02*
X0103199Y0053045D01*
X0104798Y0051447D02*
X0135241Y0051447D01*
X0135241Y0049848D02*
X0106396Y0049848D01*
X0107995Y0048250D02*
X0135241Y0048250D01*
X0135241Y0046651D02*
X0109593Y0046651D01*
X0111192Y0045053D02*
X0135241Y0045053D01*
X0135241Y0043454D02*
X0112790Y0043454D01*
X0114389Y0041856D02*
X0135241Y0041856D01*
X0135241Y0040257D02*
X0115987Y0040257D01*
X0119283Y0038659D02*
X0135241Y0038659D01*
X0135241Y0037060D02*
X0120338Y0037060D01*
X0120409Y0035462D02*
X0135241Y0035462D01*
X0135241Y0033863D02*
X0119455Y0033863D01*
X0107133Y0043454D02*
X0046153Y0043454D01*
X0046699Y0045053D02*
X0063885Y0045053D01*
X0063417Y0046651D02*
X0046699Y0046651D01*
X0046699Y0048250D02*
X0063417Y0048250D01*
X0063417Y0049848D02*
X0046699Y0049848D01*
X0046699Y0051447D02*
X0063417Y0051447D01*
X0063417Y0053045D02*
X0046699Y0053045D01*
X0044241Y0054644D02*
X0063417Y0054644D01*
X0063417Y0056242D02*
X0044241Y0056242D01*
X0044241Y0057841D02*
X0063417Y0057841D01*
X0063806Y0059439D02*
X0044241Y0059439D01*
X0044241Y0061038D02*
X0076099Y0061038D01*
X0075441Y0062636D02*
X0044241Y0062636D01*
X0044241Y0064235D02*
X0075441Y0064235D01*
X0075175Y0065833D02*
X0075962Y0065833D01*
X0076066Y0067432D02*
X0077243Y0067432D01*
X0075924Y0069030D02*
X0081557Y0069030D01*
X0079959Y0070629D02*
X0074866Y0070629D01*
X0074866Y0072227D02*
X0078360Y0072227D01*
X0076762Y0073826D02*
X0074866Y0073826D01*
X0074866Y0075424D02*
X0075163Y0075424D01*
X0070866Y0075424D02*
X0044241Y0075424D01*
X0044241Y0073826D02*
X0070866Y0073826D01*
X0070866Y0072227D02*
X0044241Y0072227D01*
X0044241Y0070629D02*
X0070866Y0070629D01*
X0069808Y0069030D02*
X0044241Y0069030D01*
X0044241Y0067432D02*
X0069666Y0067432D01*
X0070557Y0065833D02*
X0044241Y0065833D01*
X0044241Y0077023D02*
X0070866Y0077023D01*
X0070866Y0078621D02*
X0044241Y0078621D01*
X0044241Y0080220D02*
X0070866Y0080220D01*
X0070866Y0081818D02*
X0044241Y0081818D01*
X0044241Y0083417D02*
X0070866Y0083417D01*
X0070866Y0085015D02*
X0044241Y0085015D01*
X0044241Y0086614D02*
X0070866Y0086614D01*
X0070866Y0088212D02*
X0044241Y0088212D01*
X0044241Y0089811D02*
X0070866Y0089811D01*
X0072147Y0091409D02*
X0044241Y0091409D01*
X0044241Y0093008D02*
X0073746Y0093008D01*
X0075344Y0094606D02*
X0044241Y0094606D01*
X0044241Y0096205D02*
X0076943Y0096205D01*
X0078541Y0097803D02*
X0044241Y0097803D01*
X0044241Y0099402D02*
X0077672Y0099402D01*
X0076114Y0101001D02*
X0044241Y0101001D01*
X0044241Y0102599D02*
X0075452Y0102599D01*
X0075441Y0104198D02*
X0068268Y0104198D01*
X0069487Y0105796D02*
X0074792Y0105796D01*
X0073193Y0107395D02*
X0069691Y0107395D01*
X0068948Y0108993D02*
X0071594Y0108993D01*
X0071491Y0110592D02*
X0068616Y0110592D01*
X0068616Y0112190D02*
X0071491Y0112190D01*
X0064616Y0112190D02*
X0057231Y0112190D01*
X0055998Y0110592D02*
X0064616Y0110592D01*
X0064034Y0108993D02*
X0045387Y0108993D01*
X0044241Y0107395D02*
X0063291Y0107395D01*
X0063495Y0105796D02*
X0044241Y0105796D01*
X0044241Y0104198D02*
X0064714Y0104198D01*
X0064621Y0124978D02*
X0063691Y0124978D01*
X0078165Y0156948D02*
X0082741Y0156948D01*
X0082741Y0158547D02*
X0079143Y0158547D01*
X0079104Y0160145D02*
X0082741Y0160145D01*
X0082741Y0161744D02*
X0078073Y0161744D01*
X0077991Y0163342D02*
X0082741Y0163342D01*
X0186331Y0115387D02*
X0190421Y0115387D01*
X0191397Y0111050D02*
X0186331Y0111050D01*
X0186331Y0109215D01*
X0185615Y0108500D01*
X0186331Y0107785D01*
X0186331Y0101341D01*
X0185929Y0100940D01*
X0190366Y0096503D01*
X0198205Y0104342D01*
X0198205Y0109392D01*
X0199142Y0110330D01*
X0200241Y0110330D01*
X0200241Y0114097D01*
X0198021Y0116317D01*
X0198021Y0112844D01*
X0197442Y0111447D01*
X0196373Y0110379D01*
X0194977Y0109800D01*
X0193465Y0109800D01*
X0192068Y0110379D01*
X0191397Y0111050D01*
X0191855Y0110592D02*
X0186331Y0110592D01*
X0186108Y0108993D02*
X0198205Y0108993D01*
X0198205Y0107395D02*
X0186331Y0107395D01*
X0186331Y0105796D02*
X0198205Y0105796D01*
X0198060Y0104198D02*
X0186331Y0104198D01*
X0186331Y0102599D02*
X0196462Y0102599D01*
X0194863Y0101001D02*
X0185990Y0101001D01*
X0187467Y0099402D02*
X0193265Y0099402D01*
X0191666Y0097803D02*
X0189066Y0097803D01*
X0198921Y0099402D02*
X0217640Y0099402D01*
X0213630Y0101001D02*
X0222252Y0101001D01*
X0224730Y0101001D02*
X0245112Y0101001D01*
X0243514Y0102599D02*
X0214397Y0102599D01*
X0214397Y0104198D02*
X0241915Y0104198D01*
X0240317Y0105796D02*
X0240057Y0105796D01*
X0242776Y0108993D02*
X0243366Y0108993D01*
X0243366Y0108403D02*
X0242025Y0109744D01*
X0242854Y0110087D01*
X0243366Y0110600D01*
X0243366Y0108403D01*
X0243358Y0110592D02*
X0243366Y0110592D01*
X0247366Y0110592D02*
X0268204Y0110592D01*
X0269616Y0112003D02*
X0263288Y0105675D01*
X0257266Y0105675D01*
X0256554Y0106388D01*
X0255378Y0106875D01*
X0254104Y0106875D01*
X0252928Y0106388D01*
X0252028Y0105488D01*
X0251839Y0105031D01*
X0247366Y0109503D01*
X0247366Y0120128D01*
X0241097Y0126398D01*
X0241554Y0126587D01*
X0242454Y0127487D01*
X0242941Y0128663D01*
X0242941Y0129937D01*
X0242454Y0131113D01*
X0241741Y0131825D01*
X0241741Y0142263D01*
X0248602Y0142263D01*
X0248776Y0142437D01*
X0249538Y0141675D01*
X0252896Y0138316D01*
X0252791Y0138062D01*
X0252791Y0136788D01*
X0253278Y0135612D01*
X0254178Y0134712D01*
X0255354Y0134225D01*
X0256628Y0134225D01*
X0256882Y0134330D01*
X0259413Y0131800D01*
X0257544Y0129931D01*
X0257378Y0130000D01*
X0256104Y0130000D01*
X0254928Y0129513D01*
X0254028Y0128613D01*
X0253541Y0127437D01*
X0253541Y0126163D01*
X0254028Y0124987D01*
X0254928Y0124087D01*
X0256104Y0123600D01*
X0257378Y0123600D01*
X0258554Y0124087D01*
X0259454Y0124987D01*
X0259941Y0126163D01*
X0259941Y0126672D01*
X0262301Y0129032D01*
X0265866Y0129032D01*
X0265866Y0120675D01*
X0264766Y0120675D01*
X0264054Y0121388D01*
X0262878Y0121875D01*
X0261604Y0121875D01*
X0260428Y0121388D01*
X0259528Y0120488D01*
X0259041Y0119312D01*
X0259041Y0118038D01*
X0259528Y0116862D01*
X0260428Y0115962D01*
X0261604Y0115475D01*
X0262878Y0115475D01*
X0264054Y0115962D01*
X0264766Y0116675D01*
X0266638Y0116675D01*
X0267042Y0116271D01*
X0269317Y0116271D01*
X0269616Y0115972D01*
X0269616Y0112003D01*
X0269616Y0112190D02*
X0247366Y0112190D01*
X0247366Y0113789D02*
X0269616Y0113789D01*
X0269616Y0115387D02*
X0247366Y0115387D01*
X0247366Y0116986D02*
X0259477Y0116986D01*
X0259041Y0118584D02*
X0247366Y0118584D01*
X0247312Y0120183D02*
X0259402Y0120183D01*
X0261378Y0121781D02*
X0245713Y0121781D01*
X0244115Y0123380D02*
X0265866Y0123380D01*
X0265866Y0124978D02*
X0259445Y0124978D01*
X0259941Y0126577D02*
X0265866Y0126577D01*
X0265866Y0128175D02*
X0261445Y0128175D01*
X0258985Y0131372D02*
X0242194Y0131372D01*
X0241741Y0132971D02*
X0258242Y0132971D01*
X0261384Y0135486D02*
X0259191Y0137678D01*
X0259191Y0138062D01*
X0258704Y0139238D01*
X0257804Y0140138D01*
X0256628Y0140625D01*
X0256244Y0140625D01*
X0254606Y0142263D01*
X0259625Y0142263D01*
X0260562Y0143200D01*
X0260562Y0148550D01*
X0271024Y0148550D01*
X0271024Y0144646D01*
X0271491Y0144179D01*
X0271491Y0136169D01*
X0268759Y0136169D01*
X0268241Y0135650D01*
X0267723Y0136169D01*
X0262066Y0136169D01*
X0261384Y0135486D01*
X0260702Y0136168D02*
X0262066Y0136168D01*
X0259191Y0137766D02*
X0271491Y0137766D01*
X0271491Y0139365D02*
X0258577Y0139365D01*
X0255906Y0140963D02*
X0271491Y0140963D01*
X0271491Y0142562D02*
X0259924Y0142562D01*
X0260562Y0144160D02*
X0271491Y0144160D01*
X0271024Y0145759D02*
X0260562Y0145759D01*
X0260562Y0147357D02*
X0271024Y0147357D01*
X0275491Y0143708D02*
X0276043Y0143708D01*
X0276561Y0144227D01*
X0277079Y0143708D01*
X0277116Y0143708D01*
X0277116Y0117003D01*
X0273616Y0113503D01*
X0273616Y0117628D01*
X0272466Y0118778D01*
X0272513Y0118950D01*
X0272366Y0119207D01*
X0272366Y0129032D01*
X0274416Y0129032D01*
X0275353Y0129969D01*
X0275353Y0133958D01*
X0275491Y0134097D01*
X0275491Y0143708D01*
X0276495Y0144160D02*
X0276627Y0144160D01*
X0277116Y0142562D02*
X0275491Y0142562D01*
X0275491Y0140963D02*
X0277116Y0140963D01*
X0277116Y0139365D02*
X0275491Y0139365D01*
X0275491Y0137766D02*
X0277116Y0137766D01*
X0277116Y0136168D02*
X0275491Y0136168D01*
X0275491Y0134569D02*
X0277116Y0134569D01*
X0277116Y0132971D02*
X0275353Y0132971D01*
X0275353Y0131372D02*
X0277116Y0131372D01*
X0277116Y0129774D02*
X0275158Y0129774D01*
X0277116Y0128175D02*
X0272366Y0128175D01*
X0272366Y0126577D02*
X0277116Y0126577D01*
X0277116Y0124978D02*
X0272366Y0124978D01*
X0272366Y0123380D02*
X0277116Y0123380D01*
X0277116Y0121781D02*
X0272366Y0121781D01*
X0272366Y0120183D02*
X0277116Y0120183D01*
X0277116Y0118584D02*
X0272660Y0118584D01*
X0273616Y0116986D02*
X0277098Y0116986D01*
X0275500Y0115387D02*
X0273616Y0115387D01*
X0273616Y0113789D02*
X0273901Y0113789D01*
X0276361Y0110592D02*
X0296941Y0110592D01*
X0296941Y0112028D02*
X0296941Y0102828D01*
X0280913Y0086800D01*
X0279904Y0086800D01*
X0278728Y0086313D01*
X0277828Y0085413D01*
X0277341Y0084237D01*
X0277341Y0082963D01*
X0277828Y0081787D01*
X0278728Y0080887D01*
X0279904Y0080400D01*
X0281178Y0080400D01*
X0282354Y0080887D01*
X0283254Y0081787D01*
X0283741Y0082963D01*
X0283741Y0083972D01*
X0299741Y0099972D01*
X0299741Y0097628D01*
X0280913Y0078800D01*
X0256569Y0078800D01*
X0254541Y0080828D01*
X0254541Y0097228D01*
X0253369Y0098400D01*
X0253219Y0098550D01*
X0264319Y0098550D01*
X0265491Y0099722D01*
X0279944Y0114175D01*
X0281116Y0115347D01*
X0281116Y0143708D01*
X0281161Y0143708D01*
X0281832Y0144380D01*
X0301010Y0125203D01*
X0300941Y0125037D01*
X0300941Y0123763D01*
X0301428Y0122587D01*
X0302328Y0121687D01*
X0303504Y0121200D01*
X0304541Y0121200D01*
X0304541Y0119628D01*
X0298113Y0113200D01*
X0296941Y0112028D01*
X0297103Y0112190D02*
X0277960Y0112190D01*
X0279558Y0113789D02*
X0298701Y0113789D01*
X0300300Y0115387D02*
X0281116Y0115387D01*
X0281116Y0116986D02*
X0301898Y0116986D01*
X0303497Y0118584D02*
X0281116Y0118584D01*
X0281116Y0120183D02*
X0304541Y0120183D01*
X0302234Y0121781D02*
X0281116Y0121781D01*
X0281116Y0123380D02*
X0301100Y0123380D01*
X0300941Y0124978D02*
X0288445Y0124978D01*
X0288454Y0124987D02*
X0288941Y0126163D01*
X0288941Y0127437D01*
X0288454Y0128613D01*
X0287554Y0129513D01*
X0286378Y0130000D01*
X0285104Y0130000D01*
X0283928Y0129513D01*
X0283028Y0128613D01*
X0282541Y0127437D01*
X0282541Y0126163D01*
X0283028Y0124987D01*
X0283928Y0124087D01*
X0285104Y0123600D01*
X0286378Y0123600D01*
X0287554Y0124087D01*
X0288454Y0124987D01*
X0288941Y0126577D02*
X0299636Y0126577D01*
X0298037Y0128175D02*
X0288635Y0128175D01*
X0286924Y0129774D02*
X0296439Y0129774D01*
X0294840Y0131372D02*
X0281116Y0131372D01*
X0281116Y0129774D02*
X0284558Y0129774D01*
X0282847Y0128175D02*
X0281116Y0128175D01*
X0281116Y0126577D02*
X0282541Y0126577D01*
X0283037Y0124978D02*
X0281116Y0124978D01*
X0281116Y0132971D02*
X0293242Y0132971D01*
X0291643Y0134569D02*
X0281116Y0134569D01*
X0281116Y0136168D02*
X0290045Y0136168D01*
X0288446Y0137766D02*
X0281116Y0137766D01*
X0281116Y0139365D02*
X0286848Y0139365D01*
X0285249Y0140963D02*
X0281116Y0140963D01*
X0281116Y0142562D02*
X0283651Y0142562D01*
X0282052Y0144160D02*
X0281613Y0144160D01*
X0286111Y0145759D02*
X0295454Y0145759D01*
X0297052Y0144160D02*
X0287709Y0144160D01*
X0289308Y0142562D02*
X0298651Y0142562D01*
X0300249Y0140963D02*
X0290906Y0140963D01*
X0292505Y0139365D02*
X0301848Y0139365D01*
X0303446Y0137766D02*
X0294103Y0137766D01*
X0295702Y0136168D02*
X0305045Y0136168D01*
X0306104Y0135000D02*
X0304928Y0134513D01*
X0304028Y0133613D01*
X0303541Y0132437D01*
X0303541Y0131163D01*
X0304028Y0129987D01*
X0304928Y0129087D01*
X0306104Y0128600D01*
X0307378Y0128600D01*
X0308554Y0129087D01*
X0309454Y0129987D01*
X0309941Y0131163D01*
X0309941Y0131272D01*
X0323404Y0117809D01*
X0323404Y0111620D01*
X0319741Y0115283D01*
X0319741Y0117228D01*
X0318569Y0118400D01*
X0314941Y0122028D01*
X0314941Y0123037D01*
X0314454Y0124213D01*
X0313554Y0125113D01*
X0312378Y0125600D01*
X0311104Y0125600D01*
X0309928Y0125113D01*
X0309028Y0124213D01*
X0308541Y0123037D01*
X0308541Y0121763D01*
X0309028Y0120587D01*
X0309928Y0119687D01*
X0311104Y0119200D01*
X0312113Y0119200D01*
X0315741Y0115572D01*
X0315741Y0113626D01*
X0323404Y0105963D01*
X0323404Y0099639D01*
X0324341Y0098702D01*
X0333541Y0098702D01*
X0334478Y0099639D01*
X0334478Y0106870D01*
X0333541Y0107807D01*
X0327217Y0107807D01*
X0324511Y0110513D01*
X0330700Y0110513D01*
X0330788Y0110425D01*
X0345241Y0110425D01*
X0345241Y0071925D01*
X0337794Y0071925D01*
X0337794Y0073142D01*
X0337275Y0073660D01*
X0337794Y0074178D01*
X0337794Y0074800D01*
X0339091Y0074800D01*
X0339803Y0074087D01*
X0340979Y0073600D01*
X0342253Y0073600D01*
X0343429Y0074087D01*
X0344329Y0074987D01*
X0344816Y0076163D01*
X0344816Y0077437D01*
X0344329Y0078613D01*
X0343429Y0079513D01*
X0342253Y0080000D01*
X0340979Y0080000D01*
X0339803Y0079513D01*
X0339091Y0078800D01*
X0337794Y0078800D01*
X0337794Y0080622D01*
X0336856Y0081559D01*
X0335241Y0081559D01*
X0335241Y0082128D01*
X0314541Y0102828D01*
X0314541Y0111628D01*
X0313369Y0112800D01*
X0303369Y0112800D01*
X0308541Y0117972D01*
X0308541Y0124028D01*
X0307369Y0125200D01*
X0307205Y0125364D01*
X0306854Y0126213D01*
X0305954Y0127113D01*
X0304778Y0127600D01*
X0304269Y0127600D01*
X0284241Y0147628D01*
X0284241Y0151378D01*
X0283069Y0152550D01*
X0260412Y0152550D01*
X0259625Y0153337D01*
X0257991Y0153337D01*
X0257991Y0155425D01*
X0259319Y0155425D01*
X0259944Y0156050D01*
X0261078Y0157184D01*
X0267353Y0157184D01*
X0267441Y0157272D01*
X0267589Y0157124D01*
X0275213Y0157124D01*
X0275301Y0157212D01*
X0275389Y0157124D01*
X0283013Y0157124D01*
X0283531Y0157642D01*
X0283889Y0157284D01*
X0285866Y0157284D01*
X0285866Y0149722D01*
X0287038Y0148550D01*
X0292663Y0148550D01*
X0306213Y0135000D01*
X0306104Y0135000D01*
X0305065Y0134569D02*
X0297300Y0134569D01*
X0298899Y0132971D02*
X0303762Y0132971D01*
X0303541Y0131372D02*
X0300497Y0131372D01*
X0302096Y0129774D02*
X0304242Y0129774D01*
X0303694Y0128175D02*
X0313037Y0128175D01*
X0311439Y0129774D02*
X0309240Y0129774D01*
X0306490Y0126577D02*
X0314636Y0126577D01*
X0313688Y0124978D02*
X0316234Y0124978D01*
X0314799Y0123380D02*
X0317833Y0123380D01*
X0319431Y0121781D02*
X0315188Y0121781D01*
X0316787Y0120183D02*
X0321030Y0120183D01*
X0322628Y0118584D02*
X0318385Y0118584D01*
X0319741Y0116986D02*
X0323404Y0116986D01*
X0323404Y0115387D02*
X0319741Y0115387D01*
X0321235Y0113789D02*
X0323404Y0113789D01*
X0323404Y0112190D02*
X0322834Y0112190D01*
X0318775Y0110592D02*
X0314541Y0110592D01*
X0314541Y0108993D02*
X0320374Y0108993D01*
X0321972Y0107395D02*
X0314541Y0107395D01*
X0314541Y0105796D02*
X0323404Y0105796D01*
X0323404Y0104198D02*
X0314541Y0104198D01*
X0314770Y0102599D02*
X0323404Y0102599D01*
X0323404Y0101001D02*
X0316369Y0101001D01*
X0317967Y0099402D02*
X0323641Y0099402D01*
X0319566Y0097803D02*
X0345241Y0097803D01*
X0345241Y0096205D02*
X0321164Y0096205D01*
X0322763Y0094606D02*
X0345241Y0094606D01*
X0345241Y0093008D02*
X0324361Y0093008D01*
X0325960Y0091409D02*
X0345241Y0091409D01*
X0345241Y0089811D02*
X0327558Y0089811D01*
X0329157Y0088212D02*
X0345241Y0088212D01*
X0345241Y0086614D02*
X0330755Y0086614D01*
X0332354Y0085015D02*
X0345241Y0085015D01*
X0345241Y0083417D02*
X0333953Y0083417D01*
X0335241Y0081818D02*
X0345241Y0081818D01*
X0345241Y0080220D02*
X0337794Y0080220D01*
X0337441Y0073826D02*
X0340434Y0073826D01*
X0342798Y0073826D02*
X0345241Y0073826D01*
X0345241Y0075424D02*
X0344510Y0075424D01*
X0344816Y0077023D02*
X0345241Y0077023D01*
X0345241Y0078621D02*
X0344320Y0078621D01*
X0349241Y0078621D02*
X0375866Y0078621D01*
X0375866Y0077023D02*
X0349241Y0077023D01*
X0349241Y0075424D02*
X0375866Y0075424D01*
X0375866Y0073826D02*
X0349241Y0073826D01*
X0349241Y0072227D02*
X0375866Y0072227D01*
X0377428Y0067925D02*
X0377428Y0067550D01*
X0365788Y0067550D01*
X0364139Y0065902D01*
X0363860Y0066181D01*
X0362316Y0066820D01*
X0360646Y0066820D01*
X0359102Y0066181D01*
X0357920Y0064999D01*
X0357281Y0063455D01*
X0357281Y0059043D01*
X0355681Y0057443D01*
X0355681Y0063455D01*
X0355042Y0064999D01*
X0353860Y0066181D01*
X0352316Y0066820D01*
X0350646Y0066820D01*
X0349102Y0066181D01*
X0347920Y0064999D01*
X0347281Y0063455D01*
X0347281Y0056585D01*
X0347917Y0055050D01*
X0343694Y0055050D01*
X0332984Y0065761D01*
X0336856Y0065761D01*
X0337794Y0066698D01*
X0337794Y0067925D01*
X0377428Y0067925D01*
X0377428Y0062636D02*
X0366531Y0062636D01*
X0365681Y0061038D02*
X0392486Y0061038D01*
X0392486Y0062636D02*
X0386534Y0062636D01*
X0386534Y0064235D02*
X0392487Y0064235D01*
X0392488Y0065833D02*
X0386534Y0065833D01*
X0386534Y0067432D02*
X0392488Y0067432D01*
X0392489Y0069030D02*
X0386485Y0069030D01*
X0386534Y0070629D02*
X0392490Y0070629D01*
X0392490Y0072227D02*
X0386534Y0072227D01*
X0386534Y0073826D02*
X0392491Y0073826D01*
X0392492Y0075424D02*
X0386534Y0075424D01*
X0385973Y0077023D02*
X0392492Y0077023D01*
X0392493Y0078621D02*
X0379866Y0078621D01*
X0379866Y0080220D02*
X0392493Y0080220D01*
X0392494Y0081818D02*
X0379866Y0081818D01*
X0379866Y0083417D02*
X0392495Y0083417D01*
X0392495Y0085015D02*
X0379866Y0085015D01*
X0379866Y0086614D02*
X0392496Y0086614D01*
X0392497Y0088212D02*
X0379866Y0088212D01*
X0380795Y0089811D02*
X0392497Y0089811D01*
X0392498Y0091409D02*
X0380941Y0091409D01*
X0380059Y0093008D02*
X0392499Y0093008D01*
X0392499Y0094606D02*
X0365204Y0094606D01*
X0365042Y0094999D02*
X0363860Y0096181D01*
X0362316Y0096820D01*
X0360646Y0096820D01*
X0359102Y0096181D01*
X0357920Y0094999D01*
X0357281Y0093455D01*
X0357281Y0086585D01*
X0357920Y0085041D01*
X0359102Y0083859D01*
X0360646Y0083220D01*
X0362316Y0083220D01*
X0363860Y0083859D01*
X0365042Y0085041D01*
X0365681Y0086585D01*
X0365681Y0093455D01*
X0365042Y0094999D01*
X0363801Y0096205D02*
X0392500Y0096205D01*
X0392501Y0097803D02*
X0352991Y0097803D01*
X0352991Y0099402D02*
X0392501Y0099402D01*
X0392502Y0101001D02*
X0352991Y0101001D01*
X0352991Y0102599D02*
X0392502Y0102599D01*
X0392503Y0104198D02*
X0387440Y0104198D01*
X0387447Y0104200D02*
X0388741Y0105494D01*
X0389441Y0107185D01*
X0389441Y0109015D01*
X0388741Y0110706D01*
X0387447Y0112000D01*
X0385756Y0112700D01*
X0377926Y0112700D01*
X0376235Y0112000D01*
X0374941Y0110706D01*
X0374241Y0109015D01*
X0374241Y0107185D01*
X0374941Y0105494D01*
X0376235Y0104200D01*
X0377926Y0103500D01*
X0385756Y0103500D01*
X0387447Y0104200D01*
X0388866Y0105796D02*
X0392504Y0105796D01*
X0392504Y0107395D02*
X0389441Y0107395D01*
X0389441Y0108993D02*
X0392505Y0108993D01*
X0392506Y0110592D02*
X0388788Y0110592D01*
X0386987Y0112190D02*
X0392506Y0112190D01*
X0392507Y0113789D02*
X0386453Y0113789D01*
X0388633Y0115387D02*
X0392508Y0115387D01*
X0392508Y0116986D02*
X0389358Y0116986D01*
X0389441Y0118584D02*
X0392509Y0118584D01*
X0392510Y0120183D02*
X0388957Y0120183D01*
X0387665Y0121781D02*
X0392510Y0121781D01*
X0392511Y0123380D02*
X0323490Y0123380D01*
X0321891Y0124978D02*
X0342842Y0124978D01*
X0342842Y0126577D02*
X0320293Y0126577D01*
X0325088Y0121781D02*
X0360576Y0121781D01*
X0362906Y0121781D02*
X0376017Y0121781D01*
X0374725Y0120183D02*
X0364632Y0120183D01*
X0358850Y0120183D02*
X0326687Y0120183D01*
X0334478Y0118584D02*
X0346822Y0118584D01*
X0345223Y0116986D02*
X0334478Y0116986D01*
X0334478Y0115387D02*
X0343625Y0115387D01*
X0352732Y0115387D02*
X0375048Y0115387D01*
X0377229Y0113789D02*
X0352991Y0113789D01*
X0352991Y0112190D02*
X0376695Y0112190D01*
X0374894Y0110592D02*
X0352991Y0110592D01*
X0352991Y0108993D02*
X0374241Y0108993D01*
X0374241Y0107395D02*
X0352991Y0107395D01*
X0352991Y0105796D02*
X0374816Y0105796D01*
X0376242Y0104198D02*
X0352991Y0104198D01*
X0345241Y0104198D02*
X0334478Y0104198D01*
X0334478Y0105796D02*
X0345241Y0105796D01*
X0345241Y0107395D02*
X0333953Y0107395D01*
X0334478Y0102599D02*
X0345241Y0102599D01*
X0345241Y0101001D02*
X0334478Y0101001D01*
X0334241Y0099402D02*
X0345241Y0099402D01*
X0353801Y0096205D02*
X0359161Y0096205D01*
X0357758Y0094606D02*
X0355204Y0094606D01*
X0355681Y0093008D02*
X0357281Y0093008D01*
X0357281Y0091409D02*
X0355681Y0091409D01*
X0355681Y0089811D02*
X0357281Y0089811D01*
X0357281Y0088212D02*
X0355681Y0088212D01*
X0355681Y0086614D02*
X0357281Y0086614D01*
X0357946Y0085015D02*
X0355016Y0085015D01*
X0352792Y0083417D02*
X0360170Y0083417D01*
X0362792Y0083417D02*
X0375866Y0083417D01*
X0375866Y0085015D02*
X0365016Y0085015D01*
X0365681Y0086614D02*
X0375866Y0086614D01*
X0375803Y0088212D02*
X0365681Y0088212D01*
X0365681Y0089811D02*
X0374687Y0089811D01*
X0374541Y0091409D02*
X0365681Y0091409D01*
X0365681Y0093008D02*
X0375423Y0093008D01*
X0375866Y0081818D02*
X0349241Y0081818D01*
X0349241Y0080220D02*
X0375866Y0080220D01*
X0365669Y0067432D02*
X0337794Y0067432D01*
X0336929Y0065833D02*
X0348755Y0065833D01*
X0347604Y0064235D02*
X0334510Y0064235D01*
X0336108Y0062636D02*
X0347281Y0062636D01*
X0347281Y0061038D02*
X0337707Y0061038D01*
X0339305Y0059439D02*
X0347281Y0059439D01*
X0347281Y0057841D02*
X0340904Y0057841D01*
X0342502Y0056242D02*
X0347423Y0056242D01*
X0341641Y0051447D02*
X0263616Y0051447D01*
X0263616Y0053045D02*
X0340042Y0053045D01*
X0338444Y0054644D02*
X0263616Y0054644D01*
X0263616Y0056242D02*
X0336845Y0056242D01*
X0354207Y0065833D02*
X0358755Y0065833D01*
X0357604Y0064235D02*
X0355358Y0064235D01*
X0355681Y0062636D02*
X0357281Y0062636D01*
X0357281Y0061038D02*
X0355681Y0061038D01*
X0355681Y0059439D02*
X0357281Y0059439D01*
X0356078Y0057841D02*
X0355681Y0057841D01*
X0356940Y0053045D02*
X0383461Y0053045D01*
X0383028Y0052613D02*
X0382541Y0051437D01*
X0382541Y0050553D01*
X0380866Y0048878D01*
X0380866Y0032505D01*
X0379997Y0033375D01*
X0378306Y0034075D01*
X0376476Y0034075D01*
X0374785Y0033375D01*
X0373491Y0032081D01*
X0372791Y0030390D01*
X0372791Y0022560D01*
X0373491Y0020869D01*
X0374785Y0019575D01*
X0376476Y0018875D01*
X0376488Y0018875D01*
X0370788Y0013175D01*
X0355891Y0013175D01*
X0355554Y0013513D01*
X0354378Y0014000D01*
X0353104Y0014000D01*
X0351928Y0013513D01*
X0351028Y0012613D01*
X0350541Y0011437D01*
X0350541Y0010163D01*
X0351028Y0008987D01*
X0351928Y0008087D01*
X0353104Y0007600D01*
X0354378Y0007600D01*
X0355554Y0008087D01*
X0356454Y0008987D01*
X0356532Y0009175D01*
X0372444Y0009175D01*
X0383694Y0020425D01*
X0383815Y0020546D01*
X0384785Y0019575D01*
X0386476Y0018875D01*
X0388306Y0018875D01*
X0389997Y0019575D01*
X0391291Y0020869D01*
X0391991Y0022560D01*
X0391991Y0030390D01*
X0391291Y0032081D01*
X0389997Y0033375D01*
X0388306Y0034075D01*
X0386476Y0034075D01*
X0384866Y0033408D01*
X0384866Y0047222D01*
X0385244Y0047600D01*
X0386378Y0047600D01*
X0387554Y0048087D01*
X0388454Y0048987D01*
X0388941Y0050163D01*
X0388941Y0051437D01*
X0388454Y0052613D01*
X0387554Y0053513D01*
X0386378Y0054000D01*
X0385104Y0054000D01*
X0383928Y0053513D01*
X0383028Y0052613D01*
X0382545Y0051447D02*
X0355341Y0051447D01*
X0364644Y0054644D02*
X0392483Y0054644D01*
X0392484Y0056242D02*
X0365539Y0056242D01*
X0365681Y0057841D02*
X0392484Y0057841D01*
X0392485Y0059439D02*
X0365681Y0059439D01*
X0381836Y0049848D02*
X0263616Y0049848D01*
X0263616Y0048250D02*
X0380866Y0048250D01*
X0380866Y0046651D02*
X0263616Y0046651D01*
X0263616Y0045053D02*
X0380866Y0045053D01*
X0380866Y0043454D02*
X0263616Y0043454D01*
X0263616Y0041856D02*
X0380866Y0041856D01*
X0380866Y0040257D02*
X0263616Y0040257D01*
X0263616Y0038659D02*
X0380866Y0038659D01*
X0380866Y0037060D02*
X0263616Y0037060D01*
X0263616Y0035462D02*
X0380866Y0035462D01*
X0380866Y0033863D02*
X0378818Y0033863D01*
X0375964Y0033863D02*
X0368818Y0033863D01*
X0368306Y0034075D02*
X0366476Y0034075D01*
X0364785Y0033375D01*
X0363491Y0032081D01*
X0362791Y0030390D01*
X0362791Y0022560D01*
X0363491Y0020869D01*
X0364785Y0019575D01*
X0366476Y0018875D01*
X0368306Y0018875D01*
X0369997Y0019575D01*
X0371291Y0020869D01*
X0371991Y0022560D01*
X0371991Y0030390D01*
X0371291Y0032081D01*
X0369997Y0033375D01*
X0368306Y0034075D01*
X0365964Y0033863D02*
X0358818Y0033863D01*
X0358306Y0034075D02*
X0359997Y0033375D01*
X0361291Y0032081D01*
X0361991Y0030390D01*
X0361991Y0022560D01*
X0361291Y0020869D01*
X0359997Y0019575D01*
X0358306Y0018875D01*
X0356476Y0018875D01*
X0354785Y0019575D01*
X0353491Y0020869D01*
X0352791Y0022560D01*
X0352791Y0030390D01*
X0353491Y0032081D01*
X0354785Y0033375D01*
X0356476Y0034075D01*
X0358306Y0034075D01*
X0355964Y0033863D02*
X0348818Y0033863D01*
X0348306Y0034075D02*
X0346476Y0034075D01*
X0344785Y0033375D01*
X0343491Y0032081D01*
X0342791Y0030390D01*
X0342791Y0022560D01*
X0343491Y0020869D01*
X0344785Y0019575D01*
X0346476Y0018875D01*
X0348306Y0018875D01*
X0349997Y0019575D01*
X0351291Y0020869D01*
X0351991Y0022560D01*
X0351991Y0030390D01*
X0351291Y0032081D01*
X0349997Y0033375D01*
X0348306Y0034075D01*
X0345964Y0033863D02*
X0338818Y0033863D01*
X0338306Y0034075D02*
X0339997Y0033375D01*
X0341291Y0032081D01*
X0341991Y0030390D01*
X0341991Y0022560D01*
X0341291Y0020869D01*
X0339997Y0019575D01*
X0338306Y0018875D01*
X0336476Y0018875D01*
X0334785Y0019575D01*
X0333491Y0020869D01*
X0332791Y0022560D01*
X0332791Y0030390D01*
X0333491Y0032081D01*
X0334785Y0033375D01*
X0336476Y0034075D01*
X0338306Y0034075D01*
X0335964Y0033863D02*
X0328818Y0033863D01*
X0328306Y0034075D02*
X0326476Y0034075D01*
X0324785Y0033375D01*
X0323491Y0032081D01*
X0322791Y0030390D01*
X0322791Y0022560D01*
X0323491Y0020869D01*
X0324785Y0019575D01*
X0326476Y0018875D01*
X0328306Y0018875D01*
X0329997Y0019575D01*
X0331291Y0020869D01*
X0331991Y0022560D01*
X0331991Y0030390D01*
X0331291Y0032081D01*
X0329997Y0033375D01*
X0328306Y0034075D01*
X0325964Y0033863D02*
X0318818Y0033863D01*
X0318306Y0034075D02*
X0319997Y0033375D01*
X0321291Y0032081D01*
X0321991Y0030390D01*
X0321991Y0022560D01*
X0321291Y0020869D01*
X0319997Y0019575D01*
X0318306Y0018875D01*
X0316476Y0018875D01*
X0314785Y0019575D01*
X0313491Y0020869D01*
X0312791Y0022560D01*
X0312791Y0030390D01*
X0313491Y0032081D01*
X0314785Y0033375D01*
X0316476Y0034075D01*
X0318306Y0034075D01*
X0315964Y0033863D02*
X0308818Y0033863D01*
X0308306Y0034075D02*
X0306476Y0034075D01*
X0304785Y0033375D01*
X0303491Y0032081D01*
X0302791Y0030390D01*
X0302791Y0022560D01*
X0303491Y0020869D01*
X0304785Y0019575D01*
X0306476Y0018875D01*
X0308306Y0018875D01*
X0309997Y0019575D01*
X0311291Y0020869D01*
X0311991Y0022560D01*
X0311991Y0030390D01*
X0311291Y0032081D01*
X0309997Y0033375D01*
X0308306Y0034075D01*
X0305964Y0033863D02*
X0298818Y0033863D01*
X0298306Y0034075D02*
X0299997Y0033375D01*
X0301291Y0032081D01*
X0301991Y0030390D01*
X0301991Y0022560D01*
X0301291Y0020869D01*
X0299997Y0019575D01*
X0298306Y0018875D01*
X0296476Y0018875D01*
X0294785Y0019575D01*
X0293491Y0020869D01*
X0292791Y0022560D01*
X0292791Y0030390D01*
X0293491Y0032081D01*
X0294785Y0033375D01*
X0296476Y0034075D01*
X0298306Y0034075D01*
X0295964Y0033863D02*
X0288818Y0033863D01*
X0288306Y0034075D02*
X0286476Y0034075D01*
X0284785Y0033375D01*
X0283491Y0032081D01*
X0282791Y0030390D01*
X0282791Y0022560D01*
X0283491Y0020869D01*
X0284785Y0019575D01*
X0286476Y0018875D01*
X0288306Y0018875D01*
X0289997Y0019575D01*
X0291291Y0020869D01*
X0291991Y0022560D01*
X0291991Y0030390D01*
X0291291Y0032081D01*
X0289997Y0033375D01*
X0288306Y0034075D01*
X0285964Y0033863D02*
X0278818Y0033863D01*
X0278306Y0034075D02*
X0276476Y0034075D01*
X0274785Y0033375D01*
X0273491Y0032081D01*
X0272791Y0030390D01*
X0272791Y0022560D01*
X0273491Y0020869D01*
X0274785Y0019575D01*
X0276476Y0018875D01*
X0278306Y0018875D01*
X0279997Y0019575D01*
X0281291Y0020869D01*
X0281991Y0022560D01*
X0281991Y0030390D01*
X0281291Y0032081D01*
X0279997Y0033375D01*
X0278306Y0034075D01*
X0275964Y0033863D02*
X0268818Y0033863D01*
X0271107Y0032265D02*
X0273675Y0032265D01*
X0272905Y0030666D02*
X0271877Y0030666D01*
X0271991Y0029068D02*
X0272791Y0029068D01*
X0272791Y0027469D02*
X0271991Y0027469D01*
X0271991Y0025870D02*
X0272791Y0025870D01*
X0272791Y0024272D02*
X0271991Y0024272D01*
X0271991Y0022673D02*
X0272791Y0022673D01*
X0273406Y0021075D02*
X0271376Y0021075D01*
X0269758Y0019476D02*
X0275024Y0019476D01*
X0279758Y0019476D02*
X0285024Y0019476D01*
X0283406Y0021075D02*
X0281376Y0021075D01*
X0281991Y0022673D02*
X0282791Y0022673D01*
X0282791Y0024272D02*
X0281991Y0024272D01*
X0281991Y0025870D02*
X0282791Y0025870D01*
X0282791Y0027469D02*
X0281991Y0027469D01*
X0281991Y0029068D02*
X0282791Y0029068D01*
X0282905Y0030666D02*
X0281877Y0030666D01*
X0281107Y0032265D02*
X0283675Y0032265D01*
X0291107Y0032265D02*
X0293675Y0032265D01*
X0292905Y0030666D02*
X0291877Y0030666D01*
X0291991Y0029068D02*
X0292791Y0029068D01*
X0292791Y0027469D02*
X0291991Y0027469D01*
X0291991Y0025870D02*
X0292791Y0025870D01*
X0292791Y0024272D02*
X0291991Y0024272D01*
X0291991Y0022673D02*
X0292791Y0022673D01*
X0293406Y0021075D02*
X0291376Y0021075D01*
X0289758Y0019476D02*
X0295024Y0019476D01*
X0299758Y0019476D02*
X0305024Y0019476D01*
X0303406Y0021075D02*
X0301376Y0021075D01*
X0301991Y0022673D02*
X0302791Y0022673D01*
X0302791Y0024272D02*
X0301991Y0024272D01*
X0301991Y0025870D02*
X0302791Y0025870D01*
X0302791Y0027469D02*
X0301991Y0027469D01*
X0301991Y0029068D02*
X0302791Y0029068D01*
X0302905Y0030666D02*
X0301877Y0030666D01*
X0301107Y0032265D02*
X0303675Y0032265D01*
X0311107Y0032265D02*
X0313675Y0032265D01*
X0312905Y0030666D02*
X0311877Y0030666D01*
X0311991Y0029068D02*
X0312791Y0029068D01*
X0312791Y0027469D02*
X0311991Y0027469D01*
X0311991Y0025870D02*
X0312791Y0025870D01*
X0312791Y0024272D02*
X0311991Y0024272D01*
X0311991Y0022673D02*
X0312791Y0022673D01*
X0313406Y0021075D02*
X0311376Y0021075D01*
X0309758Y0019476D02*
X0315024Y0019476D01*
X0319758Y0019476D02*
X0325024Y0019476D01*
X0323406Y0021075D02*
X0321376Y0021075D01*
X0321991Y0022673D02*
X0322791Y0022673D01*
X0322791Y0024272D02*
X0321991Y0024272D01*
X0321991Y0025870D02*
X0322791Y0025870D01*
X0322791Y0027469D02*
X0321991Y0027469D01*
X0321991Y0029068D02*
X0322791Y0029068D01*
X0322905Y0030666D02*
X0321877Y0030666D01*
X0321107Y0032265D02*
X0323675Y0032265D01*
X0331107Y0032265D02*
X0333675Y0032265D01*
X0332905Y0030666D02*
X0331877Y0030666D01*
X0331991Y0029068D02*
X0332791Y0029068D01*
X0332791Y0027469D02*
X0331991Y0027469D01*
X0331991Y0025870D02*
X0332791Y0025870D01*
X0332791Y0024272D02*
X0331991Y0024272D01*
X0331991Y0022673D02*
X0332791Y0022673D01*
X0333406Y0021075D02*
X0331376Y0021075D01*
X0329758Y0019476D02*
X0335024Y0019476D01*
X0339758Y0019476D02*
X0345024Y0019476D01*
X0343406Y0021075D02*
X0341376Y0021075D01*
X0341991Y0022673D02*
X0342791Y0022673D01*
X0342791Y0024272D02*
X0341991Y0024272D01*
X0341991Y0025870D02*
X0342791Y0025870D01*
X0342791Y0027469D02*
X0341991Y0027469D01*
X0341991Y0029068D02*
X0342791Y0029068D01*
X0342905Y0030666D02*
X0341877Y0030666D01*
X0341107Y0032265D02*
X0343675Y0032265D01*
X0351107Y0032265D02*
X0353675Y0032265D01*
X0352905Y0030666D02*
X0351877Y0030666D01*
X0351991Y0029068D02*
X0352791Y0029068D01*
X0352791Y0027469D02*
X0351991Y0027469D01*
X0351991Y0025870D02*
X0352791Y0025870D01*
X0352791Y0024272D02*
X0351991Y0024272D01*
X0351991Y0022673D02*
X0352791Y0022673D01*
X0353406Y0021075D02*
X0351376Y0021075D01*
X0349758Y0019476D02*
X0355024Y0019476D01*
X0359758Y0019476D02*
X0365024Y0019476D01*
X0363406Y0021075D02*
X0361376Y0021075D01*
X0361991Y0022673D02*
X0362791Y0022673D01*
X0362791Y0024272D02*
X0361991Y0024272D01*
X0361991Y0025870D02*
X0362791Y0025870D01*
X0362791Y0027469D02*
X0361991Y0027469D01*
X0361991Y0029068D02*
X0362791Y0029068D01*
X0362905Y0030666D02*
X0361877Y0030666D01*
X0361107Y0032265D02*
X0363675Y0032265D01*
X0371107Y0032265D02*
X0373675Y0032265D01*
X0372905Y0030666D02*
X0371877Y0030666D01*
X0371991Y0029068D02*
X0372791Y0029068D01*
X0372791Y0027469D02*
X0371991Y0027469D01*
X0371991Y0025870D02*
X0372791Y0025870D01*
X0372791Y0024272D02*
X0371991Y0024272D01*
X0371991Y0022673D02*
X0372791Y0022673D01*
X0373406Y0021075D02*
X0371376Y0021075D01*
X0369758Y0019476D02*
X0375024Y0019476D01*
X0375491Y0017878D02*
X0267366Y0017878D01*
X0267366Y0016279D02*
X0373892Y0016279D01*
X0372293Y0014681D02*
X0267366Y0014681D01*
X0267984Y0013082D02*
X0351498Y0013082D01*
X0350561Y0011484D02*
X0268921Y0011484D01*
X0268826Y0009885D02*
X0350656Y0009885D01*
X0351729Y0008287D02*
X0267753Y0008287D01*
X0245024Y0019476D02*
X0239758Y0019476D01*
X0241376Y0021075D02*
X0243406Y0021075D01*
X0242791Y0022673D02*
X0241991Y0022673D01*
X0241991Y0024272D02*
X0242791Y0024272D01*
X0242791Y0025870D02*
X0241991Y0025870D01*
X0241991Y0027469D02*
X0242791Y0027469D01*
X0242145Y0029068D02*
X0241991Y0029068D01*
X0243006Y0033863D02*
X0245964Y0033863D01*
X0233675Y0032265D02*
X0231107Y0032265D01*
X0231877Y0030666D02*
X0232905Y0030666D01*
X0232791Y0029068D02*
X0231991Y0029068D01*
X0231991Y0027469D02*
X0232791Y0027469D01*
X0232791Y0025870D02*
X0231991Y0025870D01*
X0231991Y0024272D02*
X0232791Y0024272D01*
X0232791Y0022673D02*
X0231991Y0022673D01*
X0231376Y0021075D02*
X0233406Y0021075D01*
X0235024Y0019476D02*
X0229758Y0019476D01*
X0225024Y0019476D02*
X0219758Y0019476D01*
X0221376Y0021075D02*
X0223406Y0021075D01*
X0222791Y0022673D02*
X0221991Y0022673D01*
X0221991Y0024272D02*
X0222791Y0024272D01*
X0222791Y0025870D02*
X0221991Y0025870D01*
X0221991Y0027469D02*
X0222791Y0027469D01*
X0222791Y0029068D02*
X0221991Y0029068D01*
X0221877Y0030666D02*
X0222905Y0030666D01*
X0223675Y0032265D02*
X0221107Y0032265D01*
X0213675Y0032265D02*
X0211107Y0032265D01*
X0211877Y0030666D02*
X0212905Y0030666D01*
X0212791Y0029068D02*
X0211991Y0029068D01*
X0211991Y0027469D02*
X0212791Y0027469D01*
X0212791Y0025870D02*
X0211991Y0025870D01*
X0211991Y0024272D02*
X0212791Y0024272D01*
X0212791Y0022673D02*
X0211991Y0022673D01*
X0211376Y0021075D02*
X0213406Y0021075D01*
X0215024Y0019476D02*
X0209758Y0019476D01*
X0205024Y0019476D02*
X0199758Y0019476D01*
X0201376Y0021075D02*
X0203406Y0021075D01*
X0202791Y0022673D02*
X0201991Y0022673D01*
X0201991Y0024272D02*
X0202791Y0024272D01*
X0202791Y0025870D02*
X0201991Y0025870D01*
X0201991Y0027469D02*
X0202791Y0027469D01*
X0202791Y0029068D02*
X0201991Y0029068D01*
X0201877Y0030666D02*
X0202905Y0030666D01*
X0203675Y0032265D02*
X0201107Y0032265D01*
X0193675Y0032265D02*
X0191107Y0032265D01*
X0191877Y0030666D02*
X0192905Y0030666D01*
X0192791Y0029068D02*
X0191991Y0029068D01*
X0191991Y0027469D02*
X0192791Y0027469D01*
X0192791Y0025870D02*
X0191991Y0025870D01*
X0191991Y0024272D02*
X0192791Y0024272D01*
X0192791Y0022673D02*
X0191991Y0022673D01*
X0191376Y0021075D02*
X0193406Y0021075D01*
X0195024Y0019476D02*
X0189758Y0019476D01*
X0145024Y0019476D02*
X0139758Y0019476D01*
X0141376Y0021075D02*
X0143406Y0021075D01*
X0142791Y0022673D02*
X0141991Y0022673D01*
X0141991Y0024272D02*
X0142791Y0024272D01*
X0142791Y0025870D02*
X0141991Y0025870D01*
X0141991Y0027469D02*
X0142791Y0027469D01*
X0142791Y0029068D02*
X0141991Y0029068D01*
X0141877Y0030666D02*
X0142905Y0030666D01*
X0143675Y0032265D02*
X0141107Y0032265D01*
X0135024Y0019476D02*
X0133371Y0019476D01*
X0105535Y0045053D02*
X0088197Y0045053D01*
X0088665Y0046651D02*
X0103936Y0046651D01*
X0102338Y0048250D02*
X0088665Y0048250D01*
X0088665Y0049848D02*
X0100739Y0049848D01*
X0099141Y0051447D02*
X0088665Y0051447D01*
X0088665Y0053045D02*
X0097542Y0053045D01*
X0095944Y0054644D02*
X0088665Y0054644D01*
X0088665Y0056242D02*
X0094345Y0056242D01*
X0092747Y0057841D02*
X0088665Y0057841D01*
X0088276Y0059439D02*
X0091148Y0059439D01*
X0089550Y0061038D02*
X0084583Y0061038D01*
X0085241Y0062636D02*
X0087951Y0062636D01*
X0086353Y0064235D02*
X0085241Y0064235D01*
X0084754Y0065833D02*
X0084720Y0065833D01*
X0085616Y0070629D02*
X0145241Y0070629D01*
X0145241Y0072227D02*
X0084017Y0072227D01*
X0082419Y0073826D02*
X0145241Y0073826D01*
X0145241Y0075424D02*
X0080820Y0075424D01*
X0079222Y0077023D02*
X0145241Y0077023D01*
X0145241Y0078621D02*
X0077623Y0078621D01*
X0037594Y0051447D02*
X0034888Y0051447D01*
X0034888Y0049848D02*
X0037594Y0049848D01*
X0037594Y0048250D02*
X0034888Y0048250D01*
X0034888Y0046651D02*
X0037594Y0046651D01*
X0037594Y0045053D02*
X0034888Y0045053D01*
X0034342Y0043454D02*
X0038140Y0043454D01*
X0039616Y0041856D02*
X0032366Y0041856D01*
X0025783Y0048250D02*
X0018675Y0048250D01*
X0019368Y0049848D02*
X0025783Y0049848D01*
X0025783Y0051447D02*
X0020966Y0051447D01*
X0149241Y0064235D02*
X0175926Y0064235D01*
X0175541Y0065833D02*
X0149241Y0065833D01*
X0196071Y0070610D02*
X0196491Y0070610D01*
X0196491Y0070375D01*
X0196387Y0070480D01*
X0196071Y0070610D01*
X0200491Y0069030D02*
X0205241Y0069030D01*
X0205241Y0067432D02*
X0200491Y0067432D01*
X0200491Y0065833D02*
X0205241Y0065833D01*
X0205241Y0064235D02*
X0200491Y0064235D01*
X0200281Y0062636D02*
X0205451Y0062636D01*
X0206981Y0061038D02*
X0198381Y0061038D01*
X0198287Y0059439D02*
X0207075Y0059439D01*
X0207815Y0057841D02*
X0197547Y0057841D01*
X0195329Y0056242D02*
X0210033Y0056242D01*
X0213129Y0056242D02*
X0215241Y0056242D01*
X0219241Y0064235D02*
X0257926Y0064235D01*
X0257541Y0065833D02*
X0219241Y0065833D01*
X0219241Y0067432D02*
X0256281Y0067432D01*
X0244798Y0073826D02*
X0319262Y0073826D01*
X0317663Y0075424D02*
X0283194Y0075424D01*
X0284792Y0077023D02*
X0316065Y0077023D01*
X0314466Y0078621D02*
X0286391Y0078621D01*
X0287989Y0080220D02*
X0312868Y0080220D01*
X0311269Y0081818D02*
X0289588Y0081818D01*
X0291186Y0083417D02*
X0309671Y0083417D01*
X0308072Y0085015D02*
X0292785Y0085015D01*
X0294383Y0086614D02*
X0306474Y0086614D01*
X0304875Y0088212D02*
X0295982Y0088212D01*
X0297580Y0089811D02*
X0303991Y0089811D01*
X0303991Y0091409D02*
X0299179Y0091409D01*
X0300777Y0093008D02*
X0303991Y0093008D01*
X0303991Y0094606D02*
X0302376Y0094606D01*
X0303741Y0096205D02*
X0303991Y0096205D01*
X0303991Y0097803D02*
X0303741Y0097803D01*
X0303741Y0099402D02*
X0303991Y0099402D01*
X0303991Y0101001D02*
X0303741Y0101001D01*
X0303741Y0102599D02*
X0303991Y0102599D01*
X0303991Y0104198D02*
X0303741Y0104198D01*
X0307991Y0104198D02*
X0310541Y0104198D01*
X0310541Y0105796D02*
X0308780Y0105796D01*
X0308704Y0105612D02*
X0309191Y0106788D01*
X0309191Y0108062D01*
X0308885Y0108800D01*
X0310541Y0108800D01*
X0310541Y0101172D01*
X0311713Y0100000D01*
X0330153Y0081559D01*
X0329625Y0081559D01*
X0328688Y0080622D01*
X0328688Y0074178D01*
X0329207Y0073660D01*
X0328688Y0073142D01*
X0328688Y0070056D01*
X0307991Y0090753D01*
X0307991Y0104900D01*
X0308704Y0105612D01*
X0309191Y0107395D02*
X0310541Y0107395D01*
X0310541Y0102599D02*
X0307991Y0102599D01*
X0307991Y0101001D02*
X0310712Y0101001D01*
X0312311Y0099402D02*
X0307991Y0099402D01*
X0307991Y0097803D02*
X0313909Y0097803D01*
X0315508Y0096205D02*
X0307991Y0096205D01*
X0307991Y0094606D02*
X0317106Y0094606D01*
X0318705Y0093008D02*
X0307991Y0093008D01*
X0307991Y0091409D02*
X0320303Y0091409D01*
X0321902Y0089811D02*
X0308933Y0089811D01*
X0310532Y0088212D02*
X0323500Y0088212D01*
X0325099Y0086614D02*
X0312130Y0086614D01*
X0313729Y0085015D02*
X0326697Y0085015D01*
X0328296Y0083417D02*
X0315328Y0083417D01*
X0316926Y0081818D02*
X0329894Y0081818D01*
X0328688Y0080220D02*
X0318525Y0080220D01*
X0320123Y0078621D02*
X0328688Y0078621D01*
X0328688Y0077023D02*
X0321722Y0077023D01*
X0323320Y0075424D02*
X0328688Y0075424D01*
X0329041Y0073826D02*
X0324919Y0073826D01*
X0326517Y0072227D02*
X0328688Y0072227D01*
X0328688Y0070629D02*
X0328116Y0070629D01*
X0337794Y0072227D02*
X0345241Y0072227D01*
X0349241Y0083417D02*
X0350170Y0083417D01*
X0345241Y0108993D02*
X0326031Y0108993D01*
X0317177Y0112190D02*
X0313979Y0112190D01*
X0315741Y0113789D02*
X0304358Y0113789D01*
X0305957Y0115387D02*
X0315741Y0115387D01*
X0314327Y0116986D02*
X0307555Y0116986D01*
X0308541Y0118584D02*
X0312728Y0118584D01*
X0309433Y0120183D02*
X0308541Y0120183D01*
X0308541Y0121781D02*
X0308541Y0121781D01*
X0308541Y0123380D02*
X0308683Y0123380D01*
X0307591Y0124978D02*
X0309794Y0124978D01*
X0318899Y0132971D02*
X0343697Y0132971D01*
X0342842Y0131372D02*
X0320497Y0131372D01*
X0317300Y0134569D02*
X0375866Y0134569D01*
X0374662Y0136168D02*
X0315702Y0136168D01*
X0314103Y0137766D02*
X0374241Y0137766D01*
X0374386Y0139365D02*
X0312505Y0139365D01*
X0310906Y0140963D02*
X0339052Y0140963D01*
X0339028Y0140987D02*
X0339928Y0140087D01*
X0341104Y0139600D01*
X0342378Y0139600D01*
X0343554Y0140087D01*
X0344454Y0140987D01*
X0344941Y0142163D01*
X0344941Y0143437D01*
X0344454Y0144613D01*
X0343554Y0145513D01*
X0342378Y0146000D01*
X0341104Y0146000D01*
X0339928Y0145513D01*
X0339028Y0144613D01*
X0338541Y0143437D01*
X0338541Y0142163D01*
X0339028Y0140987D01*
X0338541Y0142562D02*
X0309308Y0142562D01*
X0307709Y0144160D02*
X0338841Y0144160D01*
X0340522Y0145759D02*
X0306111Y0145759D01*
X0304512Y0147357D02*
X0346269Y0147357D01*
X0345542Y0148956D02*
X0302914Y0148956D01*
X0299616Y0152253D02*
X0294241Y0157628D01*
X0294241Y0175128D01*
X0293069Y0176300D01*
X0280569Y0176300D01*
X0279866Y0177003D01*
X0279866Y0178025D01*
X0280579Y0178737D01*
X0281066Y0179913D01*
X0281066Y0181187D01*
X0280864Y0181675D01*
X0299616Y0181675D01*
X0299616Y0152253D01*
X0299616Y0153751D02*
X0298118Y0153751D01*
X0299616Y0155350D02*
X0296520Y0155350D01*
X0294921Y0156948D02*
X0299616Y0156948D01*
X0299616Y0158547D02*
X0294241Y0158547D01*
X0294241Y0160145D02*
X0299616Y0160145D01*
X0299616Y0161744D02*
X0294241Y0161744D01*
X0294241Y0163342D02*
X0299616Y0163342D01*
X0299616Y0164941D02*
X0294241Y0164941D01*
X0294241Y0166539D02*
X0299616Y0166539D01*
X0299616Y0168138D02*
X0294241Y0168138D01*
X0294241Y0169737D02*
X0299616Y0169737D01*
X0299616Y0171335D02*
X0294241Y0171335D01*
X0294241Y0172934D02*
X0299616Y0172934D01*
X0299616Y0174532D02*
X0294241Y0174532D01*
X0293239Y0176131D02*
X0299616Y0176131D01*
X0299616Y0177729D02*
X0279866Y0177729D01*
X0280823Y0179328D02*
X0299616Y0179328D01*
X0299616Y0180926D02*
X0281066Y0180926D01*
X0275866Y0178025D02*
X0275866Y0175347D01*
X0277038Y0174175D01*
X0277897Y0173316D01*
X0275389Y0173316D01*
X0275301Y0173228D01*
X0275213Y0173316D01*
X0267589Y0173316D01*
X0267501Y0173228D01*
X0267353Y0173376D01*
X0264241Y0173376D01*
X0264241Y0175210D01*
X0264963Y0175210D01*
X0265900Y0176148D01*
X0265900Y0181381D01*
X0269190Y0184670D01*
X0269041Y0184312D01*
X0269041Y0183038D01*
X0269528Y0181862D01*
X0270428Y0180962D01*
X0271604Y0180475D01*
X0272878Y0180475D01*
X0274054Y0180962D01*
X0274766Y0181675D01*
X0274868Y0181675D01*
X0274666Y0181187D01*
X0274666Y0179913D01*
X0275153Y0178737D01*
X0275866Y0178025D01*
X0275866Y0177729D02*
X0265900Y0177729D01*
X0265883Y0176131D02*
X0275866Y0176131D01*
X0276681Y0174532D02*
X0264241Y0174532D01*
X0260241Y0174532D02*
X0228587Y0174532D01*
X0228616Y0174503D02*
X0227444Y0175675D01*
X0216230Y0175675D01*
X0216691Y0176788D01*
X0216691Y0177797D01*
X0216819Y0177925D01*
X0250102Y0177925D01*
X0250102Y0176148D01*
X0251039Y0175210D01*
X0257483Y0175210D01*
X0258001Y0175729D01*
X0258519Y0175210D01*
X0260241Y0175210D01*
X0260241Y0173376D01*
X0259729Y0173376D01*
X0259171Y0172818D01*
X0258533Y0173456D01*
X0250909Y0173456D01*
X0250491Y0173038D01*
X0250073Y0173456D01*
X0242449Y0173456D01*
X0242369Y0173376D01*
X0234933Y0173376D01*
X0234873Y0173436D01*
X0229683Y0173436D01*
X0228616Y0174503D01*
X0218731Y0171675D02*
X0218731Y0168800D01*
X0217266Y0168800D01*
X0216554Y0169513D01*
X0215378Y0170000D01*
X0214816Y0170000D01*
X0214816Y0171187D01*
X0214614Y0171675D01*
X0218731Y0171675D01*
X0218731Y0171335D02*
X0214754Y0171335D01*
X0216014Y0169737D02*
X0218731Y0169737D01*
X0219207Y0164800D02*
X0218731Y0164325D01*
X0218731Y0161263D01*
X0216097Y0163898D01*
X0216554Y0164087D01*
X0217266Y0164800D01*
X0219207Y0164800D01*
X0218731Y0163342D02*
X0216652Y0163342D01*
X0218250Y0161744D02*
X0218731Y0161744D01*
X0215791Y0158547D02*
X0209017Y0158547D01*
X0209017Y0160145D02*
X0214192Y0160145D01*
X0212594Y0161744D02*
X0208565Y0161744D01*
X0209017Y0161292D02*
X0208080Y0162230D01*
X0201636Y0162230D01*
X0200921Y0161514D01*
X0200206Y0162230D01*
X0198616Y0162230D01*
X0198616Y0163177D01*
X0199104Y0162975D01*
X0200378Y0162975D01*
X0201554Y0163462D01*
X0202454Y0164362D01*
X0202941Y0165538D01*
X0202941Y0166547D01*
X0208069Y0171675D01*
X0208618Y0171675D01*
X0208416Y0171187D01*
X0208416Y0169913D01*
X0208903Y0168737D01*
X0209616Y0168025D01*
X0209616Y0164722D01*
X0219538Y0154800D01*
X0225493Y0154800D01*
X0225291Y0154312D01*
X0225291Y0153038D01*
X0225778Y0151862D01*
X0226491Y0151150D01*
X0226491Y0129425D01*
X0223046Y0129425D01*
X0222409Y0129541D01*
X0222241Y0129425D01*
X0222038Y0129425D01*
X0221813Y0129200D01*
X0221713Y0129200D01*
X0221254Y0128742D01*
X0220721Y0128373D01*
X0220685Y0128172D01*
X0216141Y0123628D01*
X0216141Y0121318D01*
X0214977Y0121800D01*
X0213465Y0121800D01*
X0212068Y0121221D01*
X0210999Y0120153D01*
X0210421Y0118756D01*
X0210421Y0114683D01*
X0208366Y0112628D01*
X0208366Y0110330D01*
X0207016Y0110330D01*
X0206301Y0109614D01*
X0205586Y0110330D01*
X0204241Y0110330D01*
X0204241Y0115753D01*
X0203069Y0116925D01*
X0197991Y0122003D01*
X0197991Y0132950D01*
X0198846Y0132950D01*
X0199561Y0133666D01*
X0200276Y0132950D01*
X0206720Y0132950D01*
X0207657Y0133888D01*
X0207657Y0136050D01*
X0210569Y0136050D01*
X0211302Y0136782D01*
X0211646Y0136640D01*
X0213316Y0136640D01*
X0214860Y0137279D01*
X0216042Y0138461D01*
X0216681Y0140005D01*
X0216681Y0141675D01*
X0216042Y0143219D01*
X0214860Y0144401D01*
X0213316Y0145040D01*
X0211646Y0145040D01*
X0210102Y0144401D01*
X0208920Y0143219D01*
X0208281Y0141675D01*
X0208281Y0140050D01*
X0207657Y0140050D01*
X0207657Y0141512D01*
X0206720Y0142450D01*
X0200276Y0142450D01*
X0199561Y0141734D01*
X0198846Y0142450D01*
X0197991Y0142450D01*
X0197991Y0152730D01*
X0200206Y0152730D01*
X0200921Y0153446D01*
X0201636Y0152730D01*
X0207232Y0152730D01*
X0208283Y0151680D01*
X0208281Y0151675D01*
X0208281Y0150005D01*
X0208920Y0148461D01*
X0210102Y0147279D01*
X0211646Y0146640D01*
X0213316Y0146640D01*
X0214860Y0147279D01*
X0216042Y0148461D01*
X0216681Y0150005D01*
X0216681Y0151675D01*
X0216042Y0153219D01*
X0214860Y0154401D01*
X0213316Y0155040D01*
X0211646Y0155040D01*
X0210892Y0154728D01*
X0209017Y0156602D01*
X0209017Y0161292D01*
X0210995Y0163342D02*
X0201265Y0163342D01*
X0201151Y0161744D02*
X0200691Y0161744D01*
X0202693Y0164941D02*
X0209616Y0164941D01*
X0209616Y0166539D02*
X0202941Y0166539D01*
X0204532Y0168138D02*
X0209503Y0168138D01*
X0208489Y0169737D02*
X0206131Y0169737D01*
X0207729Y0171335D02*
X0208478Y0171335D01*
X0216418Y0176131D02*
X0250119Y0176131D01*
X0250102Y0177729D02*
X0216691Y0177729D01*
X0233616Y0157244D02*
X0234689Y0157244D01*
X0234749Y0157184D01*
X0242373Y0157184D01*
X0242453Y0157264D01*
X0246449Y0157264D01*
X0246491Y0157222D01*
X0246491Y0157222D01*
X0247663Y0156050D01*
X0248366Y0156050D01*
X0248366Y0153337D01*
X0240977Y0153337D01*
X0240040Y0152400D01*
X0240040Y0149955D01*
X0238566Y0151428D01*
X0238566Y0152437D01*
X0238079Y0153613D01*
X0237179Y0154513D01*
X0236003Y0155000D01*
X0234729Y0155000D01*
X0233616Y0154539D01*
X0233616Y0157244D01*
X0233616Y0156948D02*
X0246764Y0156948D01*
X0248366Y0155350D02*
X0233616Y0155350D01*
X0237940Y0153751D02*
X0248366Y0153751D01*
X0252366Y0153751D02*
X0253991Y0153751D01*
X0253991Y0153337D02*
X0252366Y0153337D01*
X0252366Y0156050D01*
X0253694Y0156050D01*
X0253991Y0156347D01*
X0253991Y0153337D01*
X0253991Y0155350D02*
X0252366Y0155350D01*
X0257991Y0155350D02*
X0285866Y0155350D01*
X0285866Y0156948D02*
X0260843Y0156948D01*
X0257991Y0153751D02*
X0285866Y0153751D01*
X0285866Y0152153D02*
X0283467Y0152153D01*
X0284241Y0150554D02*
X0285866Y0150554D01*
X0286632Y0148956D02*
X0284241Y0148956D01*
X0284512Y0147357D02*
X0293855Y0147357D01*
X0293663Y0152550D02*
X0289866Y0152550D01*
X0289866Y0157284D01*
X0290241Y0157284D01*
X0290241Y0155972D01*
X0291413Y0154800D01*
X0293663Y0152550D01*
X0292461Y0153751D02*
X0289866Y0153751D01*
X0289866Y0155350D02*
X0290863Y0155350D01*
X0290241Y0156948D02*
X0289866Y0156948D01*
X0283371Y0165084D02*
X0283235Y0165220D01*
X0283531Y0165516D01*
X0283667Y0165380D01*
X0283371Y0165084D01*
X0274909Y0179328D02*
X0265900Y0179328D01*
X0265900Y0180926D02*
X0270515Y0180926D01*
X0269254Y0182525D02*
X0267044Y0182525D01*
X0268643Y0184123D02*
X0269041Y0184123D01*
X0271840Y0187320D02*
X0392537Y0187320D01*
X0392536Y0185722D02*
X0355050Y0185722D01*
X0355554Y0185513D02*
X0354378Y0186000D01*
X0353104Y0186000D01*
X0351928Y0185513D01*
X0351028Y0184613D01*
X0350541Y0183437D01*
X0350541Y0182163D01*
X0351028Y0180987D01*
X0351928Y0180087D01*
X0353104Y0179600D01*
X0354378Y0179600D01*
X0355554Y0180087D01*
X0356454Y0180987D01*
X0356941Y0182163D01*
X0356941Y0183437D01*
X0356454Y0184613D01*
X0355554Y0185513D01*
X0356657Y0184123D02*
X0392535Y0184123D01*
X0392535Y0182525D02*
X0356941Y0182525D01*
X0356393Y0180926D02*
X0392534Y0180926D01*
X0392533Y0179328D02*
X0303616Y0179328D01*
X0303616Y0180926D02*
X0351089Y0180926D01*
X0350541Y0182525D02*
X0303616Y0182525D01*
X0303616Y0184123D02*
X0350825Y0184123D01*
X0352432Y0185722D02*
X0274720Y0185722D01*
X0273438Y0188919D02*
X0392537Y0188919D01*
X0392538Y0190517D02*
X0275037Y0190517D01*
X0276635Y0192116D02*
X0392538Y0192116D01*
X0392539Y0193714D02*
X0278234Y0193714D01*
X0279832Y0195313D02*
X0392540Y0195313D01*
X0392540Y0196911D02*
X0392378Y0196911D01*
X0387104Y0196911D02*
X0281431Y0196911D01*
X0283029Y0198510D02*
X0386541Y0198510D01*
X0386819Y0200108D02*
X0284628Y0200108D01*
X0286226Y0201707D02*
X0388396Y0201707D01*
X0391086Y0201707D02*
X0392542Y0201707D01*
X0392543Y0203305D02*
X0287825Y0203305D01*
X0289423Y0204904D02*
X0392544Y0204904D01*
X0392544Y0206502D02*
X0291022Y0206502D01*
X0292620Y0208101D02*
X0392545Y0208101D01*
X0392546Y0209699D02*
X0294219Y0209699D01*
X0295817Y0211298D02*
X0392546Y0211298D01*
X0392547Y0212896D02*
X0297416Y0212896D01*
X0299014Y0214495D02*
X0392547Y0214495D01*
X0392548Y0216093D02*
X0300613Y0216093D01*
X0302211Y0217692D02*
X0392549Y0217692D01*
X0392549Y0219290D02*
X0371935Y0219290D01*
X0373533Y0220889D02*
X0374642Y0220889D01*
X0371976Y0224988D02*
X0371976Y0231575D01*
X0371417Y0232925D01*
X0373335Y0232925D01*
X0372776Y0231575D01*
X0372776Y0225788D01*
X0371976Y0224988D01*
X0371976Y0225684D02*
X0372672Y0225684D01*
X0372776Y0227283D02*
X0371976Y0227283D01*
X0371976Y0228881D02*
X0372776Y0228881D01*
X0372776Y0230480D02*
X0371976Y0230480D01*
X0371767Y0232078D02*
X0372985Y0232078D01*
X0375104Y0237600D02*
X0373928Y0238087D01*
X0373028Y0238987D01*
X0372541Y0240163D01*
X0372541Y0241437D01*
X0373028Y0242613D01*
X0373928Y0243513D01*
X0375104Y0244000D01*
X0376378Y0244000D01*
X0377554Y0243513D01*
X0378454Y0242613D01*
X0378941Y0241437D01*
X0378941Y0240163D01*
X0378454Y0238987D01*
X0377554Y0238087D01*
X0376378Y0237600D01*
X0375104Y0237600D01*
X0373543Y0238472D02*
X0284939Y0238472D01*
X0284554Y0238087D02*
X0285454Y0238987D01*
X0285941Y0240163D01*
X0285941Y0241437D01*
X0285454Y0242613D01*
X0284554Y0243513D01*
X0283378Y0244000D01*
X0282104Y0244000D01*
X0280928Y0243513D01*
X0280028Y0242613D01*
X0279541Y0241437D01*
X0279541Y0240163D01*
X0280028Y0238987D01*
X0280928Y0238087D01*
X0282104Y0237600D01*
X0283378Y0237600D01*
X0284554Y0238087D01*
X0285903Y0240071D02*
X0372579Y0240071D01*
X0372638Y0241670D02*
X0285844Y0241670D01*
X0284798Y0243268D02*
X0373684Y0243268D01*
X0377798Y0243268D02*
X0392559Y0243268D01*
X0392558Y0241670D02*
X0378844Y0241670D01*
X0378903Y0240071D02*
X0392558Y0240071D01*
X0392557Y0238472D02*
X0377939Y0238472D01*
X0379995Y0236874D02*
X0392556Y0236874D01*
X0392556Y0235275D02*
X0381594Y0235275D01*
X0383192Y0233677D02*
X0383888Y0233677D01*
X0382331Y0228881D02*
X0381976Y0228881D01*
X0381976Y0227283D02*
X0382776Y0227283D01*
X0382776Y0225684D02*
X0381976Y0225684D01*
X0381976Y0224086D02*
X0382776Y0224086D01*
X0383297Y0222487D02*
X0381455Y0222487D01*
X0380110Y0220889D02*
X0384642Y0220889D01*
X0390110Y0220889D02*
X0392550Y0220889D01*
X0392551Y0222487D02*
X0391455Y0222487D01*
X0391976Y0224086D02*
X0392551Y0224086D01*
X0392552Y0225684D02*
X0391976Y0225684D01*
X0391976Y0227283D02*
X0392553Y0227283D01*
X0392553Y0228881D02*
X0391976Y0228881D01*
X0391976Y0230480D02*
X0392554Y0230480D01*
X0392555Y0232078D02*
X0391767Y0232078D01*
X0392555Y0233677D02*
X0390864Y0233677D01*
X0392560Y0244867D02*
X0187628Y0244867D01*
X0189226Y0243268D02*
X0280684Y0243268D01*
X0279638Y0241670D02*
X0190825Y0241670D01*
X0192423Y0240071D02*
X0279579Y0240071D01*
X0280543Y0238472D02*
X0194022Y0238472D01*
X0189964Y0236874D02*
X0184866Y0236874D01*
X0184866Y0238472D02*
X0188365Y0238472D01*
X0191562Y0235275D02*
X0184866Y0235275D01*
X0190864Y0233677D02*
X0193161Y0233677D01*
X0192985Y0232078D02*
X0191767Y0232078D01*
X0191976Y0230480D02*
X0192776Y0230480D01*
X0192776Y0228881D02*
X0191976Y0228881D01*
X0191976Y0227283D02*
X0192776Y0227283D01*
X0192776Y0225684D02*
X0191976Y0225684D01*
X0191976Y0224086D02*
X0192776Y0224086D01*
X0193297Y0222487D02*
X0191455Y0222487D01*
X0190110Y0220889D02*
X0194642Y0220889D01*
X0200110Y0220889D02*
X0204642Y0220889D01*
X0203297Y0222487D02*
X0201455Y0222487D01*
X0201976Y0224086D02*
X0202776Y0224086D01*
X0202776Y0225684D02*
X0201976Y0225684D01*
X0201976Y0227283D02*
X0202776Y0227283D01*
X0202776Y0228881D02*
X0201976Y0228881D01*
X0201976Y0230480D02*
X0202776Y0230480D01*
X0202985Y0232078D02*
X0201767Y0232078D01*
X0211767Y0232078D02*
X0212985Y0232078D01*
X0212776Y0230480D02*
X0211976Y0230480D01*
X0211976Y0228881D02*
X0212776Y0228881D01*
X0212776Y0227283D02*
X0211976Y0227283D01*
X0211976Y0225684D02*
X0212776Y0225684D01*
X0212776Y0224086D02*
X0211976Y0224086D01*
X0211455Y0222487D02*
X0213297Y0222487D01*
X0214642Y0220889D02*
X0210110Y0220889D01*
X0220110Y0220889D02*
X0224642Y0220889D01*
X0223297Y0222487D02*
X0221455Y0222487D01*
X0221976Y0224086D02*
X0222776Y0224086D01*
X0222776Y0225684D02*
X0221976Y0225684D01*
X0221976Y0227283D02*
X0222776Y0227283D01*
X0222776Y0228881D02*
X0221976Y0228881D01*
X0221976Y0230480D02*
X0222776Y0230480D01*
X0222985Y0232078D02*
X0221767Y0232078D01*
X0231767Y0232078D02*
X0232985Y0232078D01*
X0232776Y0230480D02*
X0231976Y0230480D01*
X0231976Y0228881D02*
X0232776Y0228881D01*
X0232776Y0227283D02*
X0231976Y0227283D01*
X0231976Y0225684D02*
X0232776Y0225684D01*
X0232776Y0224086D02*
X0231976Y0224086D01*
X0231455Y0222487D02*
X0233297Y0222487D01*
X0234642Y0220889D02*
X0230110Y0220889D01*
X0240110Y0220889D02*
X0244642Y0220889D01*
X0243297Y0222487D02*
X0241455Y0222487D01*
X0241976Y0224086D02*
X0242776Y0224086D01*
X0242776Y0225684D02*
X0241976Y0225684D01*
X0241976Y0227283D02*
X0242776Y0227283D01*
X0242776Y0228881D02*
X0241976Y0228881D01*
X0241976Y0230480D02*
X0242776Y0230480D01*
X0242985Y0232078D02*
X0241767Y0232078D01*
X0251767Y0232078D02*
X0252985Y0232078D01*
X0252776Y0230480D02*
X0251976Y0230480D01*
X0251976Y0228881D02*
X0252776Y0228881D01*
X0252776Y0227283D02*
X0251976Y0227283D01*
X0251976Y0225684D02*
X0252776Y0225684D01*
X0252776Y0224086D02*
X0251976Y0224086D01*
X0251455Y0222487D02*
X0253297Y0222487D01*
X0254642Y0220889D02*
X0250110Y0220889D01*
X0260110Y0220889D02*
X0264642Y0220889D01*
X0263297Y0222487D02*
X0261455Y0222487D01*
X0261976Y0224086D02*
X0262776Y0224086D01*
X0262776Y0225684D02*
X0261976Y0225684D01*
X0261976Y0227283D02*
X0262776Y0227283D01*
X0262776Y0228881D02*
X0261976Y0228881D01*
X0261976Y0230480D02*
X0262776Y0230480D01*
X0262985Y0232078D02*
X0261767Y0232078D01*
X0271767Y0232078D02*
X0272985Y0232078D01*
X0272776Y0230480D02*
X0271976Y0230480D01*
X0271976Y0228881D02*
X0272776Y0228881D01*
X0272776Y0227283D02*
X0271976Y0227283D01*
X0271976Y0225684D02*
X0272776Y0225684D01*
X0272776Y0224086D02*
X0271976Y0224086D01*
X0271455Y0222487D02*
X0273297Y0222487D01*
X0274642Y0220889D02*
X0270110Y0220889D01*
X0280110Y0220889D02*
X0284642Y0220889D01*
X0283297Y0222487D02*
X0281455Y0222487D01*
X0281976Y0224086D02*
X0282776Y0224086D01*
X0282776Y0225684D02*
X0281976Y0225684D01*
X0281976Y0227283D02*
X0282776Y0227283D01*
X0282776Y0228881D02*
X0281976Y0228881D01*
X0281976Y0230480D02*
X0282776Y0230480D01*
X0282985Y0232078D02*
X0281767Y0232078D01*
X0291767Y0232078D02*
X0292985Y0232078D01*
X0292776Y0230480D02*
X0291976Y0230480D01*
X0291976Y0228881D02*
X0292776Y0228881D01*
X0292776Y0227283D02*
X0291976Y0227283D01*
X0291976Y0225684D02*
X0292776Y0225684D01*
X0292776Y0224086D02*
X0291976Y0224086D01*
X0291455Y0222487D02*
X0293297Y0222487D01*
X0294642Y0220889D02*
X0290110Y0220889D01*
X0301146Y0221925D02*
X0301276Y0222054D01*
X0301976Y0223745D01*
X0301976Y0231575D01*
X0301417Y0232925D01*
X0303335Y0232925D01*
X0302776Y0231575D01*
X0302776Y0223745D01*
X0303476Y0222054D01*
X0303606Y0221925D01*
X0301146Y0221925D01*
X0301455Y0222487D02*
X0303297Y0222487D01*
X0302776Y0224086D02*
X0301976Y0224086D01*
X0301976Y0225684D02*
X0302776Y0225684D01*
X0302776Y0227283D02*
X0301976Y0227283D01*
X0301976Y0228881D02*
X0302776Y0228881D01*
X0302776Y0230480D02*
X0301976Y0230480D01*
X0301767Y0232078D02*
X0302985Y0232078D01*
X0311417Y0232925D02*
X0313335Y0232925D01*
X0312776Y0231575D01*
X0312776Y0223745D01*
X0313476Y0222054D01*
X0313606Y0221925D01*
X0311146Y0221925D01*
X0311276Y0222054D01*
X0311976Y0223745D01*
X0311976Y0231575D01*
X0311417Y0232925D01*
X0311767Y0232078D02*
X0312985Y0232078D01*
X0312776Y0230480D02*
X0311976Y0230480D01*
X0311976Y0228881D02*
X0312776Y0228881D01*
X0312776Y0227283D02*
X0311976Y0227283D01*
X0311976Y0225684D02*
X0312776Y0225684D01*
X0312776Y0224086D02*
X0311976Y0224086D01*
X0311455Y0222487D02*
X0313297Y0222487D01*
X0321146Y0221925D02*
X0321276Y0222054D01*
X0321976Y0223745D01*
X0321976Y0231575D01*
X0321417Y0232925D01*
X0323335Y0232925D01*
X0322776Y0231575D01*
X0322776Y0223745D01*
X0323476Y0222054D01*
X0323606Y0221925D01*
X0321146Y0221925D01*
X0321455Y0222487D02*
X0323297Y0222487D01*
X0322776Y0224086D02*
X0321976Y0224086D01*
X0321976Y0225684D02*
X0322776Y0225684D01*
X0322776Y0227283D02*
X0321976Y0227283D01*
X0321976Y0228881D02*
X0322776Y0228881D01*
X0322776Y0230480D02*
X0321976Y0230480D01*
X0321767Y0232078D02*
X0322985Y0232078D01*
X0331417Y0232925D02*
X0333335Y0232925D01*
X0332776Y0231575D01*
X0332776Y0223745D01*
X0333476Y0222054D01*
X0333606Y0221925D01*
X0331146Y0221925D01*
X0331276Y0222054D01*
X0331976Y0223745D01*
X0331976Y0231575D01*
X0331417Y0232925D01*
X0331767Y0232078D02*
X0332985Y0232078D01*
X0332776Y0230480D02*
X0331976Y0230480D01*
X0331976Y0228881D02*
X0332776Y0228881D01*
X0332776Y0227283D02*
X0331976Y0227283D01*
X0331976Y0225684D02*
X0332776Y0225684D01*
X0332776Y0224086D02*
X0331976Y0224086D01*
X0331455Y0222487D02*
X0333297Y0222487D01*
X0341146Y0221925D02*
X0341276Y0222054D01*
X0341976Y0223745D01*
X0341976Y0231575D01*
X0341417Y0232925D01*
X0343335Y0232925D01*
X0342776Y0231575D01*
X0342776Y0223745D01*
X0343476Y0222054D01*
X0343606Y0221925D01*
X0341146Y0221925D01*
X0341455Y0222487D02*
X0343297Y0222487D01*
X0342776Y0224086D02*
X0341976Y0224086D01*
X0341976Y0225684D02*
X0342776Y0225684D01*
X0342776Y0227283D02*
X0341976Y0227283D01*
X0341976Y0228881D02*
X0342776Y0228881D01*
X0342776Y0230480D02*
X0341976Y0230480D01*
X0341767Y0232078D02*
X0342985Y0232078D01*
X0351417Y0232925D02*
X0353335Y0232925D01*
X0352776Y0231575D01*
X0352776Y0223745D01*
X0353476Y0222054D01*
X0353606Y0221925D01*
X0351146Y0221925D01*
X0351276Y0222054D01*
X0351976Y0223745D01*
X0351976Y0231575D01*
X0351417Y0232925D01*
X0351767Y0232078D02*
X0352985Y0232078D01*
X0352776Y0230480D02*
X0351976Y0230480D01*
X0351976Y0228881D02*
X0352776Y0228881D01*
X0352776Y0227283D02*
X0351976Y0227283D01*
X0351976Y0225684D02*
X0352776Y0225684D01*
X0352776Y0224086D02*
X0351976Y0224086D01*
X0351455Y0222487D02*
X0353297Y0222487D01*
X0361146Y0221925D02*
X0361276Y0222054D01*
X0361976Y0223745D01*
X0361976Y0231575D01*
X0361417Y0232925D01*
X0363335Y0232925D01*
X0362776Y0231575D01*
X0362776Y0223745D01*
X0363476Y0222054D01*
X0363606Y0221925D01*
X0361146Y0221925D01*
X0361455Y0222487D02*
X0363297Y0222487D01*
X0362776Y0224086D02*
X0361976Y0224086D01*
X0361976Y0225684D02*
X0362776Y0225684D01*
X0362776Y0227283D02*
X0361976Y0227283D01*
X0361976Y0228881D02*
X0362776Y0228881D01*
X0362776Y0230480D02*
X0361976Y0230480D01*
X0361767Y0232078D02*
X0362985Y0232078D01*
X0392533Y0177729D02*
X0303616Y0177729D01*
X0303616Y0176131D02*
X0392532Y0176131D01*
X0392531Y0174532D02*
X0303616Y0174532D01*
X0303616Y0172934D02*
X0392531Y0172934D01*
X0392530Y0171335D02*
X0303616Y0171335D01*
X0303616Y0169737D02*
X0364468Y0169737D01*
X0362832Y0168138D02*
X0303616Y0168138D01*
X0303616Y0166539D02*
X0362541Y0166539D01*
X0363075Y0164941D02*
X0303616Y0164941D01*
X0303616Y0163342D02*
X0392527Y0163342D01*
X0392526Y0161744D02*
X0303616Y0161744D01*
X0303616Y0160145D02*
X0392526Y0160145D01*
X0392525Y0158547D02*
X0303616Y0158547D01*
X0303616Y0156948D02*
X0392524Y0156948D01*
X0392524Y0155350D02*
X0361306Y0155350D01*
X0361340Y0153751D02*
X0392523Y0153751D01*
X0392522Y0152153D02*
X0370967Y0152153D01*
X0372565Y0150554D02*
X0392522Y0150554D01*
X0392521Y0148956D02*
X0374164Y0148956D01*
X0375762Y0147357D02*
X0392520Y0147357D01*
X0392520Y0145759D02*
X0377361Y0145759D01*
X0378959Y0144160D02*
X0392519Y0144160D01*
X0392519Y0142562D02*
X0386090Y0142562D01*
X0388483Y0140963D02*
X0392518Y0140963D01*
X0392517Y0139365D02*
X0389296Y0139365D01*
X0389441Y0137766D02*
X0392517Y0137766D01*
X0392516Y0136168D02*
X0389020Y0136168D01*
X0387816Y0134569D02*
X0392515Y0134569D01*
X0392515Y0132971D02*
X0357785Y0132971D01*
X0358640Y0131372D02*
X0375608Y0131372D01*
X0374493Y0126577D02*
X0358640Y0126577D01*
X0358640Y0124978D02*
X0375457Y0124978D01*
X0388225Y0124978D02*
X0392511Y0124978D01*
X0392512Y0126577D02*
X0389189Y0126577D01*
X0389441Y0128175D02*
X0392513Y0128175D01*
X0392513Y0129774D02*
X0389127Y0129774D01*
X0388074Y0131372D02*
X0392514Y0131372D01*
X0375199Y0140963D02*
X0344430Y0140963D01*
X0344941Y0142562D02*
X0374901Y0142562D01*
X0373302Y0144160D02*
X0344641Y0144160D01*
X0342960Y0145759D02*
X0371704Y0145759D01*
X0370105Y0147357D02*
X0360613Y0147357D01*
X0361340Y0148956D02*
X0368507Y0148956D01*
X0353749Y0147357D02*
X0353133Y0147357D01*
X0345576Y0155350D02*
X0303616Y0155350D01*
X0268759Y0136168D02*
X0267723Y0136168D01*
X0255558Y0129774D02*
X0242941Y0129774D01*
X0242739Y0128175D02*
X0253847Y0128175D01*
X0253541Y0126577D02*
X0241528Y0126577D01*
X0242516Y0124978D02*
X0254037Y0124978D01*
X0263104Y0121781D02*
X0265866Y0121781D01*
X0254523Y0134569D02*
X0241741Y0134569D01*
X0241741Y0136168D02*
X0253048Y0136168D01*
X0252791Y0137766D02*
X0241741Y0137766D01*
X0241741Y0139365D02*
X0251848Y0139365D01*
X0250249Y0140963D02*
X0241741Y0140963D01*
X0237741Y0140963D02*
X0233616Y0140963D01*
X0233616Y0139365D02*
X0237741Y0139365D01*
X0237741Y0137766D02*
X0233616Y0137766D01*
X0233616Y0136168D02*
X0237741Y0136168D01*
X0237741Y0134569D02*
X0233616Y0134569D01*
X0233616Y0133878D02*
X0233616Y0149061D01*
X0234729Y0148600D01*
X0235738Y0148600D01*
X0237741Y0146597D01*
X0237741Y0131825D01*
X0237028Y0131113D01*
X0236839Y0130656D01*
X0233616Y0133878D01*
X0234524Y0132971D02*
X0237741Y0132971D01*
X0237288Y0131372D02*
X0236122Y0131372D01*
X0233662Y0128175D02*
X0230491Y0128175D01*
X0230491Y0126597D02*
X0230491Y0131347D01*
X0230788Y0131050D01*
X0243366Y0118472D01*
X0243366Y0115000D01*
X0242854Y0115513D01*
X0241678Y0116000D01*
X0240404Y0116000D01*
X0239722Y0115717D01*
X0239741Y0115763D01*
X0239741Y0117037D01*
X0239254Y0118213D01*
X0238354Y0119113D01*
X0237178Y0119600D01*
X0235904Y0119600D01*
X0235243Y0119326D01*
X0232141Y0122428D01*
X0232141Y0123437D01*
X0231654Y0124613D01*
X0230754Y0125513D01*
X0229802Y0125907D01*
X0230491Y0126597D01*
X0230471Y0126577D02*
X0235261Y0126577D01*
X0236859Y0124978D02*
X0231288Y0124978D01*
X0232141Y0123380D02*
X0238458Y0123380D01*
X0240056Y0121781D02*
X0232788Y0121781D01*
X0234387Y0120183D02*
X0241655Y0120183D01*
X0243253Y0118584D02*
X0238882Y0118584D01*
X0239741Y0116986D02*
X0243366Y0116986D01*
X0243366Y0115387D02*
X0242979Y0115387D01*
X0233740Y0114800D02*
X0226444Y0114800D01*
X0224816Y0116428D01*
X0224816Y0117437D01*
X0224329Y0118613D01*
X0223429Y0119513D01*
X0222253Y0120000D01*
X0220979Y0120000D01*
X0220141Y0119653D01*
X0220141Y0121972D01*
X0223594Y0125425D01*
X0227041Y0125425D01*
X0226228Y0124613D01*
X0225741Y0123437D01*
X0225741Y0122163D01*
X0226228Y0120987D01*
X0227128Y0120087D01*
X0228304Y0119600D01*
X0229313Y0119600D01*
X0233477Y0115436D01*
X0233740Y0114800D01*
X0233497Y0115387D02*
X0225857Y0115387D01*
X0224816Y0116986D02*
X0231927Y0116986D01*
X0230328Y0118584D02*
X0224341Y0118584D01*
X0227033Y0120183D02*
X0220141Y0120183D01*
X0220141Y0121781D02*
X0225899Y0121781D01*
X0225741Y0123380D02*
X0221549Y0123380D01*
X0223148Y0124978D02*
X0226594Y0124978D01*
X0220686Y0128175D02*
X0197991Y0128175D01*
X0197991Y0126577D02*
X0219089Y0126577D01*
X0217491Y0124978D02*
X0197991Y0124978D01*
X0197991Y0123380D02*
X0216141Y0123380D01*
X0216141Y0121781D02*
X0215022Y0121781D01*
X0213420Y0121781D02*
X0198213Y0121781D01*
X0199812Y0120183D02*
X0211030Y0120183D01*
X0210421Y0118584D02*
X0201410Y0118584D01*
X0203009Y0116986D02*
X0210421Y0116986D01*
X0210421Y0115387D02*
X0204241Y0115387D01*
X0204241Y0113789D02*
X0209526Y0113789D01*
X0208366Y0112190D02*
X0204241Y0112190D01*
X0204241Y0110592D02*
X0208366Y0110592D01*
X0214397Y0107395D02*
X0215518Y0107395D01*
X0214397Y0105796D02*
X0217117Y0105796D01*
X0218969Y0109600D02*
X0219713Y0109600D01*
X0217566Y0111746D01*
X0217442Y0111447D01*
X0217282Y0111287D01*
X0218969Y0109600D01*
X0218721Y0110592D02*
X0217978Y0110592D01*
X0221369Y0113600D02*
X0221988Y0113600D01*
X0223188Y0112400D01*
X0222569Y0112400D01*
X0221369Y0113600D01*
X0226395Y0099402D02*
X0246711Y0099402D01*
X0248309Y0097803D02*
X0226691Y0097803D01*
X0226171Y0096205D02*
X0249908Y0096205D01*
X0253966Y0097803D02*
X0266219Y0097803D01*
X0266028Y0097613D02*
X0265541Y0096437D01*
X0265541Y0095163D01*
X0266028Y0093987D01*
X0266928Y0093087D01*
X0268104Y0092600D01*
X0269378Y0092600D01*
X0270554Y0093087D01*
X0271454Y0093987D01*
X0271941Y0095163D01*
X0271941Y0096437D01*
X0271454Y0097613D01*
X0270554Y0098513D01*
X0269378Y0099000D01*
X0268104Y0099000D01*
X0266928Y0098513D01*
X0266028Y0097613D01*
X0265541Y0096205D02*
X0254541Y0096205D01*
X0254541Y0094606D02*
X0265772Y0094606D01*
X0267120Y0093008D02*
X0254541Y0093008D01*
X0254541Y0091409D02*
X0285522Y0091409D01*
X0283924Y0089811D02*
X0254541Y0089811D01*
X0254541Y0088212D02*
X0282325Y0088212D01*
X0279455Y0086614D02*
X0254541Y0086614D01*
X0254541Y0085015D02*
X0277664Y0085015D01*
X0277341Y0083417D02*
X0254541Y0083417D01*
X0254541Y0081818D02*
X0277815Y0081818D01*
X0282332Y0080220D02*
X0255150Y0080220D01*
X0239610Y0072227D02*
X0220105Y0072227D01*
X0220441Y0073826D02*
X0238012Y0073826D01*
X0236413Y0075424D02*
X0219980Y0075424D01*
X0219241Y0070629D02*
X0240541Y0070629D01*
X0241010Y0069030D02*
X0219241Y0069030D01*
X0215241Y0070629D02*
X0213827Y0070629D01*
X0214377Y0072227D02*
X0211037Y0072227D01*
X0211037Y0073826D02*
X0214041Y0073826D01*
X0214502Y0075424D02*
X0211037Y0075424D01*
X0211037Y0077023D02*
X0234815Y0077023D01*
X0233216Y0078621D02*
X0211037Y0078621D01*
X0209291Y0070610D02*
X0209241Y0070610D01*
X0209241Y0070590D01*
X0209291Y0070610D01*
X0203638Y0070629D02*
X0202244Y0070629D01*
X0205756Y0101001D02*
X0206846Y0101001D01*
X0200241Y0110592D02*
X0196587Y0110592D01*
X0197750Y0112190D02*
X0200241Y0112190D01*
X0200241Y0113789D02*
X0198021Y0113789D01*
X0198021Y0115387D02*
X0198950Y0115387D01*
X0197991Y0129774D02*
X0226491Y0129774D01*
X0226491Y0131372D02*
X0197991Y0131372D01*
X0198866Y0132971D02*
X0200256Y0132971D01*
X0206740Y0132971D02*
X0226491Y0132971D01*
X0226491Y0134569D02*
X0207657Y0134569D01*
X0210687Y0136168D02*
X0226491Y0136168D01*
X0226491Y0137766D02*
X0215347Y0137766D01*
X0216416Y0139365D02*
X0226491Y0139365D01*
X0226491Y0140963D02*
X0216681Y0140963D01*
X0216314Y0142562D02*
X0226491Y0142562D01*
X0226491Y0144160D02*
X0215100Y0144160D01*
X0209862Y0144160D02*
X0197991Y0144160D01*
X0197991Y0142562D02*
X0208648Y0142562D01*
X0208281Y0140963D02*
X0207657Y0140963D01*
X0210024Y0147357D02*
X0197991Y0147357D01*
X0197991Y0145759D02*
X0226491Y0145759D01*
X0226491Y0147357D02*
X0214938Y0147357D01*
X0216247Y0148956D02*
X0226491Y0148956D01*
X0226491Y0150554D02*
X0216681Y0150554D01*
X0216483Y0152153D02*
X0225658Y0152153D01*
X0225291Y0153751D02*
X0215509Y0153751D01*
X0217389Y0156948D02*
X0209017Y0156948D01*
X0210270Y0155350D02*
X0218988Y0155350D01*
X0207810Y0152153D02*
X0197991Y0152153D01*
X0197991Y0150554D02*
X0208281Y0150554D01*
X0208715Y0148956D02*
X0197991Y0148956D01*
X0230491Y0129774D02*
X0232064Y0129774D01*
X0233616Y0142562D02*
X0237741Y0142562D01*
X0237741Y0144160D02*
X0233616Y0144160D01*
X0233616Y0145759D02*
X0237741Y0145759D01*
X0236980Y0147357D02*
X0233616Y0147357D01*
X0233616Y0148956D02*
X0233870Y0148956D01*
X0238566Y0152153D02*
X0240040Y0152153D01*
X0240040Y0150554D02*
X0239440Y0150554D01*
X0250491Y0165164D02*
X0250295Y0165360D01*
X0250491Y0165556D01*
X0250687Y0165360D01*
X0250491Y0165164D01*
X0259056Y0172934D02*
X0259286Y0172934D01*
X0273967Y0180926D02*
X0274666Y0180926D01*
X0350305Y0132971D02*
X0351177Y0132971D01*
X0392407Y0164941D02*
X0392528Y0164941D01*
X0392529Y0169737D02*
X0391014Y0169737D01*
X0388468Y0169737D02*
X0367014Y0169737D01*
X0296941Y0108993D02*
X0274762Y0108993D01*
X0273164Y0107395D02*
X0296941Y0107395D01*
X0296941Y0105796D02*
X0271565Y0105796D01*
X0269967Y0104198D02*
X0296941Y0104198D01*
X0296712Y0102599D02*
X0268368Y0102599D01*
X0266770Y0101001D02*
X0295113Y0101001D01*
X0293515Y0099402D02*
X0265171Y0099402D01*
X0271263Y0097803D02*
X0291916Y0097803D01*
X0290318Y0096205D02*
X0271941Y0096205D01*
X0271710Y0094606D02*
X0288719Y0094606D01*
X0287121Y0093008D02*
X0270362Y0093008D01*
X0283741Y0083417D02*
X0285529Y0083417D01*
X0284785Y0085015D02*
X0287128Y0085015D01*
X0286383Y0086614D02*
X0288726Y0086614D01*
X0287982Y0088212D02*
X0290325Y0088212D01*
X0289580Y0089811D02*
X0291924Y0089811D01*
X0291179Y0091409D02*
X0293522Y0091409D01*
X0292777Y0093008D02*
X0295121Y0093008D01*
X0294376Y0094606D02*
X0296719Y0094606D01*
X0295974Y0096205D02*
X0298318Y0096205D01*
X0297573Y0097803D02*
X0299741Y0097803D01*
X0299741Y0099402D02*
X0299171Y0099402D01*
X0283931Y0081818D02*
X0283267Y0081818D01*
X0263409Y0105796D02*
X0257145Y0105796D01*
X0252337Y0105796D02*
X0251073Y0105796D01*
X0249475Y0107395D02*
X0265007Y0107395D01*
X0266606Y0108993D02*
X0247876Y0108993D01*
X0263616Y0033863D02*
X0265964Y0033863D01*
X0263675Y0032265D02*
X0263616Y0032265D01*
X0355753Y0008287D02*
X0392465Y0008287D01*
X0392465Y0009885D02*
X0373155Y0009885D01*
X0374753Y0011484D02*
X0392466Y0011484D01*
X0392466Y0013082D02*
X0376352Y0013082D01*
X0377950Y0014681D02*
X0392467Y0014681D01*
X0392468Y0016279D02*
X0379549Y0016279D01*
X0381147Y0017878D02*
X0392468Y0017878D01*
X0392469Y0019476D02*
X0389758Y0019476D01*
X0391376Y0021075D02*
X0392470Y0021075D01*
X0392470Y0022673D02*
X0391991Y0022673D01*
X0391991Y0024272D02*
X0392471Y0024272D01*
X0392472Y0025870D02*
X0391991Y0025870D01*
X0391991Y0027469D02*
X0392472Y0027469D01*
X0392473Y0029068D02*
X0391991Y0029068D01*
X0391877Y0030666D02*
X0392474Y0030666D01*
X0392474Y0032265D02*
X0391107Y0032265D01*
X0392475Y0033863D02*
X0388818Y0033863D01*
X0385964Y0033863D02*
X0384866Y0033863D01*
X0384866Y0035462D02*
X0392475Y0035462D01*
X0392476Y0037060D02*
X0384866Y0037060D01*
X0384866Y0038659D02*
X0392477Y0038659D01*
X0392477Y0040257D02*
X0384866Y0040257D01*
X0384866Y0041856D02*
X0392478Y0041856D01*
X0392479Y0043454D02*
X0384866Y0043454D01*
X0384866Y0045053D02*
X0392479Y0045053D01*
X0392480Y0046651D02*
X0384866Y0046651D01*
X0387716Y0048250D02*
X0392481Y0048250D01*
X0392481Y0049848D02*
X0388810Y0049848D01*
X0388937Y0051447D02*
X0392482Y0051447D01*
X0392483Y0053045D02*
X0388021Y0053045D01*
X0385024Y0019476D02*
X0382746Y0019476D01*
M02*
